<?xml version="1.0" encoding="utf-8"?>
<!-- Generator: Adobe Illustrator 16.0.0, SVG Export Plug-In . SVG Version: 6.00 Build 0)  -->
<!DOCTYPE svg PUBLIC "-//W3C//DTD SVG 1.1//EN" "http://www.w3.org/Graphics/SVG/1.1/DTD/svg11.dtd">
<svg version="1.1" id="Layer_2" xmlns="http://www.w3.org/2000/svg" xmlns:xlink="http://www.w3.org/1999/xlink" x="0px" y="0px"
	 width="1024px" height="1024px" viewBox="0 0 1024 1024" enable-background="new 0 0 1024 1024" xml:space="preserve">
<g>
	<path fill="#FFFFFF" d="M26.381,26.5v971.862h971.863V26.5H26.381z M961.748,961.866H62.877V62.996h898.871V961.866z"/>
	
		<rect x="750.509" y="265.567" transform="matrix(-0.8285 -0.5599 0.5599 -0.8285 1192.2593 1101.5359)" fill="#FFFFFF" width="28.56" height="205.301"/>
	
		<rect x="548.198" y="585.887" transform="matrix(0.8286 0.5599 -0.5599 0.8286 470.1783 -200.48)" fill="#FFFFFF" width="28.562" height="163.376"/>
	
		<rect x="464.411" y="353.977" transform="matrix(-0.5599 -0.8285 0.8285 -0.5599 579.4583 1044.2903)" fill="#FFFFFF" width="205.303" height="28.56"/>
	
		<rect x="687.649" y="653.348" transform="matrix(0.56 0.8285 -0.8285 0.56 891.635 -343.6302)" fill="#FFFFFF" width="163.369" height="28.56"/>
	<polygon fill="#FFFFFF" points="219.06,523.558 458.664,523.558 458.664,494.997 219.06,494.997 219.06,309.342 482.864,309.342 
		482.864,280.78 219.06,280.78 190.498,280.78 190.498,309.342 190.498,494.997 190.498,523.558 190.498,737.775 219.06,737.775 	
		"/>
</g>
</svg>
