<?xml version="1.0" encoding="utf-8"?>
<!-- Generator: Adobe Illustrator 16.0.0, SVG Export Plug-In . SVG Version: 6.00 Build 0)  -->
<!DOCTYPE svg PUBLIC "-//W3C//DTD SVG 1.1//EN" "http://www.w3.org/Graphics/SVG/1.1/DTD/svg11.dtd">
<svg version="1.1" id="Layer_2" xmlns="http://www.w3.org/2000/svg" xmlns:xlink="http://www.w3.org/1999/xlink" x="0px" y="0px"
	 width="1024px" height="1024px" viewBox="0 0 1024 1024" enable-background="new 0 0 1024 1024" xml:space="preserve">
<path fill="#666666" d="M0,512c0,282.304,229.696,512,512,512c282.304,0,512-229.696,512-512C1024,229.696,794.304,0,512,0
	C229.696,0,0,229.696,0,512z M512,32c264.672,0,480,215.328,480,480S776.672,992,512,992S32,776.672,32,512S247.328,32,512,32z
	 M512,928c229.376,0,416-186.624,416-416S741.376,96,512,96S96,282.624,96,512S282.624,928,512,928z M480,129.632v48.832
	c0,8.832,7.168,16,16,16s16-7.168,16-16V128c200.928,0,366.016,155.2,382.368,352h-48.864c-8.832,0-16,7.168-16,16s7.168,16,16,16
	H896c0,211.744-172.256,384-384,384v-50.464c0-8.832-7.168-16-16-16s-16,7.168-16,16v48.832C283.232,878.016,128,712.96,128,512
	h50.496c8.832,0,16-7.168,16-16s-7.168-16-16-16h-48.864C145.088,293.792,293.792,145.088,480,129.632L480,129.632z
	 M300.352,737.312c3.264,0,6.528-0.992,9.344-3.009l179.647-129.151c7.296,1.792,14.816,2.976,22.656,2.976
	c52.928,0,96-43.072,96-96c0-7.584-1.12-14.88-2.784-21.983L736.608,307.36c4.575-6.368,3.872-15.136-1.664-20.672
	c-5.504-5.536-14.272-6.176-20.672-1.696L529.376,417.888c-5.664-1.056-11.456-1.76-17.408-1.76c-52.928,0-96,43.072-96,96
	c0,6.24,0.704,12.353,1.856,18.272L287.36,711.968c-4.576,6.368-3.872,15.136,1.664,20.672
	C292.128,735.712,296.224,737.312,300.352,737.312L300.352,737.312z M448,512.16c0-35.296,28.704-64,64-64s64,28.704,64,64
	s-28.704,64-64,64S448,547.424,448,512.16z M653.568,368.096l-63.584,88.48c-6.912-9.632-15.425-18.017-25.345-24.544
	L653.568,368.096z M432.16,565.344c6.368,9.536,14.527,17.696,23.775,24.416l-85.504,61.473L432.16,565.344z"/>
</svg>
