<?xml version="1.0" encoding="utf-8"?>
<!-- Generator: Adobe Illustrator 19.2.1, SVG Export Plug-In . SVG Version: 6.00 Build 0)  -->
<svg version="1.1" id="Layer_2" xmlns="http://www.w3.org/2000/svg" xmlns:xlink="http://www.w3.org/1999/xlink" x="0px" y="0px"
	 viewBox="0 0 1024 1024" style="enable-background:new 0 0 1024 1024;" xml:space="preserve">
<style type="text/css">
	.st0{fill:#A62D3E;}
	.st1{fill:#FFFFFF;}
	.st2{fill:none;stroke:#A62D3E;stroke-width:1.4173;stroke-miterlimit:10;}
</style>
<g>
	<g>
		<g>
			<path class="st0" d="M515,922.6C515,922.6,515,922.6,515,922.6c-122.2,0-237.3-27.6-324.1-77.7
				C103.7,794.6,55.7,727.6,55.7,656.3c0-70.7,47.3-136.9,133.2-186.5c85.5-49.3,199.2-76.5,320.4-76.5c122.2,0,237.3,27.6,324,77.7
				c87.2,50.4,135.3,117.4,135.3,188.6c0,70.7-47.3,136.9-133.3,186.5C749.9,895.4,636.1,922.6,515,922.6z M509.3,398.6
				c-120.2,0-233,26.9-317.7,75.8C107.4,523,61,587.6,61,656.3c0,69.3,47.1,134.6,132.6,184c86,49.6,200.1,76.9,321.4,77
				c120.2,0,233-26.9,317.7-75.8c84.2-48.6,130.6-113.2,130.6-181.9c0-69.3-47.1-134.6-132.6-184
				C744.7,425.9,630.6,398.6,509.3,398.6z"/>
			<path class="st0" d="M514.7,893.5C514.7,893.5,514.7,893.5,514.7,893.5c-108.7,0-211.1-24.5-288.2-69.1
				c-77.6-44.8-120.4-104.4-120.4-167.9c0-62.9,42.1-121.9,118.6-166.1c76-43.9,177.2-68.1,284.9-68.1c108.7,0,211,24.5,288.2,69.1
				c77.6,44.8,120.4,104.5,120.4,167.9c0,62.9-42.1,121.9-118.6,166C723.6,869.3,622.4,893.5,514.7,893.5z M509.6,427.7
				c-106.8,0-207,23.9-282.2,67.3c-74.7,43.2-115.9,100.5-115.9,161.4c0,61.5,41.8,119.5,117.7,163.3
				c76.4,44.1,177.8,68.4,285.5,68.4c0,0,0,0,0,0c106.8,0,207-23.9,282.2-67.3c74.7-43.2,115.9-100.5,115.9-161.4
				c0-61.5-41.8-119.5-117.7-163.3C718.7,452,617.4,427.7,509.6,427.7z"/>
			<g>
				<path class="st0" d="M892.7,494.7l-2.1-1.6c-13-9.8-27.2-19.2-42.2-27.8c-15.1-8.7-31.3-16.9-48.3-24.4l-6.9-3l188.4-51.5
					L892.7,494.7z M809.1,439.1c14.7,6.7,28.8,14,42,21.6c14.4,8.3,28.1,17.3,40.7,26.7l74.9-91.4L809.1,439.1z"/>
			</g>
			<g>
				<path class="st0" d="M984.6,931.2l-189-52.2l6.9-3c16.9-7.4,33.1-15.6,48-24.2c14.9-8.6,29-17.9,41.9-27.7l2-1.6L984.6,931.2z
					 M811.5,877.8l158.1,43.6l-75.9-91.6c-12.5,9.3-26.1,18.3-40.4,26.5C840.1,864,826.1,871.2,811.5,877.8z"/>
			</g>
			<g>
				<path class="st0" d="M42.7,929.5l88.9-108.3l2.1,1.6c12.9,9.8,27.1,19.1,42.2,27.8c15.1,8.7,31.4,17,48.3,24.4l6.9,3.1
					L42.7,929.5z M132.4,828.5l-74.9,91.3l157.6-43.1c-14.6-6.7-28.7-14-42-21.6C158.7,846.8,145,837.8,132.4,828.5z"/>
			</g>
			<g>
				<path class="st0" d="M129.7,493.3L39.7,384.6l189,52.2l-6.9,3c-16.9,7.5-33.1,15.6-48,24.2c-14.9,8.6-29,17.9-41.9,27.7
					L129.7,493.3z M54.7,394.3l75.9,91.6c12.6-9.4,26.2-18.3,40.4-26.5c13.1-7.6,27.1-14.8,41.7-21.4L54.7,394.3z"/>
			</g>
		</g>
	</g>
	<g>
		<g>
			<polygon class="st1" points="514.9,441.1 216.6,268.9 513.1,97.7 811.3,269.9 			"/>
			<path class="st0" d="M514.9,444.2L211.3,268.9L513.1,94.6l303.7,175.3L514.9,444.2z M222,268.9L514.9,438L806,269.9L513.1,100.8
				L222,268.9z"/>
		</g>
		<g>
			<polygon class="st1" points="514,489 215.7,316.8 215.7,269.4 514,441.6 			"/>
			<path class="st0" d="M516.7,493.6L213,318.3v-53.6l303.7,175.3V493.6z M218.4,315.2l292.9,169.1v-41.2L218.4,274V315.2z"/>
		</g>
		<g>
			<polygon class="st1" points="812.3,316.8 514,489 514,441.6 812.3,269.4 			"/>
			<path class="st0" d="M511.3,493.6v-53.6l1.3-0.8L815,264.7v53.6l-1.3,0.8L511.3,493.6z M516.7,443.2v41.2l292.9-169.1V274
				L516.7,443.2z"/>
		</g>
		<g>
			<polygon class="st1" points="512.6,815.4 242.5,659.4 242.5,334.4 512.6,490.3 			"/>
			<path class="st0" d="M515.3,820.1L239.8,661V329.7l275.5,159.1V820.1z M245.2,657.9L510,810.8V491.9L245.2,339V657.9z"/>
		</g>
		<g>
			<polygon class="st1" points="784.1,659.4 514,815.4 514,490.3 784.1,334.4 			"/>
			<path class="st0" d="M511.3,820.1l0-331.3l1.3-0.8l274.2-158.3V661L511.3,820.1z M516.7,491.9l0,318.9l264.8-152.9V339
				L516.7,491.9z"/>
		</g>
		<path class="st0" d="M437.9,555.9c-2.3,0-4.8-0.7-7.2-2.2l-108.8-62.8c-8.1-4.7-14.5-15.7-14.5-25c0-7.2,4-12,9.9-12
			c2.3,0,4.7,0.7,7.2,2.2l108.8,62.8c8.1,4.7,14.5,15.7,14.5,25C447.8,551.1,443.8,555.9,437.9,555.9z M317.3,459.3
			c-4.1,0-4.6,4.6-4.6,6.6c0,7.3,5.4,16.6,11.8,20.3l108.8,62.8c1.6,0.9,3.2,1.4,4.6,1.4c4.1,0,4.6-4.6,4.6-6.6
			c0-7.3-5.4-16.6-11.8-20.3l-108.8-62.8C320.2,459.8,318.6,459.3,317.3,459.3z"/>
	</g>
</g>
<g>
	<path class="st0" d="M515,923.7c-117.7,0-235.5-26-325.4-77.8C101.5,795,53,727.1,53,654.9c0-71.7,47.8-138.7,134.6-188.8
		c15.5-8.9,32.1-17.3,49.6-24.8V333.9l-26.8-15.5V268h10.7v44.3l25.3,14.6l1.5,6.1v115.4l-3.3,1.4c-18.2,7.7-35.6,16.3-51.6,25.6
		C109.6,523.4,63.7,587.2,63.7,654.9c0,68.3,46.6,132.8,131.2,181.7c176,101.6,461.5,102.1,636.4,1.2
		c83.3-48.1,129.2-111.9,129.2-179.5c0-68.3-46.6-132.8-131.2-181.7c-14.4-8.3-30.3-16.3-47.3-23.7l-3.2-1.4V333h10.7v111.4
		c16.2,7.2,31.4,14.9,45.2,22.8c88.1,50.9,136.6,118.7,136.6,191c0,71.7-47.8,138.7-134.6,188.8C748.1,898.1,631.7,923.7,515,923.7z
		"/>
	<polygon class="st0" points="787,337.5 781.3,328.4 806.9,312.4 806.9,272.2 513.1,102.5 219.3,272.1 213.9,262.8 513.1,90.1 
		811.3,262.3 817.6,258.7 817.6,318.3 	"/>
	<path class="st2" d="M784.1,333"/>
</g>
</svg>
