<?xml version="1.0" encoding="utf-8"?>
<!-- Generator: Adobe Illustrator 19.2.1, SVG Export Plug-In . SVG Version: 6.00 Build 0)  -->
<svg version="1.1" id="Layer_2" xmlns="http://www.w3.org/2000/svg" xmlns:xlink="http://www.w3.org/1999/xlink" x="0px" y="0px"
	 viewBox="0 0 1024 1024" style="enable-background:new 0 0 1024 1024;" xml:space="preserve">
<style type="text/css">
	.st0{fill:#FFFFFF;stroke:#A62D3E;stroke-width:4.8141;stroke-miterlimit:10;}
	.st1{fill:none;stroke:#A62D3E;stroke-width:4.8141;stroke-miterlimit:10;}
	.st2{fill:#A62D3E;}
	.st3{fill:none;stroke:#A62D3E;stroke-width:9.6281;stroke-miterlimit:10;}
</style>
<g>
	<g>
		<polygon class="st0" points="742,602.6 471.9,446.7 471.9,64.7 742,220.6 		"/>
		<polygon class="st1" points="698,320.1 515.9,215 515.9,181.3 698,286.5 		"/>
		<polygon class="st1" points="712.5,552.2 501.4,430.3 501.4,222.7 712.5,344.6 		"/>
		<polygon class="st1" points="712.5,379.2 501.4,257.3 501.4,222.7 712.5,344.6 		"/>
		<line class="st1" x1="561.7" y1="292.1" x2="561.7" y2="465.1"/>
		<line class="st1" x1="561.7" y1="326.7" x2="712.5" y2="413.8"/>
		<line class="st1" x1="561.7" y1="361.3" x2="712.5" y2="448.4"/>
		<line class="st1" x1="561.7" y1="395.9" x2="712.5" y2="483"/>
		<line class="st1" x1="561.7" y1="430.5" x2="712.5" y2="517.6"/>
		<g>
			<path class="st2" d="M579.9,198.9v-4.6l8.8,5.1l0-37l-8.9-5.1v-4.6l22.9,13.2l0,4.6l-8.8-5.1v37l8.9,5.1l0,4.6L579.9,198.9z"/>
			<path class="st2" d="M611.4,217v-46.2l9.5,5.5c4.4,2.5,7.7,5.3,9.8,8.3c2.1,3,3.7,6.6,4.8,10.7c1.1,4.2,1.6,8.7,1.6,13.6
				c0,4.6-0.6,8.3-1.7,11.2c-1.1,2.8-2.7,4.6-4.8,5.3c-2.1,0.7-5.3-0.3-9.7-2.8L611.4,217z M616.6,214.9l3.5,2
				c3.5,2.1,6.1,2.8,7.6,2.2c1.5-0.6,2.6-2,3.2-4.2c0.6-2.2,1-5.6,1-10.1c0-4.4-0.4-8.1-1.1-10.9c-0.8-2.8-1.8-5.3-3.3-7.4
				c-1.4-2.1-3.7-4.1-7-5.9l-3.9-2.3L616.6,214.9L616.6,214.9z"/>
		</g>
	</g>
	<g>
		<polygon class="st0" points="700.3,820.2 430.2,664.2 430.2,282.2 700.3,438.2 		"/>
		<polygon class="st1" points="656.4,537.7 474.2,432.6 474.2,398.9 656.4,504.1 		"/>
		<polygon class="st1" points="670.8,769.7 459.8,647.9 459.8,440.3 670.8,562.2 		"/>
		<polygon class="st1" points="670.8,596.8 459.8,474.9 459.8,440.3 670.8,562.2 		"/>
		<line class="st1" x1="520.1" y1="509.7" x2="520.1" y2="682.7"/>
		<line class="st1" x1="520.1" y1="544.3" x2="670.8" y2="631.3"/>
		<line class="st1" x1="520.1" y1="578.9" x2="670.8" y2="665.9"/>
		<line class="st1" x1="520.1" y1="613.5" x2="670.8" y2="700.5"/>
		<line class="st1" x1="520.1" y1="648.1" x2="670.8" y2="735.1"/>
		<g>
			<path class="st2" d="M538.2,416.4v-4.6l8.9,5.1v-37l-8.9-5.1v-4.6l22.9,13.2v4.6l-8.9-5.1v37l8.9,5.1v4.6L538.2,416.4z"/>
			<path class="st2" d="M569.7,434.6v-46.2l9.5,5.5c4.4,2.5,7.7,5.3,9.8,8.3c2.1,3,3.7,6.6,4.8,10.7c1.1,4.2,1.6,8.7,1.6,13.6
				c0,4.6-0.6,8.3-1.7,11.2c-1.1,2.8-2.7,4.6-4.8,5.3c-2.1,0.7-5.3-0.3-9.7-2.8L569.7,434.6z M574.9,432.5l3.5,2
				c3.5,2,6.1,2.8,7.6,2.2c1.5-0.6,2.6-2,3.2-4.2c0.6-2.2,1-5.6,1-10.1c0-4.4-0.4-8-1.1-10.9c-0.8-2.8-1.9-5.3-3.3-7.4
				c-1.4-2.1-3.7-4.1-7-5.9l-3.9-2.3L574.9,432.5L574.9,432.5L574.9,432.5z"/>
		</g>
	</g>
	<g>
		<polygon class="st0" points="658.7,844.3 388.6,688.4 388.6,306.4 658.7,462.3 		"/>
		<polygon class="st1" points="614.7,561.9 432.5,456.7 432.5,423.1 614.7,528.2 		"/>
		<polygon class="st1" points="629.1,793.9 418.1,672 418.1,464.4 629.1,586.3 		"/>
		<polygon class="st1" points="629.1,620.9 418.1,499 418.1,464.4 629.1,586.3 		"/>
		<line class="st1" x1="478.4" y1="533.9" x2="478.4" y2="706.8"/>
		<line class="st1" x1="478.4" y1="568.5" x2="629.1" y2="655.5"/>
		<line class="st1" x1="478.4" y1="603.1" x2="629.1" y2="690.1"/>
		<line class="st1" x1="478.4" y1="637.6" x2="629.1" y2="724.7"/>
		<line class="st1" x1="478.4" y1="672.3" x2="629.1" y2="759.3"/>
		<g>
			<path class="st2" d="M496.6,440.6v-4.6l8.8,5.1v-37l-8.8-5.1v-4.6l22.9,13.2v4.6l-8.8-5.1v37l8.8,5.1v4.6L496.6,440.6z"/>
			<path class="st2" d="M528,458.7v-46.2l9.5,5.5c4.4,2.5,7.7,5.3,9.8,8.3c2.1,3,3.7,6.6,4.8,10.7c1.1,4.2,1.6,8.7,1.6,13.5
				c0,4.6-0.6,8.3-1.7,11.1c-1.1,2.8-2.7,4.6-4.8,5.3c-2.1,0.7-5.3-0.3-9.7-2.8L528,458.7z M533.3,456.6l3.5,2
				c3.5,2,6.1,2.8,7.6,2.2c1.5-0.6,2.6-2,3.2-4.2c0.6-2.2,1-5.6,1-10.1c0-4.4-0.4-8.1-1.1-10.9c-0.7-2.8-1.8-5.3-3.3-7.4
				c-1.4-2.1-3.7-4.1-7-5.9l-3.9-2.3V456.6z"/>
		</g>
	</g>
	<g>
		<polygon class="st0" points="617,868.5 346.9,712.5 346.9,330.5 617,486.4 		"/>
		<polygon class="st1" points="573,586 390.9,480.8 390.9,447.2 573,552.4 		"/>
		<polygon class="st1" points="587.5,818 376.4,696.2 376.4,488.6 587.5,610.4 		"/>
		<polygon class="st1" points="587.5,645 376.4,523.2 376.4,488.6 587.5,610.4 		"/>
		<line class="st1" x1="436.7" y1="558" x2="436.7" y2="731"/>
		<line class="st1" x1="436.7" y1="592.6" x2="587.5" y2="679.6"/>
		<line class="st1" x1="436.7" y1="627.2" x2="587.5" y2="714.2"/>
		<line class="st1" x1="436.7" y1="661.8" x2="587.5" y2="748.8"/>
		<line class="st1" x1="436.7" y1="696.4" x2="587.5" y2="783.4"/>
		<g>
			<path class="st2" d="M454.9,464.7v-4.6l8.8,5.1v-37l-8.8-5.1v-4.6l22.9,13.2v4.6l-8.8-5.1v37l8.8,5.1v4.6L454.9,464.7z"/>
			<path class="st2" d="M486.3,482.9v-46.2l9.5,5.5c4.4,2.5,7.6,5.3,9.8,8.3c2.1,3,3.7,6.6,4.8,10.7c1.1,4.2,1.6,8.7,1.6,13.5
				c0,4.6-0.6,8.3-1.7,11.2c-1.1,2.8-2.7,4.6-4.8,5.3s-5.3-0.3-9.7-2.8L486.3,482.9z M491.6,480.8l3.5,2c3.5,2,6.1,2.8,7.6,2.2
				c1.5-0.6,2.6-2,3.2-4.2c0.7-2.2,1-5.6,1-10.1c0-4.4-0.4-8-1.1-10.9c-0.8-2.8-1.9-5.3-3.3-7.4c-1.4-2.1-3.7-4.1-7-5.9l-3.9-2.3
				L491.6,480.8L491.6,480.8z"/>
		</g>
	</g>
	<g>
		<polygon class="st0" points="575.3,892.6 305.2,736.7 305.2,354.7 575.3,510.6 		"/>
		<polygon class="st1" points="531.4,610.1 349.2,505 349.2,471.3 531.4,576.5 		"/>
		<polygon class="st1" points="545.8,842.2 334.7,720.3 334.7,512.7 545.8,634.6 		"/>
		<polygon class="st1" points="545.8,669.2 334.7,547.3 334.7,512.7 545.8,634.6 		"/>
		<line class="st1" x1="395" y1="582.1" x2="395" y2="755.1"/>
		<line class="st1" x1="395" y1="616.7" x2="545.8" y2="703.8"/>
		<line class="st1" x1="395" y1="651.3" x2="545.8" y2="738.4"/>
		<line class="st1" x1="395" y1="685.9" x2="545.8" y2="773"/>
		<line class="st1" x1="395" y1="720.5" x2="545.8" y2="807.6"/>
		<g>
			<path class="st2" d="M413.2,488.8v-4.6l8.8,5.1l0-37l-8.9-5.1v-4.6l22.9,13.2v4.6l-8.9-5.1v37l8.9,5.1v4.6L413.2,488.8z"/>
			<path class="st2" d="M444.7,507v-46.2l9.5,5.5c4.4,2.5,7.7,5.3,9.8,8.3c2.1,3,3.7,6.6,4.8,10.7c1.1,4.2,1.6,8.7,1.6,13.6
				c0,4.6-0.6,8.3-1.7,11.2c-1.1,2.8-2.7,4.6-4.8,5.3c-2.1,0.7-5.3-0.3-9.7-2.8L444.7,507z M449.9,504.9l3.5,2
				c3.5,2,6.1,2.8,7.6,2.2c1.5-0.6,2.6-2,3.2-4.2c0.6-2.2,1-5.6,1-10.1c0-4.4-0.4-8.1-1.1-10.9c-0.8-2.8-1.9-5.3-3.3-7.4
				c-1.4-2.1-3.7-4.1-7-5.9l-3.9-2.3V504.9L449.9,504.9z"/>
		</g>
	</g>
	<g>
		<polygon class="st0" points="533.6,916.7 263.5,760.8 263.5,378.8 533.6,534.7 		"/>
		<polygon class="st1" points="489.7,634.3 307.5,529.1 307.5,495.5 489.7,600.7 		"/>
		<polygon class="st1" points="504.1,866.3 293.1,744.4 293.1,536.9 504.1,658.7 		"/>
		<polygon class="st1" points="504.1,693.3 293.1,571.5 293.1,536.9 504.1,658.7 		"/>
		<line class="st1" x1="353.4" y1="606.3" x2="353.4" y2="779.3"/>
		<line class="st1" x1="353.4" y1="640.9" x2="504.1" y2="727.9"/>
		<line class="st1" x1="353.4" y1="675.5" x2="504.1" y2="762.5"/>
		<line class="st1" x1="353.4" y1="710.1" x2="504.1" y2="797.1"/>
		<line class="st1" x1="353.4" y1="744.7" x2="504.1" y2="831.7"/>
		<g>
			<path class="st2" d="M371.5,513v-4.6l8.8,5.1l0-37l-8.9-5.1v-4.6l22.9,13.2v4.6l-8.9-5.1v37l8.9,5.1v4.6L371.5,513z"/>
			<path class="st2" d="M403,531.1v-46.2l9.5,5.5c4.4,2.5,7.6,5.3,9.8,8.3c2.1,3,3.7,6.6,4.8,10.7c1.1,4.2,1.6,8.7,1.6,13.6
				c0,4.6-0.6,8.3-1.7,11.2c-1.1,2.8-2.7,4.6-4.8,5.3c-2.1,0.7-5.3-0.3-9.7-2.8L403,531.1z M408.2,529.1l3.5,2
				c3.5,2,6.1,2.8,7.6,2.2c1.5-0.6,2.6-2,3.2-4.2c0.7-2.2,1-5.6,1-10.1c0-4.4-0.4-8-1.1-10.9c-0.8-2.8-1.8-5.3-3.3-7.4
				c-1.4-2.1-3.7-4.1-7-5.9l-3.9-2.3L408.2,529.1L408.2,529.1z"/>
		</g>
	</g>
	<polyline class="st1" points="742,366.8 814.8,408.9 814.8,771.6 	"/>
	<polygon class="st0" points="814.8,772.7 513.3,946.8 513.3,584 814.8,409.9 	"/>
	<polyline class="st1" points="210.3,771.6 210.3,408.9 471.9,257.8 	"/>
	<polygon class="st0" points="511.8,946.8 210.3,772.7 210.3,409.9 511.8,584 	"/>
	<path class="st1" d="M436.5,643.8c0,9.3-6.6,13-14.7,8.4L300.4,582c-8.1-4.7-14.7-16-14.7-25.3l0,0c0-9.3,6.6-13,14.7-8.4
		l121.4,70.1C429.9,623.2,436.5,634.5,436.5,643.8L436.5,643.8z"/>
</g>
<g>
	<polyline class="st3" points="471.2,253.6 209.6,404.6 209.6,405.7 209.6,767.4 209.6,768.4 511.1,942.5 	"/>
	<polyline class="st3" points="741.3,362.6 741.3,216.3 471.2,60.4 471.2,253.6 	"/>
	<polyline class="st3" points="512.6,942.5 814.1,768.4 814.1,767.4 814.1,405.7 814.1,404.6 741.3,362.6 	"/>
</g>
</svg>
