<?xml version="1.0" encoding="utf-8"?>
<!-- Generator: Adobe Illustrator 16.0.0, SVG Export Plug-In . SVG Version: 6.00 Build 0)  -->
<!DOCTYPE svg PUBLIC "-//W3C//DTD SVG 1.1//EN" "http://www.w3.org/Graphics/SVG/1.1/DTD/svg11.dtd">
<svg version="1.1" id="Layer_2" xmlns="http://www.w3.org/2000/svg" xmlns:xlink="http://www.w3.org/1999/xlink" x="0px" y="0px"
	 width="1024px" height="1024px" viewBox="0 0 1024 1024" enable-background="new 0 0 1024 1024" xml:space="preserve">
<g>
	<g>
		<polygon fill="#FFFFFF" stroke="#005295" stroke-width="4.8141" stroke-miterlimit="10" points="742.017,602.602 471.921,446.67 
			471.921,64.653 742.017,220.598 		"/>
		<polygon fill="none" stroke="#005295" stroke-width="4.8141" stroke-miterlimit="10" points="698.046,320.147 515.891,214.979 
			515.891,181.345 698.046,286.513 		"/>
		<polygon fill="none" stroke="#005295" stroke-width="4.8141" stroke-miterlimit="10" points="712.489,552.164 501.442,430.317 
			501.442,222.734 712.489,344.587 		"/>
		<polygon fill="none" stroke="#005295" stroke-width="4.8141" stroke-miterlimit="10" points="712.489,379.183 501.442,257.337 
			501.442,222.734 712.489,344.587 		"/>
		
			<line fill="none" stroke="#005295" stroke-width="4.8141" stroke-miterlimit="10" x1="561.744" y1="292.146" x2="561.744" y2="465.133"/>
		
			<line fill="none" stroke="#005295" stroke-width="4.8141" stroke-miterlimit="10" x1="561.744" y1="326.734" x2="712.489" y2="413.779"/>
		
			<line fill="none" stroke="#005295" stroke-width="4.8141" stroke-miterlimit="10" x1="561.744" y1="361.344" x2="712.489" y2="448.375"/>
		
			<line fill="none" stroke="#005295" stroke-width="4.8141" stroke-miterlimit="10" x1="561.744" y1="395.94" x2="712.489" y2="482.971"/>
		
			<line fill="none" stroke="#005295" stroke-width="4.8141" stroke-miterlimit="10" x1="561.744" y1="430.543" x2="712.489" y2="517.574"/>
		<g>
			<path fill="#005295" d="M579.914,198.852v-4.617l8.844,5.108l0.007-36.971l-8.851-5.108v-4.611l22.935,13.241l-0.007,4.611
				l-8.844-5.102v36.964l8.851,5.108l-0.007,4.617L579.914,198.852z"/>
			<path fill="#005295" d="M611.361,217.002V170.81l9.533,5.507c4.397,2.534,7.662,5.294,9.805,8.286
				c2.13,2.985,3.734,6.574,4.804,10.74c1.08,4.173,1.611,8.69,1.611,13.553c0,4.604-0.563,8.319-1.697,11.151
				c-1.129,2.82-2.74,4.578-4.811,5.254c-2.083,0.677-5.314-0.252-9.712-2.786L611.361,217.002z M616.595,214.939l3.489,2.01
				c3.549,2.05,6.069,2.779,7.581,2.202c1.507-0.577,2.589-1.957,3.231-4.159c0.649-2.196,0.975-5.566,0.975-10.09
				c0-4.431-0.378-8.054-1.141-10.879c-0.757-2.813-1.845-5.281-3.264-7.384c-1.413-2.103-3.735-4.066-6.967-5.944l-3.906-2.255
				L616.595,214.939L616.595,214.939z"/>
		</g>
	</g>
	<g>
		<polygon fill="#FFFFFF" stroke="#005295" stroke-width="4.8141" stroke-miterlimit="10" points="700.335,820.176 430.245,664.238 
			430.245,282.228 700.335,438.172 		"/>
		<polygon fill="none" stroke="#005295" stroke-width="4.8141" stroke-miterlimit="10" points="656.371,537.722 474.21,432.553 
			474.21,398.919 656.371,504.08 		"/>
		<polygon fill="none" stroke="#005295" stroke-width="4.8141" stroke-miterlimit="10" points="670.814,769.738 459.768,647.892 
			459.768,440.309 670.814,562.161 		"/>
		<polygon fill="none" stroke="#005295" stroke-width="4.8141" stroke-miterlimit="10" points="670.814,596.75 459.768,474.904 
			459.768,440.309 670.814,562.161 		"/>
		
			<line fill="none" stroke="#005295" stroke-width="4.8141" stroke-miterlimit="10" x1="520.064" y1="509.72" x2="520.064" y2="682.707"/>
		
			<line fill="none" stroke="#005295" stroke-width="4.8141" stroke-miterlimit="10" x1="520.064" y1="544.315" x2="670.814" y2="631.34"/>
		
			<line fill="none" stroke="#005295" stroke-width="4.8141" stroke-miterlimit="10" x1="520.064" y1="578.912" x2="670.814" y2="665.949"/>
		
			<line fill="none" stroke="#005295" stroke-width="4.8141" stroke-miterlimit="10" x1="520.064" y1="613.515" x2="670.814" y2="700.546"/>
		
			<line fill="none" stroke="#005295" stroke-width="4.8141" stroke-miterlimit="10" x1="520.064" y1="648.104" x2="670.814" y2="735.142"/>
		<g>
			<path fill="#005295" d="M538.235,416.426v-4.617l8.855,5.108v-36.971l-8.855-5.102v-4.617l22.939,13.242v4.61l-8.851-5.108
				v36.971l8.851,5.107v4.611L538.235,416.426z"/>
			<path fill="#005295" d="M569.679,434.57v-46.199l9.547,5.513c4.392,2.541,7.662,5.301,9.791,8.286
				c2.144,2.992,3.748,6.575,4.815,10.741c1.068,4.179,1.6,8.689,1.6,13.553c0,4.611-0.557,8.319-1.686,11.159
				c-1.142,2.819-2.739,4.578-4.815,5.254c-2.076,0.677-5.313-0.252-9.712-2.799L569.679,434.57z M574.92,432.514l3.495,2.018
				c3.542,2.036,6.058,2.771,7.569,2.194c1.513-0.583,2.602-1.97,3.244-4.158c0.648-2.202,0.969-5.566,0.969-10.104
				c0.006-4.418-0.379-8.047-1.135-10.866c-0.763-2.818-1.852-5.28-3.271-7.384c-1.405-2.103-3.729-4.08-6.959-5.944l-3.914-2.255
				v36.5H574.92z"/>
		</g>
	</g>
	<g>
		<polygon fill="#FFFFFF" stroke="#005295" stroke-width="4.8141" stroke-miterlimit="10" points="658.666,844.323 388.572,688.379 
			388.572,306.368 658.666,462.312 		"/>
		<polygon fill="none" stroke="#005295" stroke-width="4.8141" stroke-miterlimit="10" points="614.691,561.855 432.534,456.694 
			432.541,423.053 614.691,528.222 		"/>
		<polygon fill="none" stroke="#005295" stroke-width="4.8141" stroke-miterlimit="10" points="629.146,793.872 418.093,672.033 
			418.093,464.449 629.146,586.295 		"/>
		<polygon fill="none" stroke="#005295" stroke-width="4.8141" stroke-miterlimit="10" points="629.146,620.898 418.093,499.045 
			418.093,464.449 629.146,586.295 		"/>
		
			<line fill="none" stroke="#005295" stroke-width="4.8141" stroke-miterlimit="10" x1="478.389" y1="533.867" x2="478.389" y2="706.841"/>
		
			<line fill="none" stroke="#005295" stroke-width="4.8141" stroke-miterlimit="10" x1="478.389" y1="568.457" x2="629.146" y2="655.487"/>
		
			<line fill="none" stroke="#005295" stroke-width="4.8141" stroke-miterlimit="10" x1="478.389" y1="603.053" x2="629.146" y2="690.097"/>
		
			<line fill="none" stroke="#005295" stroke-width="4.8141" stroke-miterlimit="10" x1="478.389" y1="637.648" x2="629.146" y2="724.688"/>
		
			<line fill="none" stroke="#005295" stroke-width="4.8141" stroke-miterlimit="10" x1="478.389" y1="672.252" x2="629.146" y2="759.283"/>
		<g>
			<path fill="#005295" d="M496.566,440.561v-4.616l8.843,5.107v-36.958l-8.843-5.107v-4.624l22.927,13.24v4.624l-8.843-5.107
				v36.958l8.843,5.115v4.609L496.566,440.561z"/>
			<path fill="#005295" d="M528.011,458.718v-46.199l9.54,5.507c4.397,2.533,7.654,5.308,9.792,8.293
				c2.143,2.979,3.741,6.566,4.821,10.739c1.068,4.166,1.6,8.685,1.6,13.548c0,4.604-0.563,8.324-1.698,11.15
				c-1.128,2.826-2.727,4.584-4.815,5.261c-2.062,0.67-5.301-0.252-9.698-2.793L528.011,458.718z M533.252,456.647l3.488,2.017
				c3.549,2.044,6.063,2.78,7.576,2.209c1.513-0.59,2.594-1.97,3.237-4.173c0.644-2.196,0.962-5.56,0.976-10.09
				c0-4.433-0.379-8.055-1.147-10.88c-0.749-2.812-1.845-5.273-3.257-7.37c-1.421-2.109-3.741-4.08-6.967-5.944l-3.906-2.262
				V456.647z"/>
		</g>
	</g>
	<g>
		<polygon fill="#FFFFFF" stroke="#005295" stroke-width="4.8141" stroke-miterlimit="10" points="616.991,868.458 346.897,712.52 
			346.897,330.522 616.991,486.447 		"/>
		<polygon fill="none" stroke="#005295" stroke-width="4.8141" stroke-miterlimit="10" points="573.023,586.004 390.854,480.835 
			390.866,447.201 573.023,552.362 		"/>
		<polygon fill="none" stroke="#005295" stroke-width="4.8141" stroke-miterlimit="10" points="587.472,818.02 376.425,696.167 
			376.425,488.59 587.472,610.443 		"/>
		<polygon fill="none" stroke="#005295" stroke-width="4.8141" stroke-miterlimit="10" points="587.472,645.032 376.425,523.188 
			376.425,488.59 587.472,610.443 		"/>
		
			<line fill="none" stroke="#005295" stroke-width="4.8141" stroke-miterlimit="10" x1="436.721" y1="558.002" x2="436.721" y2="730.988"/>
		
			<line fill="none" stroke="#005295" stroke-width="4.8141" stroke-miterlimit="10" x1="436.721" y1="592.598" x2="587.472" y2="679.629"/>
		
			<line fill="none" stroke="#005295" stroke-width="4.8141" stroke-miterlimit="10" x1="436.721" y1="627.2" x2="587.472" y2="714.231"/>
		
			<line fill="none" stroke="#005295" stroke-width="4.8141" stroke-miterlimit="10" x1="436.721" y1="661.797" x2="587.472" y2="748.828"/>
		
			<line fill="none" stroke="#005295" stroke-width="4.8141" stroke-miterlimit="10" x1="436.721" y1="696.386" x2="587.472" y2="783.424"/>
		<g>
			<path fill="#005295" d="M454.898,464.708v-4.61l8.843,5.103v-36.972l-8.843-5.108v-4.611l22.927,13.242v4.611l-8.843-5.108
				v36.964l8.843,5.115v4.61L454.898,464.708z"/>
			<path fill="#005295" d="M486.337,482.852v-46.198l9.546,5.52c4.392,2.534,7.648,5.294,9.792,8.286
				c2.129,2.992,3.741,6.568,4.81,10.74c1.075,4.167,1.612,8.685,1.612,13.547c-0.007,4.598-0.571,8.319-1.698,11.158
				c-1.135,2.825-2.74,4.578-4.816,5.254s-5.307-0.252-9.698-2.799L486.337,482.852z M491.571,480.795l3.49,2.018
				c3.549,2.043,6.07,2.772,7.589,2.202c1.499-0.584,2.587-1.977,3.224-4.166c0.657-2.202,0.976-5.565,0.976-10.097
				c0.007-4.425-0.378-8.047-1.134-10.867c-0.764-2.826-1.858-5.279-3.265-7.39c-1.419-2.104-3.734-4.08-6.966-5.931l-3.914-2.27
				V480.795L491.571,480.795z"/>
		</g>
	</g>
	<g>
		<polygon fill="#FFFFFF" stroke="#005295" stroke-width="4.8141" stroke-miterlimit="10" points="575.318,892.605 305.223,736.661 
			305.223,354.657 575.318,510.596 		"/>
		<polygon fill="none" stroke="#005295" stroke-width="4.8141" stroke-miterlimit="10" points="531.355,610.138 349.186,504.977 
			349.186,471.335 531.355,576.504 		"/>
		<polygon fill="none" stroke="#005295" stroke-width="4.8141" stroke-miterlimit="10" points="545.797,842.154 334.743,720.314 
			334.743,512.731 545.797,634.577 		"/>
		<polygon fill="none" stroke="#005295" stroke-width="4.8141" stroke-miterlimit="10" points="545.797,669.18 334.743,547.327 
			334.743,512.731 545.797,634.577 		"/>
		
			<line fill="none" stroke="#005295" stroke-width="4.8141" stroke-miterlimit="10" x1="395.039" y1="582.143" x2="395.039" y2="755.123"/>
		
			<line fill="none" stroke="#005295" stroke-width="4.8141" stroke-miterlimit="10" x1="395.039" y1="616.738" x2="545.797" y2="703.77"/>
		
			<line fill="none" stroke="#005295" stroke-width="4.8141" stroke-miterlimit="10" x1="395.039" y1="651.335" x2="545.797" y2="738.379"/>
		
			<line fill="none" stroke="#005295" stroke-width="4.8141" stroke-miterlimit="10" x1="395.039" y1="685.931" x2="545.797" y2="772.969"/>
		
			<line fill="none" stroke="#005295" stroke-width="4.8141" stroke-miterlimit="10" x1="395.039" y1="720.533" x2="545.797" y2="807.564"/>
		<g>
			<path fill="#005295" d="M413.224,488.842v-4.61l8.843,5.107l0.007-36.964l-8.85-5.108v-4.624l22.927,13.241v4.61l-8.85-5.103
				v36.973l8.85,5.107v4.611L413.224,488.842z"/>
			<path fill="#005295" d="M444.656,507v-46.199l9.546,5.506c4.398,2.541,7.663,5.309,9.792,8.292
				c2.137,2.985,3.748,6.568,4.816,10.734c1.068,4.173,1.612,8.69,1.612,13.553c0,4.604-0.564,8.326-1.691,11.152
				c-1.148,2.826-2.74,4.584-4.823,5.261c-2.069,0.685-5.308-0.252-9.706-2.793L444.656,507z M449.896,504.93l3.496,2.018
				c3.542,2.044,6.07,2.779,7.576,2.209c1.506-0.59,2.594-1.971,3.237-4.173c0.65-2.195,0.976-5.565,0.976-10.091
				c0-4.432-0.385-8.054-1.142-10.872c-0.756-2.819-1.851-5.281-3.264-7.378c-1.413-2.103-3.734-4.079-6.965-5.943l-3.914-2.255
				L449.896,504.93L449.896,504.93z"/>
		</g>
	</g>
	<g>
		<polygon fill="#FFFFFF" stroke="#005295" stroke-width="4.8141" stroke-miterlimit="10" points="533.644,916.74 263.548,760.802 
			263.548,378.805 533.644,534.729 		"/>
		<polygon fill="none" stroke="#005295" stroke-width="4.8141" stroke-miterlimit="10" points="489.674,634.285 307.511,529.117 
			307.518,495.47 489.674,600.651 		"/>
		<polygon fill="none" stroke="#005295" stroke-width="4.8141" stroke-miterlimit="10" points="504.121,866.309 293.069,744.449 
			293.069,536.872 504.121,658.725 		"/>
		<polygon fill="none" stroke="#005295" stroke-width="4.8141" stroke-miterlimit="10" points="504.121,693.314 293.069,571.469 
			293.069,536.872 504.121,658.725 		"/>
		
			<line fill="none" stroke="#005295" stroke-width="4.8141" stroke-miterlimit="10" x1="353.371" y1="606.283" x2="353.371" y2="779.271"/>
		
			<line fill="none" stroke="#005295" stroke-width="4.8141" stroke-miterlimit="10" x1="353.371" y1="640.88" x2="504.121" y2="727.91"/>
		
			<line fill="none" stroke="#005295" stroke-width="4.8141" stroke-miterlimit="10" x1="353.371" y1="675.482" x2="504.121" y2="762.514"/>
		
			<line fill="none" stroke="#005295" stroke-width="4.8141" stroke-miterlimit="10" x1="353.371" y1="710.072" x2="504.121" y2="797.109"/>
		
			<line fill="none" stroke="#005295" stroke-width="4.8141" stroke-miterlimit="10" x1="353.371" y1="744.668" x2="504.121" y2="831.713"/>
		<g>
			<path fill="#005295" d="M371.549,512.983v-4.61l8.836,5.107l0.013-36.972l-8.85-5.107v-4.61l22.927,13.241v4.61l-8.85-5.107
				v36.964l8.85,5.108v4.623L371.549,512.983z"/>
			<path fill="#005295" d="M402.988,531.141v-46.198l9.546,5.513c4.393,2.534,7.649,5.294,9.785,8.286
				c2.144,2.992,3.742,6.561,4.823,10.74c1.068,4.166,1.604,8.684,1.604,13.554c-0.007,4.604-0.57,8.318-1.697,11.15
				c-1.136,2.826-2.733,4.577-4.816,5.255c-2.07,0.677-5.307-0.252-9.699-2.786L402.988,531.141z M408.228,529.077l3.496,2.017
				c3.542,2.044,6.057,2.773,7.569,2.203c1.513-0.584,2.594-1.978,3.236-4.166c0.657-2.195,0.976-5.565,0.976-10.098
				c0-4.425-0.378-8.047-1.142-10.879c-0.756-2.813-1.845-5.274-3.257-7.377c-1.426-2.104-3.749-4.08-6.973-5.932l-3.907-2.269
				L408.228,529.077L408.228,529.077z"/>
		</g>
	</g>
	<polyline fill="none" stroke="#005295" stroke-width="4.8141" stroke-miterlimit="10" points="742.017,366.804 814.823,408.85 
		814.823,771.629 	"/>
	<polygon fill="#FFFFFF" stroke="#005295" stroke-width="4.8141" stroke-miterlimit="10" points="814.823,772.696 513.329,946.771 
		513.329,583.974 814.823,409.911 	"/>
	<polyline fill="none" stroke="#005295" stroke-width="4.8141" stroke-miterlimit="10" points="210.337,771.629 210.337,408.85 
		471.921,257.814 	"/>
	<polygon fill="#FFFFFF" stroke="#005295" stroke-width="4.8141" stroke-miterlimit="10" points="511.83,946.771 210.337,772.696 
		210.337,409.911 511.83,583.974 	"/>
	<path fill="none" stroke="#005295" stroke-width="4.8141" stroke-miterlimit="10" d="M436.455,643.771
		c0,9.295-6.561,13.028-14.653,8.353l-121.435-70.107c-8.101-4.677-14.661-15.987-14.661-25.274l0,0
		c0-9.294,6.561-13.036,14.661-8.354l121.435,70.114C429.902,623.167,436.455,634.491,436.455,643.771L436.455,643.771z"/>
</g>
<g>
	<polyline fill="none" stroke="#005295" stroke-width="9.6281" stroke-miterlimit="10" points="471.171,253.562 209.587,404.598 
		209.587,405.659 209.587,767.376 209.587,768.444 511.08,942.52 	"/>
	<polyline fill="none" stroke="#005295" stroke-width="9.6281" stroke-miterlimit="10" points="741.267,362.552 741.267,216.346 
		471.171,60.401 471.171,253.562 	"/>
	<polyline fill="none" stroke="#005295" stroke-width="9.6281" stroke-miterlimit="10" points="512.579,942.52 814.073,768.444 
		814.073,767.376 814.073,405.659 814.073,404.598 741.267,362.552 	"/>
</g>
</svg>
