<?xml version="1.0" encoding="utf-8"?>
<!-- Generator: Adobe Illustrator 19.2.1, SVG Export Plug-In . SVG Version: 6.00 Build 0)  -->
<svg version="1.1" id="Layer_2" xmlns="http://www.w3.org/2000/svg" xmlns:xlink="http://www.w3.org/1999/xlink" x="0px" y="0px"
	 viewBox="0 0 1024 1024" style="enable-background:new 0 0 1024 1024;" xml:space="preserve">
<style type="text/css">
	.st0{fill:#FFFFFF;}
	.st1{fill:#A62D3E;}
</style>
<g>
	<g>
		<g>
			<polygon class="st0" points="513,337.2 302.1,215.4 511.7,94.4 722.6,216.2 			"/>
			<path class="st1" d="M513,339.8L297.5,215.4L511.7,91.8l215.5,124.4L513,339.8z M306.6,215.4L513,334.5l205-118.4L511.7,97
				L306.6,215.4z"/>
		</g>
		<g>
			<polygon class="st0" points="512.3,371 301.4,249.3 301.4,215.8 512.3,337.5 			"/>
			<path class="st1" d="M514.6,375L299.1,250.6v-38.8l215.5,124.4L514.6,375L514.6,375z M303.7,247.9l206.3,119.1v-28.2L303.7,219.7
				V247.9z"/>
		</g>
		<g>
			<polygon class="st0" points="723.2,249.3 512.3,371 512.3,337.5 723.2,215.8 			"/>
			<path class="st1" d="M510.1,375v-38.8l1.1-0.7l214.3-123.7v38.8l-1.1,0.7L510.1,375z M514.6,338.9v28.2L721,247.9v-28.2
				L514.6,338.9z"/>
		</g>
		<g>
			<polygon class="st0" points="511.4,601.8 320.4,491.6 320.4,261.7 511.4,372 			"/>
			<path class="st1" d="M513.7,605.8L318.1,492.9V257.8l195.6,112.9V605.8z M322.7,490.2l186.5,107.7V373.3L322.7,265.7V490.2z"/>
		</g>
		<g>
			<polygon class="st0" points="703.4,491.6 512.3,601.8 512.3,372 703.4,261.7 			"/>
			<path class="st1" d="M510.1,605.8l0-235.1l195.6-112.9v235.1l-1.1,0.7L510.1,605.8z M514.6,373.3l0,224.6l186.5-107.7V265.7
				L514.6,373.3z"/>
		</g>
		<path class="st1" d="M458.5,418.7c-1.7,0-3.5-0.5-5.3-1.6l-76.9-44.4c-5.8-3.4-10.4-11.3-10.4-18c0-5.3,3-8.9,7.4-8.9
			c1.7,0,3.5,0.5,5.3,1.6l76.9,44.4c5.8,3.4,10.4,11.3,10.4,18C465.9,415.2,462.9,418.7,458.5,418.7z M373.2,350.4
			c-2.6,0-2.8,3-2.8,4.3c0,5.1,3.7,11.5,8.2,14l76.9,44.4c1.1,0.6,2.1,1,3,1c2.6,0,2.8-3,2.8-4.3c0-5.1-3.7-11.5-8.1-14l-76.9-44.4
			C375.2,350.8,374.1,350.4,373.2,350.4z"/>
	</g>
	<g>
		<g>
			<polygon class="st0" points="773.6,503 562.6,381.3 772.2,260.3 983.2,382 			"/>
			<path class="st1" d="M773.6,505.7l-1.1-0.7L558.1,381.3l214.2-123.6l1.1,0.7L987.7,382L773.6,505.7z M567.2,381.3l206.4,119.1
				l205-118.4L772.2,262.9L567.2,381.3z"/>
		</g>
		<g>
			<polygon class="st0" points="772.9,536.9 562,415.1 562,381.6 772.9,503.4 			"/>
			<path class="st1" d="M775.2,540.8L559.7,416.4v-38.7l215.5,124.4V540.8z M564.3,413.8L770.6,533v-28.2L564.3,385.6V413.8z"/>
		</g>
		<g>
			<polygon class="st0" points="983.8,415.1 772.9,536.9 772.9,503.4 983.8,381.6 			"/>
			<path class="st1" d="M770.6,540.8v-38.8l1.1-0.7l214.3-123.7v38.7l-1.1,0.7L770.6,540.8z M775.2,504.7V533l206.3-119.1v-28.2
				L775.2,504.7z"/>
		</g>
		<g>
			<polygon class="st0" points="772,767.7 580.9,657.4 580.9,427.6 772,537.9 			"/>
			<path class="st1" d="M774.2,771.7L578.7,658.7V423.6l195.6,112.9L774.2,771.7L774.2,771.7z M583.2,656.1l186.5,107.6V539.2
				L583.2,431.5V656.1z"/>
		</g>
		<g>
			<polygon class="st0" points="963.9,657.4 772.9,767.7 772.9,537.9 963.9,427.6 			"/>
			<path class="st1" d="M770.6,771.7l0-235.1l195.6-112.9v235.1L770.6,771.7z M775.2,539.2l0,224.6l186.5-107.6V431.5L775.2,539.2z"
				/>
		</g>
		<path class="st1" d="M719.1,584.6c-1.7,0-3.5-0.5-5.3-1.6l-76.9-44.4c-5.8-3.4-10.4-11.3-10.4-18c0-5.3,3-8.9,7.4-8.9
			c1.7,0,3.5,0.5,5.3,1.6l76.9,44.4c5.8,3.4,10.4,11.3,10.4,18C726.5,581,723.5,584.6,719.1,584.6z M633.8,516.3
			c-2.6,0-2.9,3-2.9,4.3c0,5.1,3.7,11.5,8.2,14l76.9,44.4c1.1,0.6,2.1,1,3,1c2.6,0,2.8-3,2.8-4.3c0-5.1-3.7-11.5-8.1-14l-76.9-44.4
			C635.7,516.7,634.7,516.3,633.8,516.3z"/>
	</g>
	<g>
		<g>
			<polygon class="st0" points="252.4,500.8 41.5,379 251.1,258 462,379.8 			"/>
			<path class="st1" d="M252.4,503.4L37,379l214.2-123.6l215.5,124.4L252.4,503.4z M46.1,379l206.4,119.1l205-118.4L251.1,260.6
				L46.1,379z"/>
		</g>
		<g>
			<polygon class="st0" points="251.8,534.6 40.9,412.9 40.9,379.4 251.8,501.1 			"/>
			<path class="st1" d="M254.1,538.6L38.6,414.2v-38.8l215.5,124.4V538.6z M43.1,411.5l206.4,119.2v-28.2L43.1,383.3V411.5z"/>
		</g>
		<g>
			<polygon class="st0" points="462.7,412.9 251.8,534.6 251.8,501.1 462.7,379.4 			"/>
			<path class="st1" d="M249.5,538.6v-38.8l1.1-0.7L465,375.4v38.8l-1.1,0.7L249.5,538.6z M254.1,502.5v28.2l206.3-119.1v-28.2
				L254.1,502.5z"/>
		</g>
		<g>
			<polygon class="st0" points="250.8,765.4 59.8,655.2 59.8,425.3 250.8,535.6 			"/>
			<path class="st1" d="M253.1,769.4L57.5,656.5V421.4l195.6,112.9V769.4z M62.1,653.8l186.5,107.6V536.9L62.1,429.3V653.8z"/>
		</g>
		<g>
			<polygon class="st0" points="442.8,655.2 251.8,765.4 251.8,535.6 442.8,425.3 			"/>
			<path class="st1" d="M249.5,769.4l0-235.1l195.6-112.9v235.1L249.5,769.4z M254,536.9l0,224.6l186.5-107.6V429.3L254,536.9z"/>
		</g>
		<path class="st1" d="M198,582.3c-1.7,0-3.5-0.5-5.3-1.6l-76.9-44.4c-5.8-3.4-10.4-11.3-10.4-18c0-5.3,3-8.9,7.4-8.9
			c1.7,0,3.5,0.5,5.3,1.6l76.9,44.4c5.8,3.4,10.4,11.3,10.4,18C205.4,578.8,202.4,582.3,198,582.3z M112.7,514c-2.6,0-2.8,3-2.8,4.3
			c0,5.1,3.7,11.5,8.2,14l76.9,44.4c1.1,0.6,2.1,1,3,1c2.6,0,2.8-3,2.8-4.3c0-5.1-3.7-11.5-8.1-14L115.7,515
			C114.6,514.4,113.6,514,112.7,514z"/>
	</g>
	<g>
		<g>
			<polygon class="st0" points="513,666.6 302.1,544.9 511.7,423.9 722.6,545.6 			"/>
			<path class="st1" d="M513,669.3L297.5,544.9l214.2-123.6l215.5,124.4L513,669.3z M306.6,544.9L513,664l205-118.4L511.7,426.5
				L306.6,544.9z"/>
		</g>
		<g>
			<polygon class="st0" points="512.3,700.5 301.4,578.7 301.4,545.2 512.3,667 			"/>
			<path class="st1" d="M514.6,704.4L299.1,580v-38.7l215.5,124.4V704.4z M303.7,577.4l206.3,119.1v-28.2L303.7,549.2V577.4z"/>
		</g>
		<g>
			<polygon class="st0" points="723.2,578.7 512.3,700.5 512.3,667 723.2,545.2 			"/>
			<path class="st1" d="M510.1,704.4v-38.7l215.5-124.4V580L510.1,704.4z M514.6,668.3v28.2L721,577.4v-28.2L514.6,668.3z"/>
		</g>
		<g>
			<polygon class="st0" points="511.4,931.3 320.4,821 320.4,591.2 511.4,701.5 			"/>
			<path class="st1" d="M513.7,935.3L318.1,822.3V587.2l195.6,112.9V935.3z M322.7,819.7l186.5,107.6V702.8L322.7,595.1V819.7z"/>
		</g>
		<g>
			<polygon class="st0" points="703.4,821 512.3,931.3 512.3,701.5 703.4,591.2 			"/>
			<path class="st1" d="M510.1,935.3l0-235.1l195.6-112.9v235.1L510.1,935.3z M514.6,702.8l0,224.6l186.5-107.6V595.1L514.6,702.8z"
				/>
		</g>
		<path class="st1" d="M458.5,748.2c-1.7,0-3.5-0.5-5.3-1.6l-76.9-44.4c-5.8-3.4-10.4-11.3-10.4-18c0-5.3,3-8.9,7.4-8.9
			c1.7,0,3.5,0.5,5.3,1.6l76.9,44.4c5.8,3.4,10.4,11.3,10.4,18C465.9,744.6,462.9,748.2,458.5,748.2z M373.2,679.9
			c-2.6,0-2.8,3-2.8,4.3c0,5.1,3.7,11.5,8.2,14l76.9,44.4c1.1,0.6,2.1,1,3,1c2.6,0,2.8-3,2.8-4.3c0-5.1-3.7-11.5-8.1-14l-76.9-44.4
			C375.2,680.3,374.1,679.9,373.2,679.9z"/>
	</g>
</g>
<g>
	<polygon class="st1" points="317.5,265.5 296.5,251.7 296.5,215.8 305.6,215.8 305.6,246.8 322.5,257.9 	"/>
	<polygon class="st1" points="705.4,265.6 700.6,257.9 718.4,246.7 718.4,219.2 511.4,99.6 304,219.3 299.5,211.4 511.4,89.1 
		722.3,210.9 727.5,207.9 727.5,251.8 	"/>
	<path class="st1" d="M514.3,935.3l-2.8-4.8l-2.8,4.8L315.5,823.7v-89.9l-61.8,35.7l-4.6-7.9l75.4-43.6v100.5l186.9,107.9
		l186.9-107.9v-98.2l75.4,43.6l-4.6,7.9L707.6,736v87.7L514.3,935.3z M966,431.5l-4.8-7.7l17.7-11.1V385l-207-119.5l-73.5,42.4
		v-46.2h9.1v30.4l64.3-37.1l210.9,121.8l5.2-3v43.9L966,431.5z M57,429.1l-21-13.8v-35.9h5.4l-2.5-4.3l211.9-122.3l64.7,37.4v-28.3
		h9.1v44.1l-73.8-42.6L45.1,382v28.4L62,421.5L57,429.1z"/>
	<polygon class="st1" points="774.8,771.7 770.3,763.8 959,654.8 959,427.6 968.1,427.6 968.1,660.1 	"/>
	<polygon class="st1" points="248.2,769.4 54.9,657.8 54.9,425.3 64,425.3 64,652.5 252.8,761.5 	"/>
</g>
</svg>
