<?xml version="1.0" encoding="utf-8"?>
<!-- Generator: Adobe Illustrator 16.0.0, SVG Export Plug-In . SVG Version: 6.00 Build 0)  -->
<!DOCTYPE svg PUBLIC "-//W3C//DTD SVG 1.1//EN" "http://www.w3.org/Graphics/SVG/1.1/DTD/svg11.dtd">
<svg version="1.1"
	 id="Layer_1" inkscape:output_extension="org.inkscape.output.svg.inkscape" sodipodi:version="0.32" sodipodi:docname="Flag.svg" inkscape:version="0.47 r22583" xmlns:dc="http://purl.org/dc/elements/1.1/" xmlns:inkscape="http://www.inkscape.org/namespaces/inkscape" xmlns:cc="http://creativecommons.org/ns#" xmlns:rdf="http://www.w3.org/1999/02/22-rdf-syntax-ns#" xmlns:sodipodi="http://sodipodi.sourceforge.net/DTD/sodipodi-0.dtd" xmlns:svg="http://www.w3.org/2000/svg"
	 xmlns="http://www.w3.org/2000/svg" xmlns:xlink="http://www.w3.org/1999/xlink" x="0px" y="0px" width="396px" height="512px"
	 viewBox="0 0 396 512" enable-background="new 0 0 396 512" xml:space="preserve">
<defs>
	
	
		<inkscape:perspective  inkscape:persp3d-origin="198 : 170.66667 : 1" sodipodi:type="inkscape:persp3d" inkscape:vp_z="396 : 256 : 1" id="perspective3816" inkscape:vp_x="0 : 256 : 1" inkscape:vp_y="0 : 1000 : 0">
		</inkscape:perspective>
</defs>
<sodipodi:namedview  inkscape:window-maximized="0" inkscape:pageshadow="2" inkscape:window-height="972" inkscape:window-x="-8" inkscape:current-layer="Layer_1" inkscape:window-y="-8" inkscape:window-width="1264" inkscape:pageopacity="0.0" gridtolerance="10.0" inkscape:cy="252.54841" inkscape:cx="259.91347" objecttolerance="10.0" pagecolor="#ffffff" bordercolor="#666666" guidetolerance="10.0" borderopacity="1.0" id="base" showgrid="false" inkscape:zoom="1.2761068">
	</sodipodi:namedview>
<g>
	<g>
		<path d="M84.93,408.576c-0.002,0.008-0.004,0.017-0.007,0.024c0.002,0,0.004-0.002,0.006-0.002
			C84.929,408.591,84.93,408.584,84.93,408.576z"/>
		<path d="M87.835,419.265c-0.125,0.062-0.242,0.11-0.36,0.16c0.665-0.019,1.346-0.097,1.977-0.056
			c0.006-0.011,0.017-0.029,0.023-0.04c-0.484-0.079-0.968-0.166-1.454-0.251C87.98,419.156,87.918,419.223,87.835,419.265z"/>
		<path d="M74.192,404.482c0.137-0.526,0.223-1.053,0.279-1.58c-0.51,2.141-1.345,4.293-1.552,6.373
			c0.024-0.176,0.049-0.352,0.079-0.527C73.254,407.271,73.817,405.923,74.192,404.482z"/>
		<path d="M81.771,415.17c0.027-0.069,0.048-0.139,0.074-0.208c-0.125,0.127-0.256,0.247-0.394,0.357
			C81.559,415.271,81.667,415.222,81.771,415.17z"/>
		<path d="M392.161,235.775c1.43,0.5,2.87,0.98,4.34,1.4v-0.5c-4.67-6.5-4.399-15.03-4.28-22.69c0.32-12.68-0.199-25.399,0.83-38.06
			c0.08-10.99,0.19-21.99,0.301-32.98c0.14-6.2-2.131-12.08-4.17-17.83c-6.021-14.18-14.681-27.29-25.65-38.13
			c-7.15-6.62-15.94-12.76-26.09-12.64c-8.791,1.3-16.791,5.56-24.431,9.91c-4.51,2.5-9.38,4.239-13.989,6.55
			c-8.431,2.84-17.681,4.5-26.32,1.52c-5.99-2.35-10.08-7.5-13.53-12.689c-2.021-3.13-3.979-6.3-5.79-9.57
			c-2.43-4.77-4.359-9.78-6.75-14.58c-1.27-3.18-2.63-6.319-4.199-9.37c-8.681-17.99-21.311-35.89-40.44-43.64
			c-17.31-6.18-36.2,0.32-50.93,9.92c-2.62,3.42-5.02,7.03-7.79,10.33c-2.63,2.35-6.24,3.63-8.08,6.81
			c-3.26,4.18-3.88,9.84-2.37,14.83c0.78,2.24,1.9,4.33,3.5,6.09c0.31-1.89-0.51-4.3,1.3-5.64c4.82,0.91,9.74,1.32,14.58,0.271
			c6.03,4.97,11.53,11.14,13.51,18.869c0.48,3.2-0.43,6.351-1.03,9.471c-1.84,3.68-3.59,7.5-6.41,10.55
			c-4.59,5.32-11.39,7.77-18.02,9.35c-8.64,2.98-34.841-1.71-43.271-4.551c-4.609-2.31-9.479-4.05-13.989-6.55
			c-7.641-4.35-15.641-8.609-24.43-9.91c-10.15-0.12-18.94,6.021-26.09,12.641c-10.971,10.84-19.631,23.95-25.65,38.13
			c-2.041,5.75-4.311,11.63-4.17,17.83c0.109,10.99,0.22,21.99,0.3,32.979c1.03,12.66,0.51,25.38,0.829,38.061
			c0.121,7.66,0.391,16.189-4.279,22.689v0.5c1.471-0.42,2.91-0.899,4.34-1.399c0.48,1.68,0.74,3.41,0.689,5.16
			c-0.029,10.659,0.201,21.329,0.181,31.989c0.08,5.67-1.41,11.299-4.05,16.311c1.43-0.54,2.859-1.09,4.27-1.648
			c1.211,6.698,0.33,13.549,0.65,20.318c-0.109,10.511,0.68,21.04-0.189,31.53c-0.891,3.21-1.791,6.43-3.021,9.528
			c1.39-0.448,2.771-0.909,4.149-1.34c0.121,15.431,0.24,30.87,0.431,46.301c1.14,11.63,0.579,23.341,0.86,35
			c0.26,4.949-0.86,9.779-2.271,14.479c1.25,0.351,2.399,1.58,3.75,1.2c8.94-3.312,17.71-9.25,21.26-18.46
			c3.69-8.47,2.28-17.87,2.63-26.82c5.711-2,10.271-6.21,13.82-10.979c2.21-3.392,3.04-7.421,4.439-11.16
			c9.721-4.15,17.16-13.472,18.08-24.12c4.53-3.49,9.25-7.03,12.16-12.07c2.75-4.05,3.41-8.989,4.29-13.689
			c0.13-1.489,0.26-2.989,0.4-4.479c4.58-3.56,8.949-7.898,11.05-13.409c1.89-7.621,1.939-15.58,1.64-23.391
			c1.66-2.189,3.74-4,5.9-5.67c1.39-1.73,2.74-3.48,4.05-5.25l0.6-0.381c0.389-0.238,0.779-0.465,1.17-0.698
			c0.021,3.851-0.06,7.729-0.659,11.549c-1.333,15.474-4.062,30.804-7.119,46.021c-2.12,9.04-3.8,18.18-6.36,27.109
			c1.13-0.101,2.26-0.279,3.38-0.46c0.72-0.069,2.15-0.221,2.86-0.29c-1.44,7.37-4.13,14.41-6.56,21.5
			c-1.8,4.2-3.31,8.54-5.78,12.42c-0.61,0.08-1.84,0.229-2.45,0.311l-1.25,0.899c0.002,0.001,0.005,0.002,0.007,0.003
			c0.027-0.006,0.056-0.004,0.083-0.011c0.148-0.007,0.296-0.01,0.444-0.021c0.287-0.021,0.435-0.234,0.463-0.458
			c0.134,0.035,0.268,0.072,0.404,0.097c0.252,0.045,0.442-0.085,0.544-0.261c1.939,0.361,3.686,1.071,5.519,1.688
			c0.478-2.485,1.077-4.949,1.715-7.396c0.55-2.311,2.74-3.681,3.65-5.79c0.79-2.55,0.66-5.391,2.16-7.69
			c2.72-4.02,1.65-9.479,4.92-13.229c1.46-1.91,3.13-3.641,4.84-5.311c0.4,4.801,0.78,9.59,1.31,14.38
			c2.46-2.22,4.66-4.739,7.44-6.59c-0.16,4.8-2.97,8.84-3.91,13.45c-0.45,3.46-3.64,5.3-5.68,7.76c-1.33,2.391-0.94,5.38-2.45,7.69
			c-1.13,1.75-1.84,3.689-2.06,5.77c-0.5-0.5-1.01-0.979-1.54-1.449c-1.37-1.351-2.97-2.631-4.94-2.9
			c-1.485,0.33-2.835,1.065-4.228,1.69c0.195,0.058,0.389,0.116,0.588,0.169c1.169,0.31,2.014,0.841,2.616,1.532
			c0.267-0.262,0.569-0.5,0.914-0.712c0.99,0.33,1.99,0.63,3,0.92c4.62,4.971,6.32,11.82,10.4,17.2c-0.59-0.02-1.79-0.05-2.38-0.06
			c-2.07-2.54-3.97-5.21-5.58-8.07c-0.37-0.09-1.13-0.27-1.51-0.36c-2.42,6.271-1.07,13.17-3.1,19.48
			c-2.99,0.22-6.03-0.17-7.89-2.82c0.002-0.045,0.004-0.089,0.006-0.134c-1.059-0.001-2.092-0.129-3.122-0.297
			c-0.006,0.011-0.017,0.029-0.023,0.04c-0.631-0.041-1.312,0.037-1.977,0.056c-1.223,0.516-2.078,0.328-2.807-0.979
			c-0.514-0.221-0.94-0.532-1.13-1.039c-0.491-1.309-0.243-2.86,0.126-4.406c0.054-1.384,0.664-2.671,0.853-4.051
			c0.031-0.229,0.21-0.334,0.406-0.35c0.002-0.008,0.004-0.017,0.007-0.024c0.006-0.662,0.012-1.315,0.089-1.916
			c0.3-2.335,0.967-6.068-2.166-6.74c0.195,4.406,1.833,9.448-0.073,13.688c-0.24,0.533-0.562,0.978-0.935,1.354
			c-0.026,0.069-0.047,0.139-0.074,0.208c-0.104,0.052-0.212,0.101-0.319,0.149c-2.11,1.678-5.536,1.299-7.474-0.967
			c-1.23-1.437-1.314-3.259-1.059-5.077c0.207-2.08,1.042-4.232,1.552-6.373c0.147-1.374,0.073-2.753,0.028-4.153
			c-0.061-1.888-1.04-5.258-0.211-7.406c-0.041-0.096-0.054-0.203-0.021-0.311c0.22-0.729,0.507-1.248,0.967-1.87
			c0.238-0.322,0.668-0.244,0.861-0.014c0.477-0.081,1.021,0.019,1.537,0.117c0.111,0.021,0.192,0.093,0.254,0.178
			c1.615,0.041,3.225,0.153,4.833,0.293c0.019,0.227,0.165,0.452,0.44,0.502c0.018,0.126,0.085,0.244,0.244,0.315
			c0.248,0.113,0.501,0.198,0.757,0.266c-0.911-1.287-1.853-2.562-3.199-3.39c-1.95-0.66-4.07-0.351-6.08-0.431
			c-1.62,1.62-3.15,3.391-3.65,5.7c-8.7,5.74-17.82,10.84-26.58,16.5c-3.35,1.851-6.61,3.859-9.82,5.971
			c0.21,6.92-0.08,13.84,0.25,20.76c0.94,9.101,0.26,18.271,0.51,27.41c45.89,26.949,98.71,41.659,151.86,43.311
			c3.87-0.4,6.35,3.06,8.96,5.3h1.1c2.129-1.689,4.209-3.439,6.32-5.149c9.86-0.279,19.74-0.779,29.55-1.899
			c34.71-3.57,68.96-12.7,100.53-27.63c1.09-0.471,2.18-0.94,3.25-1.431c6.13-2.96,12.2-6.021,18.2-9.2
			c1.729-1.021,4.119-2.26,3.75-4.649c0.199-15.25,0.26-30.49,0.38-45.74c-11.87-7.649-23.83-15.17-35.88-22.529
			c-0.311-0.681-0.92-2.029-1.23-2.71c-0.84-2.489-3.55-3.399-5.96-3.08c-3.5-0.271-5.22,3.271-6.94,5.671
			c-0.799-0.79-1.59-1.591-2.369-2.381c-1.15-0.409-2.29-0.811-3.43-1.21c-4.9-10.71-8.9-21.851-11.461-33.359
			c2.101,0.35,4.19,0.76,6.291,1.12c-5.671-23.771-10.531-47.812-12.631-72.19c-0.6-3.818-0.68-7.699-0.66-11.549
			c0.392,0.234,0.781,0.46,1.17,0.699l0.601,0.38c1.31,1.771,2.659,3.521,4.05,5.25c2.16,1.67,4.24,3.479,5.9,5.67
			c-0.301,7.812-0.25,15.771,1.64,23.391c2.101,5.511,6.47,9.851,11.05,13.409c0.141,1.49,0.27,2.99,0.4,4.48
			c0.88,4.699,1.54,9.64,4.29,13.688c2.909,5.04,7.63,8.58,12.159,12.07c0.92,10.649,8.36,19.97,18.08,24.12
			c1.4,3.739,2.23,7.77,4.44,11.16c3.55,4.77,8.11,8.979,13.82,10.979c0.35,8.95-1.06,18.351,2.63,26.82
			c3.55,9.21,12.32,15.149,21.26,18.46c1.35,0.38,2.5-0.851,3.75-1.2c-1.41-4.7-2.529-9.529-2.27-14.479
			c0.279-11.659-0.28-23.369,0.859-35c0.19-15.431,0.311-30.869,0.43-46.3c1.381,0.431,2.761,0.891,4.15,1.34
			c-1.23-3.101-2.13-6.319-3.02-9.529c-0.87-10.49-0.08-21.021-0.19-31.53c0.32-6.771-0.56-13.62,0.65-20.319
			c1.409,0.561,2.84,1.109,4.27,1.649c-2.64-5.011-4.13-10.64-4.05-16.31c-0.02-10.66,0.21-21.331,0.18-31.991
			C391.42,239.186,391.682,237.455,392.161,235.775z M136.37,39.119c-0.34-2.31-1.33-4.73-0.27-6.99c1.58-4.94,6.62-7.22,10.2-10.49
			c0.59-0.83,1.15-1.69,1.74-2.52c0.555-0.74,1.173-1.412,1.819-2.055c-0.091,8.096,2.114,16.583,7.481,21.713
			c-3.389-1.302-6.84-2.514-10.5-2.278C143.39,37.529,139.99,38.819,136.37,39.119z M156.81,42.18c-1.52-0.89-3.23-0.49-4.86-0.34
			c-3.58,0.92-7.34,1.21-11.01,0.7c2.65-1.47,5.1-3.48,8.05-4.27c3.7,0.34,6.49,3.2,10,4.18C158.26,42.36,157.53,42.27,156.81,42.18
			z M8.528,274.989c0.961-3.279,2.051-6.601,2.041-10.05c0.17-11.331-0.45-22.67-0.061-33.99c4.84-1.67,7.721-6.7,12.711-7.8
			c-0.091,5.1,0.039,10.21-0.011,15.32c0.22,4,0.21,8,0.181,12c0.449,6.461-2.091,12.75-5.99,17.801
			C14.858,271.009,11.749,273.12,8.528,274.989z M11.458,304.239c-0.021-2.521,0-5.039-0.04-7.55c-0.029-1.94-0.09-3.871-0.15-5.801
			c-0.049-2.59-0.029-5.17-0.02-7.76c1.84-1.15,3.67-2.311,5.46-3.51c1.899-1.311,3.67-2.78,5.39-4.311
			c0.551,0.029,1.66,0.069,2.211,0.09c0.02,3.609-0.011,7.221-0.051,10.819c-0.01,2.21,0,4.421,0.01,6.642
			c0.01,2.799,0.01,5.6-0.01,8.398c-0.01,3.569,0.051,7.141,0.061,10.72c0,2.421-0.1,4.851-0.471,7.261
			c-2.449,6.86-7.82,12.15-14.109,15.61c0.75-2.521,1.41-5.06,1.939-7.62C11.479,319.559,11.538,311.899,11.458,304.239z
			 M11.659,432.61c0.89-3.5,2.109-6.972,1.869-10.642c-0.199-13.358-0.029-26.75-0.77-40.09l0.53-0.79
			c-0.149-0.511-0.44-1.55-0.59-2.06c-0.31-10.102-0.171-20.211-0.36-30.312c0-1.95,0.03-3.891,0.051-5.83
			c3.969-1.93,7.409-4.688,10.68-7.608c0.34-0.48,1.02-1.451,1.359-1.932c0.26,2.83,0.211,5.7,0.711,8.512
			c0.219,4.568,0.319,9.148,0.049,13.719c0.73,18.781,0.19,37.621,0.621,56.42C26.589,421.229,18.989,428.36,11.659,432.61z
			 M29.458,224.959c-0.01-1.73-0.14-3.54,0.58-5.15c4.42-2.22,8.08-5.54,11.819-8.69c0.15,0.06,0.471,0.17,0.631,0.23
			c-0.221,6.66,0.289,13.32,0,19.98c0.199,6.24,1.02,12.83-1.53,18.74c-2.27,5.67-6.659,10.531-12.299,12.99
			c0.38-1.92,0.77-3.84,0.99-5.779c0.06-0.42,0.17-1.26,0.229-1.68C29.568,245.389,29.828,235.169,29.458,224.959z M30.239,322.159
			c0.14-2.149,0.33-4.311,0.42-6.459c0.22,0.77,0.449,1.528,0.68,2.299c-0.01-6.109,0.11-12.229,0.02-18.34l-0.02-0.521
			c-0.109-2.899-0.13-5.811-0.09-8.709c-0.21-1.311-0.42-2.631-0.62-3.94l-0.11-0.841c-0.1-2.18-0.18-4.358-0.18-6.539
			c0.051-2.28,0.131-4.561,0.2-6.829c4.58-2.472,8.12-6.44,12.771-8.761c0.06,1.92,0.09,3.851,0.09,5.771
			c-0.021,0.91-0.051,2.729-0.061,3.63c-0.061,3.051-0.01,6.11,0.04,9.159c0.03,2.131,0.06,4.271,0.091,6.41
			c0.029,1.721,0.069,3.44,0.049,5.17c0.221,5.229,0.211,10.58-1.59,15.58c-0.58,1.189-1.18,2.381-1.729,3.601
			C37.659,316.669,34.399,320.099,30.239,322.159z M44.179,372.19l-0.279,0.908c-1.61,5.95-5.82,10.649-10.561,14.37
			c-0.49,0.071-1.481,0.21-1.97,0.28c1.83-5.639,0.649-11.629,0.979-17.43c-0.33-2.761-0.68-5.529-0.66-8.311
			c0-10.318-0.449-20.648-0.08-30.979c4.381-1.99,8.4-4.762,11.641-8.34c0.33-0.23,0.98-0.701,1.3-0.941
			c-0.05,10.721,0.08,21.441,0.16,32.16C44.619,360.01,46.039,366.22,44.179,372.19z M49.569,208.089l0.189-0.3l1.04-0.76
			c0.88-0.58,1.78-1.13,2.66-1.67c1.08-0.64,2.16-1.27,3.3-1.78c0.631-0.23,1.891-0.68,2.52-0.91c0.48-0.12,1.461-0.36,1.951-0.48
			c0.049,4.16,0.18,8.32,0.18,12.49c-0.01,1.24-0.03,2.49-0.07,3.73c0.09,6.36,0.66,12.82-1.01,19.04c-2.5,5.67-6.35,10.96-12,13.81
			c0.54-3.09,1.141-6.19,1.13-9.34C49.459,230.639,49.199,219.359,49.569,208.089z M50.298,281.939v-1.11
			c0.011-1.58,0.03-3.149,0.011-4.72c0-1.51-0.011-3.01-0.021-4.51c-0.279-3.521-0.939-7.08-0.379-10.61
			c3.439-3.431,7.74-6.359,12.609-7.29c-0.17,3.39-0.24,6.779-0.25,10.17c-0.01,3.119,0.061,6.229,0.131,9.35
			c0.05,6.32,0.85,12.99-2.18,18.83c-0.07,0.16-0.211,0.48-0.281,0.631c-2.02,3.898-4.629,7.689-8.52,9.93
			c-0.25,0.149-0.75,0.459-1.01,0.619C50.338,296.129,50.508,289.04,50.298,281.939z M62.85,349.509
			c-1.539,6.649-5.55,12.54-11.27,16.29c-0.21-8.13-0.26-16.26-0.26-24.391c-1.18-9.509-0.411-19.14-0.68-28.708l0.469,0.148
			c3.82-2.29,7.42-4.979,10.391-8.31c0.26-0.28,0.79-0.83,1.05-1.109c0.171,10.189-0.159,20.398,0.66,30.568
			C63.3,339.169,63.57,344.369,62.85,349.509z M66.39,240.719c0.5-1.7,0.989-3.41,1.449-5.11c0.18-12.28-0.64-24.6,0.09-36.85
			c3.47-2.37,6.51-5.26,9.6-8.08c0.16,6.75,0.04,13.52,0.48,20.26c0.27,4.12,0.28,8.28-0.4,12.36c-0.189,1.51-0.47,3.01-0.84,4.49
			c-1.49,4.98-4.779,9.12-8.46,12.68C67.829,240.539,66.869,240.659,66.39,240.719z M68.67,273.148
			c-0.01-3.42-0.04-6.84-0.101-10.25c-0.05-2.699-0.069-5.391-0.079-8.09c-0.001-1.549-0.001-3.099-0.011-4.639
			c3.24-2.31,6.37-4.76,9.62-7.05c0.13,2.79,0.22,5.58,0.23,8.37c0.01,2.14,0.02,4.28,0.02,6.41c0.01,2.621,0.061,5.23,0.061,7.85
			c-0.03,2.102-0.091,4.211-0.261,6.32c-0.06,0.189-0.189,0.59-0.25,0.791c-1.56,5.568-4.52,10.84-9.279,14.279
			c0.069-0.98,0.14-1.939,0.21-2.91C68.779,280.529,68.66,276.838,68.67,273.148z M78.449,327.069
			c-1.061,4.76-4.011,8.779-7.16,12.41c-0.41,0.09-1.25,0.29-1.67,0.391c-0.07-14.352-0.29-28.691-0.17-43.041
			c3.399-2.289,6.54-4.938,9.18-8.09c0.26,4.471,0.25,8.95,0.67,13.42C78.849,310.45,80.299,318.899,78.449,327.069z M84.49,186.569
			c1.5-1.27,3-2.53,4.39-3.91c2.01-2.2,3.81-4.57,5.67-6.88c-0.03,5.92,0.3,11.86-0.07,17.78c0.05,7.66,0.44,15.35-0.02,23.01
			c-1.471,6.02-6.321,10.45-10.961,14.21c0.41-2.95,0.899-5.9,0.93-8.88C84.429,210.129,84.159,198.349,84.49,186.569z
			 M84.848,260.488c-0.1-3.771-0.17-7.529-0.22-11.299c-0.06-3.36-0.089-6.72-0.129-10.08c3.87-3.22,7.18-7.01,10.56-10.72
			c0.24,5.93,0.12,11.87-0.13,17.8c0.04,1.32,0.08,2.64,0.12,3.97c-0.49,1.51-1.15,2.98-1.92,4.39
			c-2.021,3.52-4.84,6.561-8.271,8.75C84.858,262.6,84.848,261.189,84.848,260.488z M95.33,300.21c-1.221,3.47-3.59,6.369-6.09,9.01
			c-0.61,0.511-1.23,1.021-1.86,1.529l-0.45,0.351c-0.33,0.25-1.01,0.762-1.35,1.012c-0.001-13.332-0.541-26.713,0.139-40.012
			c3.79-3.211,7.17-6.881,9.84-11.07c-0.02,2.82-0.04,5.641,0.13,8.46C95.389,279.719,96.5,290.04,95.33,300.21z M109.85,393.94
			c1.12-6.021,5.01-10.971,7.71-16.33c1.5-2.67,2.48-5.65,4.38-8.07c1.24,0.979,1.6,2.61,2.34,3.95
			c0.85-4.07,1.75-8.181,3.69-11.891c3.7-8.149,7.98-16.08,13.26-23.319c3.27-4.49,6.23-9.3,10.41-13.021
			c-1.17,5.88-3.49,11.45-4.87,17.28c-3.64,10.96-6.6,22.13-9.95,33.189c-2.23,9.08-5.58,17.971-11.13,25.57
			c5.94,1.93,12.58,2.42,18.6,0.601c-0.02,2.79-0.48,5.97,1.66,8.17c3.33,3.47,8.91,4.58,13.33,2.66
			c1.43-1.101,2.72-2.36,4.05-3.561c1.97,3.5,4.41,6.87,8.12,8.68c5.5,1.79,11.83-0.83,14.9-5.619c1.09,1.64,2.1,3.35,3.29,4.93
			c2.16,2.25,4.75,4,7.27,5.82c4.07-2.851,8.23-5.86,9.99-10.74c3.02,3.89,7.439,6.46,12.43,6.54c4.939-1.16,9.12-4.601,10.6-9.55
			c1.74,1.56,3.311,3.47,5.58,4.279c3.99,0.98,8.42,0.21,11.61-2.45c1.96-2.38,3.29-5.569,1.771-8.529
			c6.33,1.56,13.39,1.92,19.35-1.11c-9.27-10.93-10.36-25.86-15.03-38.9c-2.771-12.359-7.64-24.199-9.94-36.67
			c8.371,9.37,15.16,20.141,20.58,31.46c2.73,5.311,5.221,10.9,5.67,16.931c0.851-1.431,1.67-2.88,2.521-4.3
			c3.39,7.229,7.88,13.92,10.86,21.34c1.869,3.8,0.529,8.01-0.59,11.83c-1.471,4.6-4.371,8.54-7.521,12.14
			c-3.81,0.98-7.5,2.39-11.261,3.54c-19.299,4.95-39.119,8.39-59.079,8.44c-2.56,1.649-4.96,3.529-7.45,5.27
			c-2.52-1.74-4.92-3.64-7.47-5.34c-23.9-0.26-47.48-5.37-70.29-12.28C113.59,409.46,110.14,401.75,109.85,393.94z M152.77,331.84
			c0.71-2.3,1.4-4.6,1.96-6.939c0.7-5.62,6.1-9.46,11.17-10.881c-0.53,2.711-1.22,5.391-1.68,8.11l-0.5,0.79
			c-0.15,1.08-0.31,2.16-0.46,3.24c-1.62,5.62-2.59,11.399-4.04,17.06l-0.41-0.97c0.05,3.85-1.23,7.52-2.05,11.24
			c-2.76,12.49-5.48,24.99-8.31,37.47c-0.73,3.69-3.84,6.68-7.53,7.32c-2.52,0.25-5.04,0.02-7.56-0.08
			c3.61-5.54,4.84-12.101,6.45-18.4c2.04-7.31,3.97-14.649,6.05-21.95c1.47-5.229,2.72-10.51,4.29-15.699
			c0.57-2.37,1.26-4.71,2.01-7.021c0.18-0.72,0.54-2.16,0.72-2.88L152.77,331.84z M174.23,327.2c-1.3,8.03-2.57,16.069-3.94,24.09
			c-2.75,16.72-5.16,33.51-8.03,50.22c-0.78,1.87-1.65,3.91-3.47,5.01c-2.74,0.73-5.66,0.29-8.18-0.939
			c-0.23-0.67-0.68-2.01-0.9-2.68c1.27-4.96,2.84-9.851,3.79-14.881c3-15.029,6.29-29.989,9.38-44.989l0.23-0.94
			c0.11-0.51,0.34-1.51,0.45-2.01c0.66-3.53,1.35-7.04,2.1-10.54c1.08-5.42,2.17-10.84,3.61-16.18c2.48,0.13,4.97,0.37,7.4,0.89
			C175.71,318.54,174.99,322.87,174.23,327.2z M178.7,322.01c0.29-2.319,0.67-4.63,1-6.95c3.51,0.71,6.81,2.131,9.98,3.771
			c0.02,1.81,0.05,3.62,0.03,5.439c-0.15,9.33-1.1,18.62-1.39,27.95c-0.51,6.36-0.8,12.721-1.05,19.09
			c-0.82,8.86-0.94,17.761-1.92,26.62c-0.3,4.721-2.21,9.83-6.79,11.931c-2.97,1.569-6.31,0.26-8.77-1.61l-0.17-0.32
			c-2.47-3.46-2.7-7.819-1.99-11.88c1.44-8.569,2.61-17.18,3.94-25.76c1.3-9,2.67-18,4.01-26.99
			C176.58,336.2,177.68,329.11,178.7,322.01z M191.67,355.94c0.88-11.261,0.77-22.57,0.95-33.86c0.69,0.24,1.38,0.47,2.08,0.7
			c0.9,1.68,1.68,3.41,2.4,5.18c1.11-2.35,2.45-4.62,4.47-6.31c0.75,14.979,1.06,29.989,0.97,44.989
			c0.05,11.15,0.89,22.29,0.58,33.44c-0.19,5.33-1.32,11.92-6.93,14.15c-2.38-2.53-4.58-5.44-4.98-9
			C190.83,388.8,191.45,372.37,191.67,355.94z M229.12,332.15c2.12,8.39,3.43,16.96,5.229,25.42c0.57,3.109,1.11,6.22,1.84,9.29
			c1.871,9.42,3.65,18.87,5.561,28.279c1.12,3.19,2.43,6.54,1.811,9.99c-0.641,1.34-2.25,1.58-3.391,2.34
			c-4.04,0.82-8.061-1.63-8.52-5.85c-2.521-14.74-4.641-29.57-6.59-44.39c-1.371-6.73-2.551-13.57-2.871-20.431l-0.619-0.05
			c-0.801-7.5-2.311-14.89-3.37-22.35c2.38-0.42,4.771-0.71,7.18-0.851C226.939,319.65,228.391,325.96,229.12,332.15z M228.5,314.25
			c4.16,0.63,7.311,3.87,10.03,6.81c1.38,4.62,2.899,9.48,3.56,14.16c0.7,1.931,1.28,3.9,1.811,5.891
			c0.93,4.399,2.64,8.75,3.18,13.159c1.15,3.221,1.96,6.54,2.8,9.86c1.56,5.521,2.79,11.13,4.36,16.65
			c1.449,6.05,2.72,12.25,5.84,17.729c-3.859,0.05-8.609,1.11-11.641-1.97c-3.66-3.07-3.279-8.29-4.529-12.5
			c-0.33-1.65-0.631-3.29-1.03-4.92c-1.13-5.29-2.319-10.59-3.3-15.91c-1.391-5.66-2.59-11.36-3.8-17.06
			C233.3,335.53,231.33,324.78,228.5,314.25z M218.24,339.75c0.26,1.76,0.439,3.53,0.66,5.3c1.47,7.271,1.779,14.74,3.359,21.99
			l-0.15,0.59c0.281,2.101,0.531,4.22,1,6.3c0.281,4.75,1.361,9.4,1.75,14.141c0.641,4.949,2.15,9.92,1.48,14.949
			c-0.63,3.961-3.97,8.25-8.41,7.591c-5.699-0.221-9.06-6.351-9.289-11.5c-0.121-4.65-1.17-9.25-0.94-13.91
			c-0.44-10.351-1.591-20.681-1.229-31.05c-1.4-7.98-0.771-16.131-1.141-24.2c0.07-3.83-0.54-7.74,0.37-11.51
			c3.13-1.11,6.06-3.12,9.489-3.07c0.351,6.16,1.66,12.21,2.291,18.34C217.52,335.75,218.33,337.72,218.24,339.75z M288.66,398.11
			c0.779-0.9,1.6-1.771,2.439-2.61c1.03-0.37,2.061-0.74,3.09-1.1c0.531,0.43,1.58,1.3,2.11,1.739c0.3,3.33-0.1,6.811,1,10.021
			c1.56,4.46,3.9,9.01,3.21,13.87c-0.229,1.71-2.07,2.43-3.119,3.59c-1.551-0.41-3.9,0.35-4.701-1.5
			c-2.18-6.11,0.551-13.23-3.41-18.82c-1.389,2.141-2.699,4.34-4.149,6.44c-1.09,1.81-2.75,3.01-4.899,3.08
			C283.49,408.18,285.88,403.03,288.66,398.11z M321.439,401.78c1.08-0.17,2.16-0.33,3.24-0.49
			c7.989,5.854,16.33,11.209,24.38,16.973c1.15,0.823,2.294,1.654,3.431,2.497c-0.15,13.46-0.51,26.891-1.02,40.34
			c-3.591,1.851-7.131,3.78-10.771,5.54c-1.89,0.91-3.79,1.78-5.7,2.66c-10.43,4.98-21.141,9.37-32.12,12.98
			c-17.92,6.029-36.37,10.62-55.101,13.25c-14.5,2.26-29.149,3.229-43.799,3.84c-2.09-0.18-3.41,1.68-4.94,2.75
			c-2.98,3.5-5.52-1.561-8.33-2.61c-5.5-1.2-11.19-0.68-16.78-1.109c-8.76-0.71-17.48-1.79-26.2-2.881
			c-16.31-2.43-32.4-6.25-48.19-10.97c-14.74-4.59-29.11-10.38-42.95-17.21c-5.06-2.57-10.29-4.859-14.95-8.13
			c0.17-11.75-0.14-23.5-0.17-35.25c0.14-1.62-0.25-3.41,0.55-4.88c2.08-1.98,4.64-3.34,6.97-5c6.62-4.43,13.28-8.82,19.88-13.29
			c1.31-1.05,2.86-0.37,3.51,1.07c-1.03,4.12-3.66,8.739-1.11,12.85c2.35,3.26,5.4,6.2,9.11,7.85c0.07-0.979,0.2-2.939,0.27-3.92
			c1.98,1.801,3.81,3.75,5.66,5.69c1.04,0.81,2.14,1.51,3.22,2.26c-0.06-1.53-0.12-3.06-0.18-4.59c4.17,0.33,5.73,5.03,8.95,7.15
			c0.15-0.771,0.47-2.301,0.62-3.061c4.38-1.31,5.31-5.85,5.82-9.8c15.31,6.31,31.38,10.67,47.62,13.84
			c11.42,2.32,23.04,3.41,34.66,4.11c4.21-0.07,6.49,4.34,10.19,5.39c3.511-1.32,5.62-5.67,9.81-5.28
			c15.681-0.67,31.25-2.909,46.601-6.17c11.25-2.949,22.54-5.859,33.39-10.109c0.57-0.21,1.71-0.641,2.28-0.86
			c-0.29,4.021,1.25,7.98,5.13,9.65c0.08,0.67,0.23,2.01,0.3,2.68c1.54-0.76,3.22-1.44,4.271-2.87c1.21-2.189,2.96-4.36,5.76-3.31
			c-0.43,1.27-0.859,2.55-1.27,3.84c3.959-1.3,6.119-5.09,9.299-7.51c0.271,1.26,0.541,2.52,0.811,3.79
			c0.2-0.021,0.61-0.061,0.82-0.08c3.35-3.5,8.84-5.96,9.14-11.42C323.359,408.5,321.96,405.21,321.439,401.78z M305.21,393.22
			c0.91,1.11,2.34,2.061,2.2,3.681c0.33,5.14,0.39,10.359,1.63,15.38c0.17,1.25,1.5,1.239,2.399,1.55
			c-0.539-4.71-0.199-9.46,0.761-14.09c-0.7,0.609-2.091,1.819-2.79,2.43c0.32-5.27,3.65-12.26,9.88-11.689
			c0.31,3.35,0.34,6.71,0.239,10.069c-0.039,0.391-0.119,1.16-0.17,1.55c0.16,4.15,3.211,8.46,0.98,12.471
			c-1.85,3.37-7.689,3.97-8.609-0.57c-0.971,3.16-2.4,6.8-6.33,6.72c-1.721-2.05-2.86-4.5-3.101-7.17
			c0.11-3.6,0.25-7.189,0.16-10.78c-1.649,0.521-2.46,1.91-2.92,3.511l-0.58,0.689c0.03-2.56,0.01-5.12,0.181-7.67
			C300.08,396.35,302.59,394.57,305.21,393.22z M293.971,379.07c0.359,2.069,2.139,3.42,3.379,4.989
			c0.65,3.32,1.711,6.551,2.391,9.86c-1.891-0.61-3.54-1.86-5.48-2.28c-1.9,0.08-3.47,1.33-4.92,2.41c-0.34,0.25-1.02,0.75-1.35,1
			c-0.381-0.79-1.141-2.38-1.52-3.17c-1.561-2.24-2.181-4.86-2.621-7.5c-0.289-2.36-2.449-3.689-3.899-5.32
			c-2.851-2.56-2.431-6.77-4.04-9.989c-1.34-2.59-1.84-5.45-1.76-8.34c2.229,2.489,4.51,4.93,6.979,7.189
			c0.54-4.85,1.32-9.68,1.3-14.56c2.51,2.46,5.07,5.02,6.57,8.25c1.18,3.38,1.01,7.21,3.01,10.31
			C293.391,374.06,293.48,376.64,293.971,379.07z M309.42,314.14c-0.34-0.25-1.02-0.76-1.35-1.01l-0.45-0.35
			c-0.63-0.511-1.25-1.021-1.86-1.53c-2.5-2.64-4.869-5.54-6.09-9.01c-1.17-10.17-0.061-20.49-0.359-30.721
			c0.17-2.819,0.149-5.64,0.129-8.459c2.67,4.189,6.051,7.859,9.84,11.069C309.96,287.43,309.42,300.811,309.42,314.14z
			 M310.37,251.22c-0.05,3.77-0.12,7.53-0.22,11.299c0,0.701-0.01,2.11-0.01,2.811c-3.431-2.189-6.25-5.23-8.271-8.75
			c-0.771-1.41-1.431-2.88-1.92-4.39c0.04-1.33,0.079-2.65,0.12-3.97c-0.25-5.93-0.37-11.87-0.131-17.8
			c3.381,3.71,6.69,7.5,10.561,10.72C310.46,244.5,310.43,247.86,310.37,251.22z M300.54,218.6c-0.46-7.66-0.069-15.35-0.021-23.01
			c-0.369-5.92-0.039-11.86-0.069-17.78c1.86,2.31,3.659,4.68,5.67,6.88c1.39,1.38,2.89,2.64,4.39,3.91
			c0.33,11.78,0.061,23.56,0.061,35.33c0.029,2.98,0.52,5.93,0.93,8.88C306.859,229.05,302.01,224.62,300.54,218.6z M325.38,341.9
			c-0.42-0.101-1.26-0.301-1.67-0.391c-3.149-3.63-6.101-7.649-7.16-12.41c-1.85-8.17-0.399-16.619-0.85-24.91
			c0.42-4.469,0.409-8.949,0.67-13.42c2.64,3.15,5.78,5.801,9.18,8.09C325.67,313.21,325.45,327.55,325.38,341.9z M326.51,256.84
			c-0.01,2.7-0.029,5.391-0.08,8.09c-0.06,3.41-0.09,6.83-0.1,10.25c0.01,3.69-0.109,7.381-0.16,11.08
			c0.07,0.971,0.141,1.93,0.21,2.91c-4.76-3.439-7.72-8.71-9.28-14.279c-0.06-0.201-0.189-0.601-0.25-0.791
			c-0.17-2.109-0.229-4.22-0.26-6.319c0-2.62,0.051-5.23,0.061-7.851c0-2.13,0.01-4.27,0.02-6.41c0.01-2.79,0.1-5.58,0.23-8.37
			c3.25,2.29,6.38,4.74,9.619,7.05C326.51,253.74,326.51,255.29,326.51,256.84z M326.689,242.5c-3.68-3.56-6.969-7.7-8.459-12.68
			c-0.371-1.48-0.65-2.98-0.84-4.49c-0.681-4.08-0.67-8.24-0.4-12.36c0.439-6.74,0.32-13.51,0.48-20.26
			c3.09,2.82,6.129,5.71,9.6,8.08c0.729,12.25-0.09,24.57,0.09,36.85c0.46,1.7,0.949,3.41,1.449,5.11
			C328.13,242.69,327.17,242.57,326.689,242.5z M343.68,343.44c0,8.13-0.05,16.26-0.26,24.39c-5.72-3.75-9.73-9.64-11.27-16.29
			c-0.721-5.14-0.45-10.34-0.36-15.51c0.819-10.17,0.489-20.38,0.66-30.57c0.26,0.28,0.79,0.83,1.05,1.11
			c2.971,3.33,6.57,6.02,10.391,8.31l0.469-0.149C344.09,324.3,344.859,333.93,343.68,343.44z M344.71,273.63
			c-0.01,1.5-0.021,3-0.021,4.511c-0.02,1.569,0,3.139,0.011,4.719v1.11c-0.21,7.101-0.04,14.19-0.11,21.29
			c-0.26-0.16-0.76-0.47-1.01-0.619c-3.891-2.24-6.5-6.031-8.52-9.931c-0.07-0.149-0.211-0.47-0.281-0.63
			c-3.029-5.84-2.229-12.51-2.18-18.83c0.07-3.12,0.141-6.23,0.131-9.35c-0.011-3.391-0.08-6.78-0.25-10.17
			c4.869,0.93,9.17,3.86,12.609,7.29C345.65,266.55,344.99,270.109,344.71,273.63z M334.67,239.48c-1.67-6.22-1.1-12.68-1.01-19.04
			c-0.04-1.24-0.061-2.49-0.07-3.73c0-4.17,0.131-8.33,0.18-12.49c0.49,0.12,1.471,0.36,1.951,0.48c0.629,0.23,1.889,0.68,2.52,0.91
			c1.14,0.51,2.22,1.14,3.3,1.78c0.88,0.54,1.78,1.09,2.66,1.67l1.04,0.76l0.189,0.3c0.37,11.27,0.11,22.55,0.11,33.83
			c-0.011,3.15,0.59,6.25,1.13,9.34C341.02,250.44,337.17,245.15,334.67,239.48z M361.66,389.5c-4.74-3.72-8.95-8.42-10.561-14.37
			l-0.279-0.91c-1.86-5.97-0.44-12.18-0.53-18.279c0.08-10.721,0.21-21.44,0.16-32.16c0.319,0.239,0.97,0.71,1.3,0.939
			c3.24,3.58,7.26,6.351,11.641,8.34c0.369,10.33-0.08,20.66-0.08,30.98c0.02,2.78-0.33,5.55-0.66,8.31
			c0.33,5.801-0.851,11.79,0.979,17.431C363.141,389.71,362.15,389.57,361.66,389.5z M354.8,314.87
			c-0.55-1.22-1.149-2.41-1.729-3.601c-1.801-5-1.811-10.35-1.59-15.58c-0.021-1.729,0.02-3.449,0.049-5.17
			c0.031-2.14,0.061-4.279,0.091-6.41c0.05-3.049,0.1-6.109,0.04-9.159c-0.01-0.9-0.04-2.72-0.061-3.63c0-1.92,0.03-3.85,0.09-5.771
			c4.65,2.32,8.19,6.29,12.771,8.761c0.069,2.27,0.149,4.549,0.2,6.83c0,2.18-0.08,4.359-0.18,6.539l-0.11,0.84
			c-0.2,1.311-0.41,2.631-0.62,3.94c0.04,2.899,0.02,5.81-0.09,8.71l-0.02,0.52c-0.091,6.11,0.029,12.23,0.02,18.341
			c0.23-0.771,0.46-1.53,0.68-2.3c0.09,2.149,0.28,4.31,0.42,6.46C360.6,322.13,357.34,318.7,354.8,314.87z M354.04,252.1
			c-2.55-5.91-1.729-12.5-1.53-18.74c-0.289-6.66,0.221-13.32,0-19.98c0.16-0.06,0.48-0.17,0.631-0.23
			c3.739,3.15,7.399,6.47,11.819,8.69c0.72,1.61,0.59,3.42,0.58,5.15c-0.37,10.21-0.11,20.43-0.42,30.64
			c0.06,0.42,0.17,1.261,0.229,1.681c0.221,1.939,0.61,3.859,0.99,5.779C360.7,262.63,356.311,257.77,354.04,252.1z M369.189,414.03
			c0.431-18.8-0.109-37.641,0.621-56.42c-0.271-4.57-0.17-9.15,0.049-13.721c0.5-2.81,0.451-5.68,0.711-8.51
			c0.34,0.48,1.02,1.45,1.359,1.93c3.271,2.921,6.711,5.681,10.68,7.61c0.021,1.94,0.051,3.88,0.051,5.83
			c-0.189,10.1-0.051,20.21-0.36,30.31c-0.149,0.511-0.44,1.551-0.59,2.061l0.53,0.79c-0.74,13.34-0.57,26.729-0.77,40.09
			c-0.24,3.67,0.979,7.14,1.869,10.64C376.01,430.39,368.41,423.26,369.189,414.03z M371.15,321.27
			c-0.371-2.409-0.471-4.84-0.471-7.26c0.01-3.58,0.07-7.149,0.061-10.72c-0.021-2.8-0.021-5.601-0.01-8.399
			c0.01-2.221,0.02-4.431,0.01-6.641c-0.04-3.6-0.07-7.21-0.051-10.82c0.551-0.02,1.66-0.06,2.211-0.09c1.72,1.53,3.49,3,5.39,4.311
			c1.79,1.199,3.62,2.359,5.46,3.51c0.01,2.59,0.029,5.17-0.02,7.76c-0.061,1.93-0.121,3.859-0.15,5.801
			c-0.04,2.51-0.02,5.029-0.04,7.549c-0.08,7.66-0.021,15.32-0.22,22.99c0.529,2.561,1.189,5.101,1.939,7.62
			C378.971,333.42,373.6,328.13,371.15,321.27z M377.6,270.3c-3.899-5.05-6.439-11.34-5.99-17.8c-0.029-4-0.039-8,0.181-12
			c-0.05-5.11,0.08-10.22-0.011-15.32c4.99,1.1,7.871,6.13,12.711,7.8c0.39,11.32-0.23,22.66-0.061,33.991
			c-0.01,3.449,1.08,6.77,2.041,10.049C383.25,275.15,380.141,273.04,377.6,270.3z M376.618,212.85c-5.479-12.68,0-26.88-3.62-39.95
			c-1.23-2.86-2.92-5.49-5.16-7.66c0.11,2.45,0.28,4.9,0.34,7.36c-0.16,13.44-1.97,26.95,0.271,40.32
			c-0.29-0.07-0.88-0.2-1.171-0.27c-7.18-4.19-11.579-11.8-12.819-19.89c-0.021-8.28-0.181-16.62-2.13-24.72
			c-0.7-2.91-1.65-5.77-2.99-8.44c-0.3-0.01-0.9-0.01-1.199-0.02c0.43,12.74-0.881,25.53,0.299,38.23
			c0.19,1.19,0.41,2.36,0.621,3.55c-1.701-0.94-3.341-2.02-4.75-3.36c-4.851-4.98-6.961-11.74-8.99-18.2
			c-1.74-7.78-2.601-15.74-4.521-23.48c-0.2-0.97-0.909-1.69-1.479-2.45c-0.25,9.19-0.11,18.38-0.101,27.57
			c0.04,1.47,0.28,2.92,0.511,4.38c0.289,1.82,0.549,3.65,0.779,5.49c-0.57-0.46-1.72-1.37-2.3-1.82c-2.47-2.19-4.55-4.76-6.56-7.36
			c-2.48-4.37-4.32-9.08-5.371-14c-1.469-5.69-1.34-11.64-2.729-17.35c-1.85,6.3-1.8,12.91-1.62,19.41
			c0.131,3.43,0.801,6.81,1.51,10.16l-1.029-0.5c-2.891-2.8-5.29-6.05-7.24-9.56c-2.189-4.04-3.7-8.43-4.689-12.91
			c-0.44-3.48-0.551-6.99-0.711-10.49c-0.33,0.02-1.01,0.05-1.35,0.07c-0.82,6.13-2.15,12.51-0.391,18.61
			c0.98,3.55,1.421,7.22,1.16,10.9c-0.129,3-0.189,6.01-0.239,9.02c0.35,14.69-1.341,29.35-0.63,44.04
			c-0.49,15.54-0.26,31.09-0.601,46.63c-8.1-6.189-11.649-17.12-10.38-27.05c0.71-5.11,1.561-10.21,2.16-15.33
			c1.561-15.63,2.35-31.45,0.73-47.1c-0.291-3.02-0.48-6.05-0.791-9.07c-1.16-6.18-1.75-12.48-3.569-18.52
			c-0.99-3.32-1.91-6.65-2.64-10.03c0.17,6.22,1.459,12.35,1.68,18.56c1.109,11.99,1.66,24.09,0.39,36.08
			c-0.38,3.65-0.54,7.31-1,10.95c-0.111,1.094-0.225,2.188-0.341,3.281l1.236,0.837l-1.327,0.044
			c-0.159,1.473-0.328,2.945-0.519,4.418c-0.43,3.08-0.789,6.17-1.22,9.25c-1.16,6.96-2.39,13.92-3.5,20.89
			c-0.142,0.542-0.252,1.087-0.365,1.633c0.913,0,1.824-0.003,2.737-0.003c-0.913,0-1.824,0.002-2.737,0.003
			c-0.014,0.067-0.031,0.135-0.045,0.202c-0.636,0-1.271,0.002-1.905,0.003c-1.198,6.205-0.969,12.587-0.933,18.881
			c0.931,6.551,1.42,13.16,2.31,19.721c0.23,1.399,0.431,2.81,0.65,4.219c1.58,9.001,3.71,17.881,5.54,26.831
			c0.05,0.229,0.16,0.67,0.22,0.89c1.45,5.71,3.07,11.38,4.48,17.1c0.73,2.19,1.39,4.41,1.949,6.66
			c-3.029-1.89-6.06-3.78-9.109-5.63c-0.43-0.25-1.279-0.75-1.71-1.01c-0.26-0.13-0.76-0.391-1.021-0.521
			c-0.42,0.25-1.25,0.761-1.67,1.021c0.41,4.149,1.101,8.28,1.201,12.46c-2.58-3.24-4.931-6.65-7.351-10
			c-0.979-1.42-1.83-2.92-2.601-4.44c-0.049,1.55-0.01,3.11,0.07,4.681c0.12,1.29,0.25,2.58,0.35,3.88
			c0.44,2.89,0.291,5.83-0.58,8.63c-1.1-2.74-2.08-5.521-2.979-8.33c-3.56-7.96-6.63-16.18-11.33-23.59
			c-4.81-8.181-11.12-16.141-20.13-19.87c-12.21-5.479-28.061-2.07-36.48,8.46c-5.45-7.22-14.6-10.82-23.43-11.24
			c-10.13-0.5-19.82,4.73-26.34,12.25c-8.91,10.521-14.43,23.32-19.51,36c-0.55,1.45-1.17,2.87-1.89,4.25
			c-0.2,0.311-0.58,0.94-0.78,1.26c-0.3-5.329-0.42-10.76,0.98-15.96c-0.2-0.279-0.39-0.569-0.57-0.85
			c-1.52,2.64-3.21,5.18-5.04,7.62c-1.28-1.32-2.62-2.561-4.06-3.69c0.2-1.62,0.47-3.22,0.78-4.81c-1.63,1.13-3.28,2.22-4.99,3.229
			c-1.3-0.729-2.63-1.409-3.8-2.34c0.45-2.39,0.66-4.83-0.98-6.859c0.11-0.351,0.32-1.061,0.42-1.41
			c1.41-5.72,1.069-3.271,2.519-8.98c0.06-0.221,0.17-0.661,0.22-0.891c1.83-8.949,3.96-17.83,5.54-26.83
			c0.219-1.41,0.42-2.821,0.649-4.22c0.891-6.561,1.381-13.17,2.311-19.721c0.035-6.332,0.273-12.756-0.949-18.995
			c-0.424-0.022-0.846-0.041-1.27-0.063c0.424,0.023,0.846,0.041,1.27,0.063c-0.026-0.134-0.043-0.27-0.071-0.403
			c0.562,0.03,1.122,0.054,1.683,0.083c-0.098-0.469-0.192-0.938-0.314-1.404c-1.11-6.97-2.34-13.93-3.5-20.89
			c-0.43-3.08-0.79-6.17-1.22-9.25c-0.206-1.59-0.385-3.181-0.555-4.771l-5.419-0.696l5.06-2.767
			c-0.012-0.115-0.024-0.23-0.036-0.346c-0.46-3.64-0.62-7.3-1-10.95c-1.27-11.99-0.719-24.09,0.39-36.08
			c0.108-3.046-1.388-6.074-2.919-9.102c-0.062,0.125-0.134,0.251-0.171,0.376c-1.819,6.04-2.41,12.34-3.569,18.52
			c-0.311,3.02-0.5,6.05-0.79,9.07c-1.621,15.65-0.831,31.47,0.729,47.1c0.6,5.12,1.45,10.22,2.16,15.33
			c1.269,9.931-2.28,20.86-10.38,27.05c-0.34-15.539-0.111-31.09-0.601-46.629c0.711-14.69-0.98-29.35-0.63-44.04
			c-0.05-3.01-0.109-6.02-0.239-9.02c-0.261-3.68,0.18-7.35,1.159-10.9c1.76-6.1,0.43-12.48-0.39-18.61
			c-0.34-0.02-1.02-0.05-1.35-0.07c-0.16,3.5-0.271,7.01-0.71,10.49c-0.99,4.48-2.5,8.87-4.69,12.91
			c-1.95,3.51-4.349,6.76-7.24,9.56l-1.029,0.5c0.71-3.35,1.38-6.73,1.51-10.16c0.18-6.5,0.23-13.11-1.62-19.41
			c-1.389,5.71-1.259,11.66-2.73,17.35c-1.05,4.92-2.89,9.63-5.369,14c-2.011,2.6-4.091,5.17-6.561,7.36
			c-0.58,0.45-1.73,1.36-2.3,1.82c0.23-1.84,0.49-3.67,0.78-5.49c0.23-1.46,0.47-2.91,0.51-4.38c0.009-9.19,0.149-18.38-0.101-27.57
			c-0.569,0.76-1.279,1.48-1.479,2.45c-1.92,7.74-2.781,15.7-4.521,23.48c-2.029,6.46-4.138,13.22-8.989,18.2
			c-1.41,1.34-3.05,2.42-4.75,3.36c0.21-1.19,0.431-2.36,0.62-3.55c1.18-12.7-0.131-25.49,0.3-38.23c-0.3,0.01-0.899,0.01-1.2,0.02
			c-1.34,2.67-2.289,5.53-2.99,8.44c-1.949,8.1-2.109,16.44-2.129,24.72c-1.24,8.09-5.64,15.7-12.82,19.89
			c-0.291,0.07-0.881,0.2-1.17,0.27c2.241-13.37,0.43-26.88,0.27-40.32c0.061-2.46,0.231-4.91,0.34-7.36
			c-2.24,2.17-3.93,4.8-5.16,7.66c-3.619,13.07,1.86,27.27-3.619,39.95c-2.471,5.45-7.181,9.49-12.42,12.18
			c0.879-2.55,1.869-5.13,1.959-7.86c0.48-25-1.25-49.97-0.93-74.97c0.361-4.95,2.24-9.63,4.301-14.09
			c6.609-13.66,17.26-24.71,26.909-36.22c4.96-5.5,11.33-11.16,19.22-10.92c7.33,0.56,13.37,5.17,19.59,8.62
			c5.761,3.54,11.96,6.36,18.511,8.09l0.79,0.2c9.179,2.22,27.948,3.859,37.272,4.333c4.03-0.272,7.774-0.733,9.278-1.472
			l0.28-0.005c6.71-1.43,12.29-5.61,17.59-9.74c4.08-3.43,7.93-7.33,10.28-12.18c0.96-2.09,1.82-4.23,2.47-6.43
			c1.03-5.34,1-10.93-0.23-16.23c-1.75-6.07-6.03-10.93-11.61-13.8c-1.186-0.422-2.374-0.893-3.569-1.352
			c-5.367-5.131-7.572-13.619-7.481-21.714c2.748-2.735,6.216-4.662,9.731-6.274c3.4-1.61,6.93-2.97,10.57-3.95
			c16.1-4.28,35.06,0.19,45.601,13.61c-5.4-2.49-11.24-4.1-17.181-4.46c0.931,0.26,1.87,0.51,2.81,0.74l-0.069,0.74
			c0.54,0.24,1.62,0.72,2.159,0.96c12.66,5.82,22.591,16.6,29.121,28.76c1.619,3.36,3.369,6.67,5.05,10
			c2.56,5.22,5.1,10.45,7.521,15.74c1.35,3.02,2.949,5.96,5.079,8.51c4.75,5.25,9.16,11.22,15.71,14.35
			c9.57,4.7,20.76,4.55,30.93,2.09l0.791-0.2c6.549-1.73,12.75-4.55,18.51-8.09c6.22-3.45,12.26-8.06,19.59-8.62
			c7.891-0.24,14.26,5.42,19.22,10.92c9.65,11.51,20.3,22.56,26.91,36.22c2.06,4.46,3.94,9.14,4.3,14.09
			c0.32,25-1.41,49.97-0.93,74.97c0.089,2.73,1.08,5.31,1.958,7.86C383.798,222.34,379.088,218.3,376.618,212.85z"/>
		<path d="M74.261,414.239c-1.258-1.569-1.514-3.241-1.342-4.964c-0.255,1.818-0.171,3.641,1.059,5.077
			c1.938,2.266,5.363,2.645,7.474,0.967C79.026,416.426,75.975,416.691,74.261,414.239z"/>
		<path d="M83.159,390.238c-0.275-0.05-0.421-0.275-0.44-0.502c-1.608-0.14-3.218-0.252-4.833-0.293
			c-0.062-0.085-0.143-0.156-0.254-0.178c-0.516-0.099-1.06-0.198-1.537-0.117c-0.193-0.23-0.623-0.309-0.861,0.014
			c-0.46,0.622-0.747,1.141-0.967,1.87c-0.033,0.107-0.02,0.215,0.021,0.311c-0.829,2.148,0.15,5.519,0.211,7.406
			c0.045,1.4,0.119,2.779-0.028,4.153c0.316-1.327,0.504-2.648,0.33-3.943c-0.45-3.26-0.58-6.55,0.4-9.729
			c4.2-0.29,6.59,3.31,8.51,6.439c0.4,0.479,1.2,1.449,1.6,1.93c0.48-1.199,0.96-2.391,1.43-3.58c-0.52-0.569-1.02-1.149-1.51-1.72
			c-0.367-0.479-0.717-0.98-1.071-1.48c-0.256-0.067-0.509-0.152-0.757-0.266C83.244,390.482,83.177,390.364,83.159,390.238z"/>
		<path d="M84.761,400.84c-0.9-0.66-1.81-1.301-2.73-1.931c0.977,5.3,1.773,10.871-0.186,16.053c0.372-0.376,0.695-0.82,0.935-1.354
			c1.906-4.24,0.268-9.282,0.073-13.688c3.133,0.672,2.466,4.405,2.166,6.74c-0.077,0.601-0.083,1.254-0.089,1.916
			C85.653,405.904,86.322,403.22,84.761,400.84z"/>
		<path d="M95.691,406.189c-1.37-1.29-2.54-2.761-3.57-4.32c0.07,5.101,0.24,10.32-1.38,15.24c-0.324,0.55-0.941,1.648-1.267,2.22
			c1.03,0.168,2.063,0.296,3.122,0.297c0.077-1.585,0.128-3.16,0.254-4.726c1.29-4.471,3.64-8.711,3.74-13.44
			c0.192-2.527,0.286-5.453,2.146-7.278c-0.603-0.691-1.447-1.223-2.616-1.532c-0.199-0.053-0.393-0.111-0.588-0.169
			c-0.464,0.208-0.932,0.404-1.412,0.569c0.057-0.319,0.124-0.636,0.185-0.954c-1.833-0.616-3.579-1.326-5.519-1.688
			c-0.102,0.176-0.292,0.306-0.544,0.261c-0.136-0.024-0.27-0.062-0.404-0.097c-0.028,0.224-0.176,0.437-0.463,0.458
			c-0.148,0.011-0.296,0.014-0.444,0.021c-0.027,0.007-0.056,0.005-0.083,0.011c1.628,0.699,3.265,1.397,4.763,2.367
			C95.401,396.529,96.211,401.559,95.691,406.189z"/>
		<path d="M84.931,418.569c-1.86-1.25-1.09-3.811-0.88-5.649c0.067-1.401,0.477-2.858,0.872-4.319
			c-0.195,0.016-0.375,0.121-0.406,0.35c-0.189,1.38-0.799,2.667-0.853,4.051c-0.369,1.546-0.617,3.098-0.126,4.406
			c0.19,0.507,0.616,0.818,1.13,1.039c0.729,1.307,1.583,1.494,2.807,0.979C86.527,419.451,85.613,419.352,84.931,418.569z"/>
		<path d="M284.01,446.93c-0.869-2.029-0.66-4.22-0.3-6.319c-2.13-1.03-4.29-1.99-6.54-2.69c2.73,10.68,5.88,21.26,8.609,31.95
			c1.66-0.311,3.41-0.51,4.841-1.51C287.84,461.42,286.38,454.02,284.01,446.93z"/>
		<path d="M272.279,459.12c3.33,1.87,3.201,5.99,4.261,9.21c-7.069,1.91-14.28,3.32-21.511,4.47c-1.049-0.63-2.109-1.26-3.159-1.87
			c2.22-3.979,4.649-8.26,3.399-13c-1.02,2.71-1.699,5.61-3.41,8c-1.92,2.45-4.81,3.87-7.67,4.91c3.461,2.11,6.66,5.38,10.781,5.95
			c9.039-1.29,17.939-3.56,26.84-5.64c-1.431-6.091-3.09-12.12-4.681-18.17C275.49,455.01,273.91,457.08,272.279,459.12z"/>
		<path d="M192.35,467.33c-0.03-0.61-0.1-1.82-0.14-2.43c-2.13,1.58-4.21,3.229-6.24,4.96c0.55,0.7,1.11,1.41,1.66,2.12
			c-0.09,1.869-0.17,3.75-0.24,5.63c-1.33-0.08-2.66-0.16-3.99-0.23c0.21-4.21,0.39-8.43,0.27-12.64
			c-2.05,1.57-4.13,3.109-6.27,4.56c0.7,0.83,1.39,1.65,2.08,2.49c-0.31,1.87-0.63,3.74-0.94,5.61c-2.08-0.341-4.15-0.67-6.22-0.99
			c0.65-9.83,2.12-19.62,2.25-29.48c-1.8,1.33-3.58,2.69-5.37,4.03c0.89,5.37,0.31,10.85-0.82,16.14
			c-3.29,1.391-7.69,2.19-8.94,6.07c-0.46,2.03-0.87,4.07-1.3,6.11c11.15,0.59,22.37,2.7,33.5,2
			C192.67,476.7,192.19,471.98,192.35,467.33z M167.47,475.93c-1.1-0.149-2.2-0.29-3.31-0.43c0.15-0.98,0.3-1.96,0.45-2.93
			c1.3-0.03,2.59-0.07,3.89-0.09C168.24,473.34,167.73,475.07,167.47,475.93z"/>
		<path d="M229.24,446.57c-1.61,1.77-3.24,3.529-4.881,5.27c0.801,1.3,2.061,2.5,1.99,4.15c0.45,6.83,1.25,13.63,1.561,20.47
			c-3.58,0.22-7.16,0.61-10.73,0.96c1.75-4.05,3.73-8,5.721-11.92c-2.99,0.17-5.66-0.9-8.061-2.59c-2.279-1.38-4.01,1.42-5.51,2.7
			c-1.43-0.011-2.85-0.011-4.26-0.011c0.81,4.521,4.31,7.811,6.14,11.9c-3.54,0.08-7.08,0.09-10.62,0.08
			c0.061-3.66,0.051-7.311-0.01-10.96c-1.35,1.13-2.68,2.28-4.04,3.41c-0.57,0.479-1.72,1.43-2.3,1.91
			c0.52,0.5,1.56,1.489,2.08,1.989c-0.13,3.63,0.44,7.42-0.81,10.91c-1.12,2.7-4.35,1.42-6.59,1.7l-0.59,0.43
			c3.8,2.59,9.16,2.561,12.18-1.2c0.051-1.369,0.1-2.739,0.16-4.1c9.051-0.12,18.09-0.37,27.09-1.26c1.65-0.09,3.311-0.14,4.971-0.2
			c-0.021-9.42-2.011-18.7-2.311-28.1C230.21,450.23,229.73,448.39,229.24,446.57z M214.8,472.82c-0.55-0.15-1.659-0.431-2.21-0.57
			c-0.25-1.84-0.38-3.73,1.21-4.99c0.44,0.391,1.32,1.19,1.761,1.59C215.49,470.2,215.18,471.51,214.8,472.82z"/>
		<path d="M239.77,450.82c-1.84-1.96-4.199-3.29-6.359-4.84c0.51,10.81,2.619,21.489,3.29,32.279c0.909,2.271,3.399,0.721,5.05,0.32
			c-1.15-8.82-2.779-17.66-3.2-26.521L239.77,450.82z"/>
		<path d="M327.939,441.61c-2.159-1.07-2.879-3.48-3.799-5.5c-1.711-4.15-3.711-8.181-5.19-12.42c-0.29-0.021-0.88-0.061-1.17-0.091
			c-0.99,2.48-2.05,4.931-3.25,7.32c1.229,0.58,2.899,0.79,3.44,2.26c1.75,3.63,3.06,7.46,4.939,11.04
			c1.35,0.42,2.699,0.851,4.061,1.29c-0.5,0.851-1.011,1.7-1.511,2.561c-0.03,0.859-0.101,2.569-0.13,3.43
			c0.949,1.34,1.76,2.78,2.59,4.21c4.1-1.79,8.2-3.58,12.189-5.6c-1.01-2.12-2.02-4.24-3.02-6.36c-1.279-0.2-2.56-0.39-3.83-0.58
			c0.26-1.51,0.74-2.979,1.391-4.37c-1.53-5.09-6.09-9.439-5.041-15.069c-2.709-0.83-5.43-1.631-8.159-2.37
			c2.69,5.18,4.979,10.55,7.53,15.79C329.78,438.57,330.061,441.21,327.939,441.61z M330.79,446.52
			c0.97,0.211,1.95,0.431,2.931,0.65c-0.07,0.53-0.211,1.59-0.281,2.12c-1.16,0.19-2.31,0.38-3.469,0.58
			C330.24,448.75,330.51,447.63,330.79,446.52z"/>
		<path d="M343.99,448.73c0.15-0.23,0.46-0.7,0.619-0.931c1.121-0.47,2.25-0.93,3.371-1.399c-3.28-7.7-7.53-14.971-11.211-22.49
			c-0.879-1.28-0.26-2.84-0.27-4.24c-2.5-0.29-4.9-1.08-7.18-2.11c0.199,3.221,2.439,5.71,3.64,8.591
			C336.46,433.76,340.58,441.08,343.99,448.73z"/>
		<path d="M312.721,448.21c-1.41,2.51-2.721,5.08-4.07,7.63c0.289,1.061,0.59,2.15,0.85,3.24c-1.279,0.17-2.561,0.35-3.83,0.55
			c-2.27-6.56-4.609-13.09-6.82-19.66c-0.629-1.399,0.08-2.819,0.41-4.18c-1.66-0.63-3.32-1.28-4.97-1.92
			c-0.71-0.28-1.42-0.54-2.13-0.79c1.199,5.03,3.26,9.81,4.619,14.8c2.051,5.68,3.761,11.47,5.921,17.11
			c3.86-1.24,7.69-2.57,11.53-3.87c3.209-1.23,6.379-2.55,9.539-3.9c-0.899-2.109-1.81-4.21-2.72-6.31
			C318.279,449.98,315.51,449.05,312.721,448.21z M313.189,456.76c0.561-1.2,1.141-2.39,1.73-3.569c0.58,0.17,1.75,0.529,2.33,0.699
			c0.141,0.42,0.42,1.271,0.561,1.69C316.311,456.1,314.77,456.52,313.189,456.76z"/>
		<path d="M290.02,458.65c2.78,2.43,3.311,6.22,4.32,9.569c0.65,1.851,0.45,4.13-1.39,5.24c-1.99,0.48-4.05,0.271-6.06,0.24
			c1.59,0.68,3.17,1.399,4.67,2.29c3.399-0.351,7.189-2.221,7.89-5.87c-0.979-6.32-3.81-12.16-5.36-18.34
			C292.7,454.05,291.23,456.27,290.02,458.65z"/>
		<path d="M64.11,423.2c0.43-1.19,0.27-2.34-0.47-3.44c2.2,0.28,2.78-1.25,3.03-2.96c-0.54-0.33-1.62-0.99-2.16-1.319
			c-0.52,0.029-1.54,0.079-2.06,0.109c0.04,1.25,0.09,2.5,0.15,3.75c-2.76-0.32-2.64,2.45-1.9,4.25
			C61.55,423.49,63.26,423.29,64.11,423.2z"/>
		<path d="M264.26,457.49c1.4-0.2,3.24,0.7,4.311-0.57c0.05-0.62,0.16-1.87,0.209-2.5c-0.729-0.08-2.18-0.24-2.899-0.32
			c-0.37,0.391-1.11,1.181-1.489,1.58c-2.361-0.819-5.681-0.729-4.98,2.73C261.109,458.7,262.91,458.77,264.26,457.49z"/>
		<path d="M182.06,485.9c0.54,0.979,0.86,2.18,1.85,2.85c1.14-0.28,2.27-0.62,3.38-1.02c-0.62-1.171-1.24-2.33-1.88-3.471
			C184.58,484.67,182.9,485.49,182.06,485.9z"/>
		<path d="M154.42,445.49c-0.42-0.061-1.25-0.17-1.67-0.23c-1.22,10.76-3.58,21.37-4.77,32.141c1.43,0.369,2.85,0.75,4.28,1.14
			c1-5.88,1.86-11.771,2.63-17.68c0.43-3.11,0.99-6.2,1.56-9.28c0.45-0.33,1.37-0.99,1.83-1.33
			C156.97,448.68,155.68,447.09,154.42,445.49z"/>
		<path d="M66.38,422.52c0.27,0.391,0.81,1.16,1.09,1.551c-2.14,4.52-3.94,9.25-6.9,13.319c-3.04-0.62-6.66-1.35-9.2,0.94
			c-1.75,1.91-2.7,4.55-5.08,5.86c4.6,2.17,9.02,4.739,13.8,6.52c4.3-10.32,9.87-20.09,14.05-30.47
			C71.49,420.77,68.89,421.51,66.38,422.52z M57.66,444.63c-1.06-0.02-2.1-0.14-3.14-0.37c0.04-1.16,0.09-2.319,0.14-3.46
			c1.65-0.01,3.29-0.03,4.94-0.069C58.49,441.77,58.43,443.37,57.66,444.63z"/>
		<path d="M143.19,447.66c0.7,2.53,0.53,5.149-0.06,7.689c-1.3,5.73-1.86,11.61-3.65,17.221c-1.03-0.4-2.05-0.801-3.07-1.19
			c0.45-3.91-2.89-6.47-4.79-9.45c-2.77,1.03-5.38,2.45-7.93,3.94c-0.12,0.67-0.37,2.01-0.5,2.68c-0.97-0.11-2.9-0.32-3.87-0.42
			c0.34-4.38,2.23-8.47,2.33-12.86c-2.11,1.08-4.22,2.181-6.32,3.301c0.54,2.739,0.15,5.5-0.91,8.06c-1.68-0.53-3.35-1.07-5.03-1.58
			c0.36-4,1.59-7.96,1.16-12.01c-0.21-3.021-2.16-5.48-3.58-8.021c-2.07,0.341-4.08,0.961-6.06,1.671c1.98,1.56,4.3,2.949,5.31,5.38
			c2.15,3.699,0.59,8.02,0.3,11.979c-1.65-0.47-3.31-0.939-4.95-1.43c0.37-2.771,0.12-5.61-1.68-7.87
			c-8.8-3.83-18.17-6.36-26.74-10.71c-0.15-2.38,1.74-3.83,3.52-5c-1.1-2.39-2.32-4.72-3.62-7.01c-1.79,4.76-4.41,9.17-5.96,14.02
			c8.17,3.38,16.31,6.851,24.68,9.73c1.9,0.779,4.1,1.22,5.57,2.75c0.05,2.359-1.39,4.52-2.08,6.75c-0.61,0.18-1.83,0.529-2.44,0.71
			c-1.64-1.9-0.84-4.21-0.09-6.3c-7.89-2.62-15.65-5.62-23.24-8.99c-1.57-0.69-3.23-1.15-4.89-1.53c-0.11,1.18-0.17,2.36-0.18,3.561
			c7.16,3.6,14.78,6.26,22.28,9.069c-0.01,0.521-0.04,1.54-0.06,2.061c1.52,2.42,2.96,4.899,4.35,7.399
			c3.21-0.99,6.53-1.95,9.15-4.17l0.67-0.46c3.28,0.771,6.48,1.89,9.46,3.46c5.73,0.32,11.09,2.57,16.7,3.57
			c5.7,1.05,11.33,2.57,17.12,3.07c1.23-11.091,3.99-21.95,5.43-33.021C147.33,444.89,145.22,446.21,143.19,447.66z M127.04,468.94
			c1.19-0.95,2.57-1.521,4.12-1.421c0.18,1.021,0.37,2.051,0.56,3.08C130.05,470.36,128.15,470.45,127.04,468.94z"/>
		<path d="M159.65,15.18c-2.34,0.34-3.55,2.28-3.58,4.53c2.03-0.93,4.22-1.38,6.46-1.3c-0.13,3.59,0.53,7.25,3.05,9.97
			c1,0.4,1.99,0.82,3.01,1.16c0.47-0.52,1.4-1.57,1.86-2.1c-1.3-0.18-2.59-0.39-3.88-0.6c3.51-0.02,7.55,0.27,9.71-3.1l0.05-1.23
			c-0.04-2,0.43-3.94,1.1-5.81c1.64-0.77,3.26-1.56,4.88-2.38C174.76,13.3,167.07,13.3,159.65,15.18z M171.399,18.98
			c-0.119,0.046-0.257,0.054-0.401-0.007c-1.343-0.568-2.654-0.871-3.852,0.172c-0.351,0.306-0.815,0.019-0.861-0.323
			c-0.127-0.138-0.172-0.337-0.029-0.543c0.463-0.669,1.233-0.905,2.067-0.931c0.008,0,0.013-0.004,0.021-0.004
			c0.178-0.002,0.354-0.007,0.53-0.01c0.035,0,0.064-0.013,0.103-0.003c0.003,0,0.007,0.001,0.01,0.002
			c0.426-0.005,0.848,0.008,1.271,0.123c0.054,0.014,0.093,0.041,0.134,0.067c0.421,0.082,0.831,0.225,1.235,0.514
			C172.011,18.312,171.847,19.005,171.399,18.98z"/>
		<path d="M147.7,26.21c-1.42,0.06-2.84,0.15-4.26,0.26c-0.04,1.11-0.07,2.22-0.09,3.34c1.5-0.34,2.86-1.05,4.25-1.68
			C147.62,27.65,147.68,26.69,147.7,26.21z"/>
		<path d="M173.09,485.71c-0.51-0.56-1.54-1.69-2.06-2.25c-0.68,0.32-2.06,0.97-2.74,1.29c0.07,0.9,0.15,1.8,0.24,2.71
			c1.76,0.05,3.53-0.21,5.29-0.02c1.16,0.56,2.81,1.51,3.81,0.119c1.42-0.93-0.05-2.489-0.45-3.54
			C175.69,484.26,174.32,484.84,173.09,485.71z"/>
		<ellipse cx="164.715" cy="452.667" rx="1.951" ry="1.938"/>
		<ellipse cx="164.094" cy="457.201" rx="1.951" ry="1.938"/>
		<ellipse cx="122.333" cy="452.333" rx="1.951" ry="1.938"/>
		<ellipse cx="117.384" cy="450.983" rx="1.951" ry="1.938"/>
		<path d="M159.967,263.302c-4.369-2.553-8.46-5.524-12.213-8.872c-2.223-0.071-4.446-0.146-6.671-0.228
			c5.348,5.416,11.462,10.067,18.168,13.788l0.021-0.004L159.967,263.302z"/>
		<path d="M225.024,268.623c-8.382,3.204-17.472,4.977-26.98,4.977c-10.345,0-20.202-2.083-29.181-5.844l-3.296,3.359l0.009,0.018
			C175.49,275.535,186.454,278,198,278c10.604,0,20.716-2.082,29.977-5.828l0.027-0.045L225.024,268.623z"/>
		<path d="M234.121,264.451l0.362,4.738c7.141-3.667,13.658-8.37,19.351-13.921c-2.165,0.007-4.331,0.015-6.494,0.022
			C243.281,258.786,238.861,261.872,234.121,264.451z"/>
		<path d="M143.031,146.174c12.931-13.721,30.923-22.617,51.003-23.667l1.445-4.443c-22.287,0.691-42.277,10.481-56.367,25.8
			l-0.056,0.576L143.031,146.174z"/>
		<path d="M125.085,217.815l-4.749-0.611c3.438,13.949,10.535,26.45,20.215,36.442c2.189,0.078,4.378,0.155,6.565,0.223
			C136.655,244.328,128.898,231.883,125.085,217.815z"/>
		<path d="M122.444,198c0-16.532,5.322-31.813,14.325-44.256l-2.375-4.042l-0.192,0.042C124.038,163.159,118,179.872,118,198
			c0,4.159,0.318,8.243,0.93,12.23l4.185-2.29C122.688,204.686,122.444,201.372,122.444,198z"/>
		<path d="M259.921,154.589c8.637,12.288,13.724,27.251,13.724,43.411c0,4.179-0.354,8.274-1.006,12.27l3.135,2.123l1.058-0.824
			C277.585,207.156,278,202.627,278,198c0-17.152-5.416-33.031-14.606-46.056l-1.441-0.404L259.921,154.589z"/>
		<path d="M270.594,219.253c-4.061,13.883-11.989,26.105-22.551,35.429c2.143-0.008,4.286-0.015,6.431-0.023
			c9.234-9.204,16.222-20.654,20.097-33.458l-0.744-2.056L270.594,219.253z"/>
		<path d="M254.127,147.309l3.465-1.283l-0.059-1.452c-13.682-15.235-33.121-25.186-54.898-26.431l1.471,4.52
			C223.906,124.236,241.562,133.417,254.127,147.309z"/>
		<polygon points="202.635,118.144 202.559,117.908 208.247,113.775 201.217,113.775 199.044,107.09 196.872,113.775 
			189.842,113.775 195.53,117.908 195.479,118.064 194.035,122.507 193.357,124.593 196.315,122.443 199.044,120.461 
			201.846,122.496 204.732,124.593 204.105,122.663 		"/>
		<polygon points="143.031,146.174 139.056,144.44 139.112,143.864 139.736,137.443 135.073,142.704 128.629,139.894 
			132.191,145.955 127.528,151.215 134.201,149.744 134.393,149.701 136.769,153.744 137.954,155.761 138.356,151.631 
			138.635,148.764 141.189,148.201 145.499,147.25 		"/>
		<polygon points="124.532,215.629 122.013,213.253 123.443,210.23 125.019,206.899 123.115,207.94 118.93,210.23 118.852,210.273 
			113.737,205.451 115.041,212.359 113.933,212.965 108.873,215.732 114.292,216.428 115.846,216.628 117.149,223.535 
			120.156,217.181 120.336,217.204 125.085,217.815 127.127,218.077 		"/>
		<polygon points="170.489,266.098 166.61,266.751 163.556,267.266 162.134,264.539 160.304,261.033 159.967,263.302 
			159.272,267.986 159.251,267.99 152.34,269.154 158.635,272.284 157.604,279.238 162.525,274.219 168.82,277.348 165.576,271.133 
			165.567,271.115 168.863,267.756 		"/>
		<polygon points="241.336,271.105 234.503,269.45 234.483,269.189 234.121,264.451 233.968,262.441 232.086,265.496 
			230.281,268.427 227.334,267.713 223.45,266.771 225.024,268.623 228.004,272.127 227.977,272.172 224.318,278.111 
			230.818,275.436 235.372,280.792 234.836,273.782 		"/>
		<path d="M279.372,214.827l1.948-6.755l-4.489,3.497l-1.058,0.824l-3.135-2.123l-2.686-1.818l1.99,5.5l0.402,1.111l-0.803,0.625
			l-4.743,3.693l3.794-0.126l3.232-0.107l0.744,2.056l1.648,4.554l1.949-6.755l5.698-0.189c0.031-0.293,0.061-0.587,0.091-0.881
			L279.372,214.827z"/>
		<polygon points="264.359,147.924 268.259,142.074 261.666,144.516 257.307,139.002 257.533,144.574 257.592,146.026 
			254.127,147.309 251,148.467 256.447,149.996 257.77,150.367 257.826,151.75 258.055,157.39 259.921,154.589 261.952,151.54 
			263.394,151.944 268.721,153.439 		"/>
	</g>
	<g>
		<path d="M392.161,235.775c1.43,0.5,2.87,0.98,4.34,1.4v-0.5c-4.67-6.5-4.399-15.03-4.28-22.69c0.32-12.68-0.199-25.399,0.83-38.06
			c0.08-10.99,0.19-21.99,0.301-32.98c0.14-6.2-2.131-12.08-4.17-17.83c-6.021-14.18-14.681-27.29-25.65-38.13
			c-7.15-6.62-15.94-12.76-26.09-12.64c-8.791,1.3-16.791,5.56-24.431,9.91c-4.51,2.5-9.38,4.239-13.989,6.55
			c-8.431,2.84-17.681,4.5-26.32,1.52c-5.99-2.35-10.08-7.5-13.53-12.689c-2.021-3.13-3.979-6.3-5.79-9.57
			c-2.43-4.77-4.359-9.78-6.75-14.58c-1.27-3.18-2.63-6.319-4.199-9.37c-8.681-17.99-21.311-35.89-40.44-43.64
			c-17.31-6.18-36.2,0.32-50.93,9.92c-2.62,3.42-5.02,7.03-7.79,10.33c-2.63,2.35-6.24,3.63-8.08,6.81
			c-3.26,4.18-3.88,9.84-2.37,14.83c0.78,2.24,1.9,4.33,3.5,6.09c0.31-1.89-0.51-4.3,1.3-5.64c4.82,0.91,9.74,1.32,14.58,0.271
			c6.03,4.97,11.53,11.14,13.51,18.869c0.48,3.2-0.43,6.351-1.03,9.471c-1.84,3.68-3.59,7.5-6.41,10.55
			c-4.59,5.32-11.39,7.77-18.02,9.35c-8.64,2.98-34.841-1.71-43.271-4.551c-4.609-2.31-9.479-4.05-13.989-6.55
			c-7.641-4.35-15.641-8.609-24.43-9.91c-10.15-0.12-18.94,6.021-26.09,12.641c-10.971,10.84-19.631,23.95-25.65,38.13
			c-2.041,5.75-4.311,11.63-4.17,17.83c0.109,10.99,0.22,21.99,0.3,32.979c1.03,12.66,0.51,25.38,0.829,38.061
			c0.121,7.66,0.391,16.189-4.279,22.689v0.5c1.471-0.42,2.91-0.899,4.34-1.399c0.48,1.68,0.74,3.41,0.689,5.16
			c-0.029,10.659,0.201,21.329,0.181,31.989c0.08,5.67-1.41,11.299-4.05,16.311c1.43-0.54,2.859-1.09,4.27-1.648
			c1.211,6.698,0.33,13.549,0.65,20.318c-0.109,10.511,0.68,21.04-0.189,31.53c-0.891,3.21-1.791,6.43-3.021,9.528
			c1.39-0.448,2.771-0.909,4.149-1.34c0.121,15.431,0.24,30.87,0.431,46.301c1.14,11.63,0.579,23.341,0.86,35
			c0.26,4.949-0.86,9.779-2.271,14.479c1.25,0.351,2.399,1.58,3.75,1.2c8.94-3.312,17.71-9.25,21.26-18.46
			c3.69-8.47,2.28-17.87,2.63-26.82c5.711-2,10.271-6.21,13.82-10.979c2.21-3.392,3.04-7.421,4.439-11.16
			c9.721-4.15,17.16-13.472,18.08-24.12c4.53-3.49,9.25-7.03,12.16-12.07c2.75-4.05,3.41-8.989,4.29-13.689
			c0.13-1.489,0.26-2.989,0.4-4.479c4.58-3.56,8.949-7.898,11.05-13.409c1.89-7.621,1.939-15.58,1.64-23.391
			c1.66-2.189,3.74-4,5.9-5.67c1.39-1.73,2.74-3.48,4.05-5.25l0.6-0.381c0.389-0.238,0.779-0.465,1.17-0.698
			c0.021,3.851-0.06,7.729-0.659,11.549c-1.333,15.474-4.062,30.804-7.119,46.021c-2.12,9.04-3.8,18.18-6.36,27.109
			c1.13-0.101,2.26-0.279,3.38-0.46c0.72-0.069,2.15-0.221,2.86-0.29c-1.44,7.37-4.13,14.41-6.56,21.5
			c-1.8,4.2-3.31,8.54-5.78,12.42c-0.61,0.08-1.84,0.229-2.45,0.311l-1.25,0.899c0.002,0.001,0.005,0.002,0.007,0.003
			c0.027-0.006,0.056-0.004,0.083-0.011c0.148-0.007,0.296-0.01,0.444-0.021c0.287-0.021,0.435-0.234,0.463-0.458
			c0.134,0.035,0.268,0.072,0.404,0.097c0.252,0.045,0.442-0.085,0.544-0.261c1.939,0.361,3.686,1.071,5.519,1.688
			c0.478-2.485,1.077-4.949,1.715-7.396c0.55-2.311,2.74-3.681,3.65-5.79c0.79-2.55,0.66-5.391,2.16-7.69
			c2.72-4.02,1.65-9.479,4.92-13.229c1.46-1.91,3.13-3.641,4.84-5.311c0.4,4.801,0.78,9.59,1.31,14.38
			c2.46-2.22,4.66-4.739,7.44-6.59c-0.16,4.8-2.97,8.84-3.91,13.45c-0.45,3.46-3.64,5.3-5.68,7.76c-1.33,2.391-0.94,5.38-2.45,7.69
			c-1.13,1.75-1.84,3.689-2.06,5.77c-0.5-0.5-1.01-0.979-1.54-1.449c-1.37-1.351-2.97-2.631-4.94-2.9
			c-1.485,0.33-2.835,1.065-4.228,1.69c0.195,0.058,0.389,0.116,0.588,0.169c1.169,0.31,2.014,0.841,2.616,1.532
			c0.267-0.262,0.569-0.5,0.914-0.712c0.99,0.33,1.99,0.63,3,0.92c4.62,4.971,6.32,11.82,10.4,17.2c-0.59-0.02-1.79-0.05-2.38-0.06
			c-2.07-2.54-3.97-5.21-5.58-8.07c-0.37-0.09-1.13-0.27-1.51-0.36c-2.42,6.271-1.07,13.17-3.1,19.48
			c-2.99,0.22-6.03-0.17-7.89-2.82c0.002-0.045,0.004-0.089,0.006-0.134c-1.059-0.001-2.092-0.129-3.122-0.297
			c-0.006,0.011-0.017,0.029-0.023,0.04c-0.631-0.041-1.312,0.037-1.977,0.056c-1.223,0.516-2.078,0.328-2.807-0.979
			c-0.514-0.221-0.94-0.532-1.13-1.039c-0.491-1.309-0.243-2.86,0.126-4.406c0.054-1.384,0.664-2.671,0.853-4.051
			c0.031-0.229,0.21-0.334,0.406-0.35c0.002-0.008,0.004-0.017,0.007-0.024c0.006-0.662,0.012-1.315,0.089-1.916
			c0.3-2.335,0.967-6.068-2.166-6.74c0.195,4.406,1.833,9.448-0.073,13.688c-0.24,0.533-0.562,0.978-0.935,1.354
			c-0.026,0.069-0.047,0.139-0.074,0.208c-0.104,0.052-0.212,0.101-0.319,0.149c-2.11,1.678-5.536,1.299-7.474-0.967
			c-1.23-1.437-1.314-3.259-1.059-5.077c0.207-2.08,1.042-4.232,1.552-6.373c0.147-1.374,0.073-2.753,0.028-4.153
			c-0.061-1.888-1.04-5.258-0.211-7.406c-0.041-0.096-0.054-0.203-0.021-0.311c0.22-0.729,0.507-1.248,0.967-1.87
			c0.238-0.322,0.668-0.244,0.861-0.014c0.477-0.081,1.021,0.019,1.537,0.117c0.111,0.021,0.192,0.093,0.254,0.178
			c1.615,0.041,3.225,0.153,4.833,0.293c0.019,0.227,0.165,0.452,0.44,0.502c0.018,0.126,0.085,0.244,0.244,0.315
			c0.248,0.113,0.501,0.198,0.757,0.266c-0.911-1.287-1.853-2.562-3.199-3.39c-1.95-0.66-4.07-0.351-6.08-0.431
			c-1.62,1.62-3.15,3.391-3.65,5.7c-8.7,5.74-17.82,10.84-26.58,16.5c-3.35,1.851-6.61,3.859-9.82,5.971
			c0.21,6.92-0.08,13.84,0.25,20.76c0.94,9.101,0.26,18.271,0.51,27.41c45.89,26.949,98.71,41.659,151.86,43.311
			c3.87-0.4,6.35,3.06,8.96,5.3h1.1c2.129-1.689,4.209-3.439,6.32-5.149c9.86-0.279,19.74-0.779,29.55-1.899
			c34.71-3.57,68.96-12.7,100.53-27.63c1.09-0.471,2.18-0.94,3.25-1.431c6.13-2.96,12.2-6.021,18.2-9.2
			c1.729-1.021,4.119-2.26,3.75-4.649c0.199-15.25,0.26-30.49,0.38-45.74c-11.87-7.649-23.83-15.17-35.88-22.529
			c-0.311-0.681-0.92-2.029-1.23-2.71c-0.84-2.489-3.55-3.399-5.96-3.08c-3.5-0.271-5.22,3.271-6.94,5.671
			c-0.799-0.79-1.59-1.591-2.369-2.381c-1.15-0.409-2.29-0.811-3.43-1.21c-4.9-10.71-8.9-21.851-11.461-33.359
			c2.101,0.35,4.19,0.76,6.291,1.12c-5.671-23.771-10.531-47.812-12.631-72.19c-0.6-3.818-0.68-7.699-0.66-11.549
			c0.392,0.234,0.781,0.46,1.17,0.699l0.601,0.38c1.31,1.771,2.659,3.521,4.05,5.25c2.16,1.67,4.24,3.479,5.9,5.67
			c-0.301,7.812-0.25,15.771,1.64,23.391c2.101,5.511,6.47,9.851,11.05,13.409c0.141,1.49,0.27,2.99,0.4,4.48
			c0.88,4.699,1.54,9.64,4.29,13.688c2.909,5.04,7.63,8.58,12.159,12.07c0.92,10.649,8.36,19.97,18.08,24.12
			c1.4,3.739,2.23,7.77,4.44,11.16c3.55,4.77,8.11,8.979,13.82,10.979c0.35,8.95-1.06,18.351,2.63,26.82
			c3.55,9.21,12.32,15.149,21.26,18.46c1.35,0.38,2.5-0.851,3.75-1.2c-1.41-4.7-2.529-9.529-2.27-14.479
			c0.279-11.659-0.28-23.369,0.859-35c0.19-15.431,0.311-30.869,0.43-46.3c1.381,0.431,2.761,0.891,4.15,1.34
			c-1.23-3.101-2.13-6.319-3.02-9.529c-0.87-10.49-0.08-21.021-0.19-31.53c0.32-6.771-0.56-13.62,0.65-20.319
			c1.409,0.561,2.84,1.109,4.27,1.649c-2.64-5.011-4.13-10.64-4.05-16.31c-0.02-10.66,0.21-21.331,0.18-31.991
			C391.42,239.186,391.682,237.455,392.161,235.775z M136.37,39.119c-0.34-2.31-1.33-4.73-0.27-6.99c1.58-4.94,6.62-7.22,10.2-10.49
			c0.59-0.83,1.15-1.69,1.74-2.52c0.555-0.74,1.173-1.412,1.819-2.055c-0.091,8.096,2.114,16.583,7.481,21.713
			c-3.389-1.302-6.84-2.514-10.5-2.278C143.39,37.529,139.99,38.819,136.37,39.119z M156.81,42.18c-1.52-0.89-3.23-0.49-4.86-0.34
			c-3.58,0.92-7.34,1.21-11.01,0.7c2.65-1.47,5.1-3.48,8.05-4.27c3.7,0.34,6.49,3.2,10,4.18C158.26,42.36,157.53,42.27,156.81,42.18
			z M8.528,274.989c0.961-3.279,2.051-6.601,2.041-10.05c0.17-11.331-0.45-22.67-0.061-33.99c4.84-1.67,7.721-6.7,12.711-7.8
			c-0.091,5.1,0.039,10.21-0.011,15.32c0.22,4,0.21,8,0.181,12c0.449,6.461-2.091,12.75-5.99,17.801
			C14.858,271.009,11.749,273.12,8.528,274.989z M11.458,304.239c-0.021-2.521,0-5.039-0.04-7.55c-0.029-1.94-0.09-3.871-0.15-5.801
			c-0.049-2.59-0.029-5.17-0.02-7.76c1.84-1.15,3.67-2.311,5.46-3.51c1.899-1.311,3.67-2.78,5.39-4.311
			c0.551,0.029,1.66,0.069,2.211,0.09c0.02,3.609-0.011,7.221-0.051,10.819c-0.01,2.21,0,4.421,0.01,6.642
			c0.01,2.799,0.01,5.6-0.01,8.398c-0.01,3.569,0.051,7.141,0.061,10.72c0,2.421-0.1,4.851-0.471,7.261
			c-2.449,6.86-7.82,12.15-14.109,15.61c0.75-2.521,1.41-5.06,1.939-7.62C11.479,319.559,11.538,311.899,11.458,304.239z
			 M11.659,432.61c0.89-3.5,2.109-6.972,1.869-10.642c-0.199-13.358-0.029-26.75-0.77-40.09l0.53-0.79
			c-0.149-0.511-0.44-1.55-0.59-2.06c-0.31-10.102-0.171-20.211-0.36-30.312c0-1.95,0.03-3.891,0.051-5.83
			c3.969-1.93,7.409-4.688,10.68-7.608c0.34-0.48,1.02-1.451,1.359-1.932c0.26,2.83,0.211,5.7,0.711,8.512
			c0.219,4.568,0.319,9.148,0.049,13.719c0.73,18.781,0.19,37.621,0.621,56.42C26.589,421.229,18.989,428.36,11.659,432.61z
			 M29.458,224.959c-0.01-1.73-0.14-3.54,0.58-5.15c4.42-2.22,8.08-5.54,11.819-8.69c0.15,0.06,0.471,0.17,0.631,0.23
			c-0.221,6.66,0.289,13.32,0,19.98c0.199,6.24,1.02,12.83-1.53,18.74c-2.27,5.67-6.659,10.531-12.299,12.99
			c0.38-1.92,0.77-3.84,0.99-5.779c0.06-0.42,0.17-1.26,0.229-1.68C29.568,245.389,29.828,235.169,29.458,224.959z M30.239,322.159
			c0.14-2.149,0.33-4.311,0.42-6.459c0.22,0.77,0.449,1.528,0.68,2.299c-0.01-6.109,0.11-12.229,0.02-18.34l-0.02-0.521
			c-0.109-2.899-0.13-5.811-0.09-8.709c-0.21-1.311-0.42-2.631-0.62-3.94l-0.11-0.841c-0.1-2.18-0.18-4.358-0.18-6.539
			c0.051-2.28,0.131-4.561,0.2-6.829c4.58-2.472,8.12-6.44,12.771-8.761c0.06,1.92,0.09,3.851,0.09,5.771
			c-0.021,0.91-0.051,2.729-0.061,3.63c-0.061,3.051-0.01,6.11,0.04,9.159c0.03,2.131,0.06,4.271,0.091,6.41
			c0.029,1.721,0.069,3.44,0.049,5.17c0.221,5.229,0.211,10.58-1.59,15.58c-0.58,1.189-1.18,2.381-1.729,3.601
			C37.659,316.669,34.399,320.099,30.239,322.159z M44.179,372.19l-0.279,0.908c-1.61,5.95-5.82,10.649-10.561,14.37
			c-0.49,0.071-1.481,0.21-1.97,0.28c1.83-5.639,0.649-11.629,0.979-17.43c-0.33-2.761-0.68-5.529-0.66-8.311
			c0-10.318-0.449-20.648-0.08-30.979c4.381-1.99,8.4-4.762,11.641-8.34c0.33-0.23,0.98-0.701,1.3-0.941
			c-0.05,10.721,0.08,21.441,0.16,32.16C44.619,360.01,46.039,366.22,44.179,372.19z M49.569,208.089l0.189-0.3l1.04-0.76
			c0.88-0.58,1.78-1.13,2.66-1.67c1.08-0.64,2.16-1.27,3.3-1.78c0.631-0.23,1.891-0.68,2.52-0.91c0.48-0.12,1.461-0.36,1.951-0.48
			c0.049,4.16,0.18,8.32,0.18,12.49c-0.01,1.24-0.03,2.49-0.07,3.73c0.09,6.36,0.66,12.82-1.01,19.04c-2.5,5.67-6.35,10.96-12,13.81
			c0.54-3.09,1.141-6.19,1.13-9.34C49.459,230.639,49.199,219.359,49.569,208.089z M50.298,281.939v-1.11
			c0.011-1.58,0.03-3.149,0.011-4.72c0-1.51-0.011-3.01-0.021-4.51c-0.279-3.521-0.939-7.08-0.379-10.61
			c3.439-3.431,7.74-6.359,12.609-7.29c-0.17,3.39-0.24,6.779-0.25,10.17c-0.01,3.119,0.061,6.229,0.131,9.35
			c0.05,6.32,0.85,12.99-2.18,18.83c-0.07,0.16-0.211,0.48-0.281,0.631c-2.02,3.898-4.629,7.689-8.52,9.93
			c-0.25,0.149-0.75,0.459-1.01,0.619C50.338,296.129,50.508,289.04,50.298,281.939z M62.85,349.509
			c-1.539,6.649-5.55,12.54-11.27,16.29c-0.21-8.13-0.26-16.26-0.26-24.391c-1.18-9.509-0.411-19.14-0.68-28.708l0.469,0.148
			c3.82-2.29,7.42-4.979,10.391-8.31c0.26-0.28,0.79-0.83,1.05-1.109c0.171,10.189-0.159,20.398,0.66,30.568
			C63.3,339.169,63.57,344.369,62.85,349.509z M66.39,240.719c0.5-1.7,0.989-3.41,1.449-5.11c0.18-12.28-0.64-24.6,0.09-36.85
			c3.47-2.37,6.51-5.26,9.6-8.08c0.16,6.75,0.04,13.52,0.48,20.26c0.27,4.12,0.28,8.28-0.4,12.36c-0.189,1.51-0.47,3.01-0.84,4.49
			c-1.49,4.98-4.779,9.12-8.46,12.68C67.829,240.539,66.869,240.659,66.39,240.719z M68.67,273.148
			c-0.01-3.42-0.04-6.84-0.101-10.25c-0.05-2.699-0.069-5.391-0.079-8.09c-0.001-1.549-0.001-3.099-0.011-4.639
			c3.24-2.31,6.37-4.76,9.62-7.05c0.13,2.79,0.22,5.58,0.23,8.37c0.01,2.14,0.02,4.28,0.02,6.41c0.01,2.621,0.061,5.23,0.061,7.85
			c-0.03,2.102-0.091,4.211-0.261,6.32c-0.06,0.189-0.189,0.59-0.25,0.791c-1.56,5.568-4.52,10.84-9.279,14.279
			c0.069-0.98,0.14-1.939,0.21-2.91C68.779,280.529,68.66,276.838,68.67,273.148z M78.449,327.069
			c-1.061,4.76-4.011,8.779-7.16,12.41c-0.41,0.09-1.25,0.29-1.67,0.391c-0.07-14.352-0.29-28.691-0.17-43.041
			c3.399-2.289,6.54-4.938,9.18-8.09c0.26,4.471,0.25,8.95,0.67,13.42C78.849,310.45,80.299,318.899,78.449,327.069z M84.49,186.569
			c1.5-1.27,3-2.53,4.39-3.91c2.01-2.2,3.81-4.57,5.67-6.88c-0.03,5.92,0.3,11.86-0.07,17.78c0.05,7.66,0.44,15.35-0.02,23.01
			c-1.471,6.02-6.321,10.45-10.961,14.21c0.41-2.95,0.899-5.9,0.93-8.88C84.429,210.129,84.159,198.349,84.49,186.569z
			 M84.848,260.488c-0.1-3.771-0.17-7.529-0.22-11.299c-0.06-3.36-0.089-6.72-0.129-10.08c3.87-3.22,7.18-7.01,10.56-10.72
			c0.24,5.93,0.12,11.87-0.13,17.8c0.04,1.32,0.08,2.64,0.12,3.97c-0.49,1.51-1.15,2.98-1.92,4.39
			c-2.021,3.52-4.84,6.561-8.271,8.75C84.858,262.6,84.848,261.189,84.848,260.488z M95.33,300.21c-1.221,3.47-3.59,6.369-6.09,9.01
			c-0.61,0.511-1.23,1.021-1.86,1.529l-0.45,0.351c-0.33,0.25-1.01,0.762-1.35,1.012c-0.001-13.332-0.541-26.713,0.139-40.012
			c3.79-3.211,7.17-6.881,9.84-11.07c-0.02,2.82-0.04,5.641,0.13,8.46C95.389,279.719,96.5,290.04,95.33,300.21z M109.85,393.94
			c1.12-6.021,5.01-10.971,7.71-16.33c1.5-2.67,2.48-5.65,4.38-8.07c1.24,0.979,1.6,2.61,2.34,3.95
			c0.85-4.07,1.75-8.181,3.69-11.891c3.7-8.149,7.98-16.08,13.26-23.319c3.27-4.49,6.23-9.3,10.41-13.021
			c-1.17,5.88-3.49,11.45-4.87,17.28c-3.64,10.96-6.6,22.13-9.95,33.189c-2.23,9.08-5.58,17.971-11.13,25.57
			c5.94,1.93,12.58,2.42,18.6,0.601c-0.02,2.79-0.48,5.97,1.66,8.17c3.33,3.47,8.91,4.58,13.33,2.66
			c1.43-1.101,2.72-2.36,4.05-3.561c1.97,3.5,4.41,6.87,8.12,8.68c5.5,1.79,11.83-0.83,14.9-5.619c1.09,1.64,2.1,3.35,3.29,4.93
			c2.16,2.25,4.75,4,7.27,5.82c4.07-2.851,8.23-5.86,9.99-10.74c3.02,3.89,7.439,6.46,12.43,6.54c4.939-1.16,9.12-4.601,10.6-9.55
			c1.74,1.56,3.311,3.47,5.58,4.279c3.99,0.98,8.42,0.21,11.61-2.45c1.96-2.38,3.29-5.569,1.771-8.529
			c6.33,1.56,13.39,1.92,19.35-1.11c-9.27-10.93-10.36-25.86-15.03-38.9c-2.771-12.359-7.64-24.199-9.94-36.67
			c8.371,9.37,15.16,20.141,20.58,31.46c2.73,5.311,5.221,10.9,5.67,16.931c0.851-1.431,1.67-2.88,2.521-4.3
			c3.39,7.229,7.88,13.92,10.86,21.34c1.869,3.8,0.529,8.01-0.59,11.83c-1.471,4.6-4.371,8.54-7.521,12.14
			c-3.81,0.98-7.5,2.39-11.261,3.54c-19.299,4.95-39.119,8.39-59.079,8.44c-2.56,1.649-4.96,3.529-7.45,5.27
			c-2.52-1.74-4.92-3.64-7.47-5.34c-23.9-0.26-47.48-5.37-70.29-12.28C113.59,409.46,110.14,401.75,109.85,393.94z M152.77,331.84
			c0.71-2.3,1.4-4.6,1.96-6.939c0.7-5.62,6.1-9.46,11.17-10.881c-0.53,2.711-1.22,5.391-1.68,8.11l-0.5,0.79
			c-0.15,1.08-0.31,2.16-0.46,3.24c-1.62,5.62-2.59,11.399-4.04,17.06l-0.41-0.97c0.05,3.85-1.23,7.52-2.05,11.24
			c-2.76,12.49-5.48,24.99-8.31,37.47c-0.73,3.69-3.84,6.68-7.53,7.32c-2.52,0.25-5.04,0.02-7.56-0.08
			c3.61-5.54,4.84-12.101,6.45-18.4c2.04-7.31,3.97-14.649,6.05-21.95c1.47-5.229,2.72-10.51,4.29-15.699
			c0.57-2.37,1.26-4.71,2.01-7.021c0.18-0.72,0.54-2.16,0.72-2.88L152.77,331.84z M174.23,327.2c-1.3,8.03-2.57,16.069-3.94,24.09
			c-2.75,16.72-5.16,33.51-8.03,50.22c-0.78,1.87-1.65,3.91-3.47,5.01c-2.74,0.73-5.66,0.29-8.18-0.939
			c-0.23-0.67-0.68-2.01-0.9-2.68c1.27-4.96,2.84-9.851,3.79-14.881c3-15.029,6.29-29.989,9.38-44.989l0.23-0.94
			c0.11-0.51,0.34-1.51,0.45-2.01c0.66-3.53,1.35-7.04,2.1-10.54c1.08-5.42,2.17-10.84,3.61-16.18c2.48,0.13,4.97,0.37,7.4,0.89
			C175.71,318.54,174.99,322.87,174.23,327.2z M178.7,322.01c0.29-2.319,0.67-4.63,1-6.95c3.51,0.71,6.81,2.131,9.98,3.771
			c0.02,1.81,0.05,3.62,0.03,5.439c-0.15,9.33-1.1,18.62-1.39,27.95c-0.51,6.36-0.8,12.721-1.05,19.09
			c-0.82,8.86-0.94,17.761-1.92,26.62c-0.3,4.721-2.21,9.83-6.79,11.931c-2.97,1.569-6.31,0.26-8.77-1.61l-0.17-0.32
			c-2.47-3.46-2.7-7.819-1.99-11.88c1.44-8.569,2.61-17.18,3.94-25.76c1.3-9,2.67-18,4.01-26.99
			C176.58,336.2,177.68,329.11,178.7,322.01z M191.67,355.94c0.88-11.261,0.77-22.57,0.95-33.86c0.69,0.24,1.38,0.47,2.08,0.7
			c0.9,1.68,1.68,3.41,2.4,5.18c1.11-2.35,2.45-4.62,4.47-6.31c0.75,14.979,1.06,29.989,0.97,44.989
			c0.05,11.15,0.89,22.29,0.58,33.44c-0.19,5.33-1.32,11.92-6.93,14.15c-2.38-2.53-4.58-5.44-4.98-9
			C190.83,388.8,191.45,372.37,191.67,355.94z M229.12,332.15c2.12,8.39,3.43,16.96,5.229,25.42c0.57,3.109,1.11,6.22,1.84,9.29
			c1.871,9.42,3.65,18.87,5.561,28.279c1.12,3.19,2.43,6.54,1.811,9.99c-0.641,1.34-2.25,1.58-3.391,2.34
			c-4.04,0.82-8.061-1.63-8.52-5.85c-2.521-14.74-4.641-29.57-6.59-44.39c-1.371-6.73-2.551-13.57-2.871-20.431l-0.619-0.05
			c-0.801-7.5-2.311-14.89-3.37-22.35c2.38-0.42,4.771-0.71,7.18-0.851C226.939,319.65,228.391,325.96,229.12,332.15z M228.5,314.25
			c4.16,0.63,7.311,3.87,10.03,6.81c1.38,4.62,2.899,9.48,3.56,14.16c0.7,1.931,1.28,3.9,1.811,5.891
			c0.93,4.399,2.64,8.75,3.18,13.159c1.15,3.221,1.96,6.54,2.8,9.86c1.56,5.521,2.79,11.13,4.36,16.65
			c1.449,6.05,2.72,12.25,5.84,17.729c-3.859,0.05-8.609,1.11-11.641-1.97c-3.66-3.07-3.279-8.29-4.529-12.5
			c-0.33-1.65-0.631-3.29-1.03-4.92c-1.13-5.29-2.319-10.59-3.3-15.91c-1.391-5.66-2.59-11.36-3.8-17.06
			C233.3,335.53,231.33,324.78,228.5,314.25z M218.24,339.75c0.26,1.76,0.439,3.53,0.66,5.3c1.47,7.271,1.779,14.74,3.359,21.99
			l-0.15,0.59c0.281,2.101,0.531,4.22,1,6.3c0.281,4.75,1.361,9.4,1.75,14.141c0.641,4.949,2.15,9.92,1.48,14.949
			c-0.63,3.961-3.97,8.25-8.41,7.591c-5.699-0.221-9.06-6.351-9.289-11.5c-0.121-4.65-1.17-9.25-0.94-13.91
			c-0.44-10.351-1.591-20.681-1.229-31.05c-1.4-7.98-0.771-16.131-1.141-24.2c0.07-3.83-0.54-7.74,0.37-11.51
			c3.13-1.11,6.06-3.12,9.489-3.07c0.351,6.16,1.66,12.21,2.291,18.34C217.52,335.75,218.33,337.72,218.24,339.75z M288.66,398.11
			c0.779-0.9,1.6-1.771,2.439-2.61c1.03-0.37,2.061-0.74,3.09-1.1c0.531,0.43,1.58,1.3,2.11,1.739c0.3,3.33-0.1,6.811,1,10.021
			c1.56,4.46,3.9,9.01,3.21,13.87c-0.229,1.71-2.07,2.43-3.119,3.59c-1.551-0.41-3.9,0.35-4.701-1.5
			c-2.18-6.11,0.551-13.23-3.41-18.82c-1.389,2.141-2.699,4.34-4.149,6.44c-1.09,1.81-2.75,3.01-4.899,3.08
			C283.49,408.18,285.88,403.03,288.66,398.11z M321.439,401.78c1.08-0.17,2.16-0.33,3.24-0.49
			c7.989,5.854,16.33,11.209,24.38,16.973c1.15,0.823,2.294,1.654,3.431,2.497c-0.15,13.46-0.51,26.891-1.02,40.34
			c-3.591,1.851-7.131,3.78-10.771,5.54c-1.89,0.91-3.79,1.78-5.7,2.66c-10.43,4.98-21.141,9.37-32.12,12.98
			c-17.92,6.029-36.37,10.62-55.101,13.25c-14.5,2.26-29.149,3.229-43.799,3.84c-2.09-0.18-3.41,1.68-4.94,2.75
			c-2.98,3.5-5.52-1.561-8.33-2.61c-5.5-1.2-11.19-0.68-16.78-1.109c-8.76-0.71-17.48-1.79-26.2-2.881
			c-16.31-2.43-32.4-6.25-48.19-10.97c-14.74-4.59-29.11-10.38-42.95-17.21c-5.06-2.57-10.29-4.859-14.95-8.13
			c0.17-11.75-0.14-23.5-0.17-35.25c0.14-1.62-0.25-3.41,0.55-4.88c2.08-1.98,4.64-3.34,6.97-5c6.62-4.43,13.28-8.82,19.88-13.29
			c1.31-1.05,2.86-0.37,3.51,1.07c-1.03,4.12-3.66,8.739-1.11,12.85c2.35,3.26,5.4,6.2,9.11,7.85c0.07-0.979,0.2-2.939,0.27-3.92
			c1.98,1.801,3.81,3.75,5.66,5.69c1.04,0.81,2.14,1.51,3.22,2.26c-0.06-1.53-0.12-3.06-0.18-4.59c4.17,0.33,5.73,5.03,8.95,7.15
			c0.15-0.771,0.47-2.301,0.62-3.061c4.38-1.31,5.31-5.85,5.82-9.8c15.31,6.31,31.38,10.67,47.62,13.84
			c11.42,2.32,23.04,3.41,34.66,4.11c4.21-0.07,6.49,4.34,10.19,5.39c3.511-1.32,5.62-5.67,9.81-5.28
			c15.681-0.67,31.25-2.909,46.601-6.17c11.25-2.949,22.54-5.859,33.39-10.109c0.57-0.21,1.71-0.641,2.28-0.86
			c-0.29,4.021,1.25,7.98,5.13,9.65c0.08,0.67,0.23,2.01,0.3,2.68c1.54-0.76,3.22-1.44,4.271-2.87c1.21-2.189,2.96-4.36,5.76-3.31
			c-0.43,1.27-0.859,2.55-1.27,3.84c3.959-1.3,6.119-5.09,9.299-7.51c0.271,1.26,0.541,2.52,0.811,3.79
			c0.2-0.021,0.61-0.061,0.82-0.08c3.35-3.5,8.84-5.96,9.14-11.42C323.359,408.5,321.96,405.21,321.439,401.78z M305.21,393.22
			c0.91,1.11,2.34,2.061,2.2,3.681c0.33,5.14,0.39,10.359,1.63,15.38c0.17,1.25,1.5,1.239,2.399,1.55
			c-0.539-4.71-0.199-9.46,0.761-14.09c-0.7,0.609-2.091,1.819-2.79,2.43c0.32-5.27,3.65-12.26,9.88-11.689
			c0.31,3.35,0.34,6.71,0.239,10.069c-0.039,0.391-0.119,1.16-0.17,1.55c0.16,4.15,3.211,8.46,0.98,12.471
			c-1.85,3.37-7.689,3.97-8.609-0.57c-0.971,3.16-2.4,6.8-6.33,6.72c-1.721-2.05-2.86-4.5-3.101-7.17
			c0.11-3.6,0.25-7.189,0.16-10.78c-1.649,0.521-2.46,1.91-2.92,3.511l-0.58,0.689c0.03-2.56,0.01-5.12,0.181-7.67
			C300.08,396.35,302.59,394.57,305.21,393.22z M293.971,379.07c0.359,2.069,2.139,3.42,3.379,4.989
			c0.65,3.32,1.711,6.551,2.391,9.86c-1.891-0.61-3.54-1.86-5.48-2.28c-1.9,0.08-3.47,1.33-4.92,2.41c-0.34,0.25-1.02,0.75-1.35,1
			c-0.381-0.79-1.141-2.38-1.52-3.17c-1.561-2.24-2.181-4.86-2.621-7.5c-0.289-2.36-2.449-3.689-3.899-5.32
			c-2.851-2.56-2.431-6.77-4.04-9.989c-1.34-2.59-1.84-5.45-1.76-8.34c2.229,2.489,4.51,4.93,6.979,7.189
			c0.54-4.85,1.32-9.68,1.3-14.56c2.51,2.46,5.07,5.02,6.57,8.25c1.18,3.38,1.01,7.21,3.01,10.31
			C293.391,374.06,293.48,376.64,293.971,379.07z M309.42,314.14c-0.34-0.25-1.02-0.76-1.35-1.01l-0.45-0.35
			c-0.63-0.511-1.25-1.021-1.86-1.53c-2.5-2.64-4.869-5.54-6.09-9.01c-1.17-10.17-0.061-20.49-0.359-30.721
			c0.17-2.819,0.149-5.64,0.129-8.459c2.67,4.189,6.051,7.859,9.84,11.069C309.96,287.43,309.42,300.811,309.42,314.14z
			 M310.37,251.22c-0.05,3.77-0.12,7.53-0.22,11.299c0,0.701-0.01,2.11-0.01,2.811c-3.431-2.189-6.25-5.23-8.271-8.75
			c-0.771-1.41-1.431-2.88-1.92-4.39c0.04-1.33,0.079-2.65,0.12-3.97c-0.25-5.93-0.37-11.87-0.131-17.8
			c3.381,3.71,6.69,7.5,10.561,10.72C310.46,244.5,310.43,247.86,310.37,251.22z M300.54,218.6c-0.46-7.66-0.069-15.35-0.021-23.01
			c-0.369-5.92-0.039-11.86-0.069-17.78c1.86,2.31,3.659,4.68,5.67,6.88c1.39,1.38,2.89,2.64,4.39,3.91
			c0.33,11.78,0.061,23.56,0.061,35.33c0.029,2.98,0.52,5.93,0.93,8.88C306.859,229.05,302.01,224.62,300.54,218.6z M325.38,341.9
			c-0.42-0.101-1.26-0.301-1.67-0.391c-3.149-3.63-6.101-7.649-7.16-12.41c-1.85-8.17-0.399-16.619-0.85-24.91
			c0.42-4.469,0.409-8.949,0.67-13.42c2.64,3.15,5.78,5.801,9.18,8.09C325.67,313.21,325.45,327.55,325.38,341.9z M326.51,256.84
			c-0.01,2.7-0.029,5.391-0.08,8.09c-0.06,3.41-0.09,6.83-0.1,10.25c0.01,3.69-0.109,7.381-0.16,11.08
			c0.07,0.971,0.141,1.93,0.21,2.91c-4.76-3.439-7.72-8.71-9.28-14.279c-0.06-0.201-0.189-0.601-0.25-0.791
			c-0.17-2.109-0.229-4.22-0.26-6.319c0-2.62,0.051-5.23,0.061-7.851c0-2.13,0.01-4.27,0.02-6.41c0.01-2.79,0.1-5.58,0.23-8.37
			c3.25,2.29,6.38,4.74,9.619,7.05C326.51,253.74,326.51,255.29,326.51,256.84z M326.689,242.5c-3.68-3.56-6.969-7.7-8.459-12.68
			c-0.371-1.48-0.65-2.98-0.84-4.49c-0.681-4.08-0.67-8.24-0.4-12.36c0.439-6.74,0.32-13.51,0.48-20.26
			c3.09,2.82,6.129,5.71,9.6,8.08c0.729,12.25-0.09,24.57,0.09,36.85c0.46,1.7,0.949,3.41,1.449,5.11
			C328.13,242.69,327.17,242.57,326.689,242.5z M343.68,343.44c0,8.13-0.05,16.26-0.26,24.39c-5.72-3.75-9.73-9.64-11.27-16.29
			c-0.721-5.14-0.45-10.34-0.36-15.51c0.819-10.17,0.489-20.38,0.66-30.57c0.26,0.28,0.79,0.83,1.05,1.11
			c2.971,3.33,6.57,6.02,10.391,8.31l0.469-0.149C344.09,324.3,344.859,333.93,343.68,343.44z M344.71,273.63
			c-0.01,1.5-0.021,3-0.021,4.511c-0.02,1.569,0,3.139,0.011,4.719v1.11c-0.21,7.101-0.04,14.19-0.11,21.29
			c-0.26-0.16-0.76-0.47-1.01-0.619c-3.891-2.24-6.5-6.031-8.52-9.931c-0.07-0.149-0.211-0.47-0.281-0.63
			c-3.029-5.84-2.229-12.51-2.18-18.83c0.07-3.12,0.141-6.23,0.131-9.35c-0.011-3.391-0.08-6.78-0.25-10.17
			c4.869,0.93,9.17,3.86,12.609,7.29C345.65,266.55,344.99,270.109,344.71,273.63z M334.67,239.48c-1.67-6.22-1.1-12.68-1.01-19.04
			c-0.04-1.24-0.061-2.49-0.07-3.73c0-4.17,0.131-8.33,0.18-12.49c0.49,0.12,1.471,0.36,1.951,0.48c0.629,0.23,1.889,0.68,2.52,0.91
			c1.14,0.51,2.22,1.14,3.3,1.78c0.88,0.54,1.78,1.09,2.66,1.67l1.04,0.76l0.189,0.3c0.37,11.27,0.11,22.55,0.11,33.83
			c-0.011,3.15,0.59,6.25,1.13,9.34C341.02,250.44,337.17,245.15,334.67,239.48z M361.66,389.5c-4.74-3.72-8.95-8.42-10.561-14.37
			l-0.279-0.91c-1.86-5.97-0.44-12.18-0.53-18.279c0.08-10.721,0.21-21.44,0.16-32.16c0.319,0.239,0.97,0.71,1.3,0.939
			c3.24,3.58,7.26,6.351,11.641,8.34c0.369,10.33-0.08,20.66-0.08,30.98c0.02,2.78-0.33,5.55-0.66,8.31
			c0.33,5.801-0.851,11.79,0.979,17.431C363.141,389.71,362.15,389.57,361.66,389.5z M354.8,314.87
			c-0.55-1.22-1.149-2.41-1.729-3.601c-1.801-5-1.811-10.35-1.59-15.58c-0.021-1.729,0.02-3.449,0.049-5.17
			c0.031-2.14,0.061-4.279,0.091-6.41c0.05-3.049,0.1-6.109,0.04-9.159c-0.01-0.9-0.04-2.72-0.061-3.63c0-1.92,0.03-3.85,0.09-5.771
			c4.65,2.32,8.19,6.29,12.771,8.761c0.069,2.27,0.149,4.549,0.2,6.83c0,2.18-0.08,4.359-0.18,6.539l-0.11,0.84
			c-0.2,1.311-0.41,2.631-0.62,3.94c0.04,2.899,0.02,5.81-0.09,8.71l-0.02,0.52c-0.091,6.11,0.029,12.23,0.02,18.341
			c0.23-0.771,0.46-1.53,0.68-2.3c0.09,2.149,0.28,4.31,0.42,6.46C360.6,322.13,357.34,318.7,354.8,314.87z M354.04,252.1
			c-2.55-5.91-1.729-12.5-1.53-18.74c-0.289-6.66,0.221-13.32,0-19.98c0.16-0.06,0.48-0.17,0.631-0.23
			c3.739,3.15,7.399,6.47,11.819,8.69c0.72,1.61,0.59,3.42,0.58,5.15c-0.37,10.21-0.11,20.43-0.42,30.64
			c0.06,0.42,0.17,1.261,0.229,1.681c0.221,1.939,0.61,3.859,0.99,5.779C360.7,262.63,356.311,257.77,354.04,252.1z M369.189,414.03
			c0.431-18.8-0.109-37.641,0.621-56.42c-0.271-4.57-0.17-9.15,0.049-13.721c0.5-2.81,0.451-5.68,0.711-8.51
			c0.34,0.48,1.02,1.45,1.359,1.93c3.271,2.921,6.711,5.681,10.68,7.61c0.021,1.94,0.051,3.88,0.051,5.83
			c-0.189,10.1-0.051,20.21-0.36,30.31c-0.149,0.511-0.44,1.551-0.59,2.061l0.53,0.79c-0.74,13.34-0.57,26.729-0.77,40.09
			c-0.24,3.67,0.979,7.14,1.869,10.64C376.01,430.39,368.41,423.26,369.189,414.03z M371.15,321.27
			c-0.371-2.409-0.471-4.84-0.471-7.26c0.01-3.58,0.07-7.149,0.061-10.72c-0.021-2.8-0.021-5.601-0.01-8.399
			c0.01-2.221,0.02-4.431,0.01-6.641c-0.04-3.6-0.07-7.21-0.051-10.82c0.551-0.02,1.66-0.06,2.211-0.09c1.72,1.53,3.49,3,5.39,4.311
			c1.79,1.199,3.62,2.359,5.46,3.51c0.01,2.59,0.029,5.17-0.02,7.76c-0.061,1.93-0.121,3.859-0.15,5.801
			c-0.04,2.51-0.02,5.029-0.04,7.549c-0.08,7.66-0.021,15.32-0.22,22.99c0.529,2.561,1.189,5.101,1.939,7.62
			C378.971,333.42,373.6,328.13,371.15,321.27z M377.6,270.3c-3.899-5.05-6.439-11.34-5.99-17.8c-0.029-4-0.039-8,0.181-12
			c-0.05-5.11,0.08-10.22-0.011-15.32c4.99,1.1,7.871,6.13,12.711,7.8c0.39,11.32-0.23,22.66-0.061,33.991
			c-0.01,3.449,1.08,6.77,2.041,10.049C383.25,275.15,380.141,273.04,377.6,270.3z M376.618,212.85c-5.479-12.68,0-26.88-3.62-39.95
			c-1.23-2.86-2.92-5.49-5.16-7.66c0.11,2.45,0.28,4.9,0.34,7.36c-0.16,13.44-1.97,26.95,0.271,40.32
			c-0.29-0.07-0.88-0.2-1.171-0.27c-7.18-4.19-11.579-11.8-12.819-19.89c-0.021-8.28-0.181-16.62-2.13-24.72
			c-0.7-2.91-1.65-5.77-2.99-8.44c-0.3-0.01-0.9-0.01-1.199-0.02c0.43,12.74-0.881,25.53,0.299,38.23
			c0.19,1.19,0.41,2.36,0.621,3.55c-1.701-0.94-3.341-2.02-4.75-3.36c-4.851-4.98-6.961-11.74-8.99-18.2
			c-1.74-7.78-2.601-15.74-4.521-23.48c-0.2-0.97-0.909-1.69-1.479-2.45c-0.25,9.19-0.11,18.38-0.101,27.57
			c0.04,1.47,0.28,2.92,0.511,4.38c0.289,1.82,0.549,3.65,0.779,5.49c-0.57-0.46-1.72-1.37-2.3-1.82c-2.47-2.19-4.55-4.76-6.56-7.36
			c-2.48-4.37-4.32-9.08-5.371-14c-1.469-5.69-1.34-11.64-2.729-17.35c-1.85,6.3-1.8,12.91-1.62,19.41
			c0.131,3.43,0.801,6.81,1.51,10.16l-1.029-0.5c-2.891-2.8-5.29-6.05-7.24-9.56c-2.189-4.04-3.7-8.43-4.689-12.91
			c-0.44-3.48-0.551-6.99-0.711-10.49c-0.33,0.02-1.01,0.05-1.35,0.07c-0.82,6.13-2.15,12.51-0.391,18.61
			c0.98,3.55,1.421,7.22,1.16,10.9c-0.129,3-0.189,6.01-0.239,9.02c0.35,14.69-1.341,29.35-0.63,44.04
			c-0.49,15.54-0.26,31.09-0.601,46.63c-8.1-6.189-11.649-17.12-10.38-27.05c0.71-5.11,1.561-10.21,2.16-15.33
			c1.561-15.63,2.35-31.45,0.73-47.1c-0.291-3.02-0.48-6.05-0.791-9.07c-1.16-6.18-1.75-12.48-3.569-18.52
			c-0.99-3.32-1.91-6.65-2.64-10.03c0.17,6.22,1.459,12.35,1.68,18.56c1.109,11.99,1.66,24.09,0.39,36.08
			c-0.38,3.65-0.54,7.31-1,10.95c-0.111,1.094-0.225,2.188-0.341,3.281l1.236,0.837l-1.327,0.044
			c-0.159,1.473-0.328,2.945-0.519,4.418c-0.43,3.08-0.789,6.17-1.22,9.25c-1.16,6.96-2.39,13.92-3.5,20.89
			c-0.142,0.542-0.252,1.087-0.365,1.633c0.913,0,1.824-0.003,2.737-0.003c-0.913,0-1.824,0.002-2.737,0.003
			c-0.014,0.067-0.031,0.135-0.045,0.202c-0.636,0-1.271,0.002-1.905,0.003c-1.198,6.205-0.969,12.587-0.933,18.881
			c0.931,6.551,1.42,13.16,2.31,19.721c0.23,1.399,0.431,2.81,0.65,4.219c1.58,9.001,3.71,17.881,5.54,26.831
			c0.05,0.229,0.16,0.67,0.22,0.89c1.45,5.71,3.07,11.38,4.48,17.1c0.73,2.19,1.39,4.41,1.949,6.66
			c-3.029-1.89-6.06-3.78-9.109-5.63c-0.43-0.25-1.279-0.75-1.71-1.01c-0.26-0.13-0.76-0.391-1.021-0.521
			c-0.42,0.25-1.25,0.761-1.67,1.021c0.41,4.149,1.101,8.28,1.201,12.46c-2.58-3.24-4.931-6.65-7.351-10
			c-0.979-1.42-1.83-2.92-2.601-4.44c-0.049,1.55-0.01,3.11,0.07,4.681c0.12,1.29,0.25,2.58,0.35,3.88
			c0.44,2.89,0.291,5.83-0.58,8.63c-1.1-2.74-2.08-5.521-2.979-8.33c-3.56-7.96-6.63-16.18-11.33-23.59
			c-4.81-8.181-11.12-16.141-20.13-19.87c-12.21-5.479-28.061-2.07-36.48,8.46c-5.45-7.22-14.6-10.82-23.43-11.24
			c-10.13-0.5-19.82,4.73-26.34,12.25c-8.91,10.521-14.43,23.32-19.51,36c-0.55,1.45-1.17,2.87-1.89,4.25
			c-0.2,0.311-0.58,0.94-0.78,1.26c-0.3-5.329-0.42-10.76,0.98-15.96c-0.2-0.279-0.39-0.569-0.57-0.85
			c-1.52,2.64-3.21,5.18-5.04,7.62c-1.28-1.32-2.62-2.561-4.06-3.69c0.2-1.62,0.47-3.22,0.78-4.81c-1.63,1.13-3.28,2.22-4.99,3.229
			c-1.3-0.729-2.63-1.409-3.8-2.34c0.45-2.39,0.66-4.83-0.98-6.859c0.11-0.351,0.32-1.061,0.42-1.41
			c1.41-5.72,1.069-3.271,2.519-8.98c0.06-0.221,0.17-0.661,0.22-0.891c1.83-8.949,3.96-17.83,5.54-26.83
			c0.219-1.41,0.42-2.821,0.649-4.22c0.891-6.561,1.381-13.17,2.311-19.721c0.035-6.332,0.273-12.756-0.949-18.995
			c-0.424-0.022-0.846-0.041-1.27-0.063c0.424,0.023,0.846,0.041,1.27,0.063c-0.026-0.134-0.043-0.27-0.071-0.403
			c0.562,0.03,1.122,0.054,1.683,0.083c-0.098-0.469-0.192-0.938-0.314-1.404c-1.11-6.97-2.34-13.93-3.5-20.89
			c-0.43-3.08-0.79-6.17-1.22-9.25c-0.206-1.59-0.385-3.181-0.555-4.771l-5.419-0.696l5.06-2.767
			c-0.012-0.115-0.024-0.23-0.036-0.346c-0.46-3.64-0.62-7.3-1-10.95c-1.27-11.99-0.719-24.09,0.39-36.08
			c0.108-3.046-1.388-6.074-2.919-9.102c-0.062,0.125-0.134,0.251-0.171,0.376c-1.819,6.04-2.41,12.34-3.569,18.52
			c-0.311,3.02-0.5,6.05-0.79,9.07c-1.621,15.65-0.831,31.47,0.729,47.1c0.6,5.12,1.45,10.22,2.16,15.33
			c1.269,9.931-2.28,20.86-10.38,27.05c-0.34-15.539-0.111-31.09-0.601-46.629c0.711-14.69-0.98-29.35-0.63-44.04
			c-0.05-3.01-0.109-6.02-0.239-9.02c-0.261-3.68,0.18-7.35,1.159-10.9c1.76-6.1,0.43-12.48-0.39-18.61
			c-0.34-0.02-1.02-0.05-1.35-0.07c-0.16,3.5-0.271,7.01-0.71,10.49c-0.99,4.48-2.5,8.87-4.69,12.91
			c-1.95,3.51-4.349,6.76-7.24,9.56l-1.029,0.5c0.71-3.35,1.38-6.73,1.51-10.16c0.18-6.5,0.23-13.11-1.62-19.41
			c-1.389,5.71-1.259,11.66-2.73,17.35c-1.05,4.92-2.89,9.63-5.369,14c-2.011,2.6-4.091,5.17-6.561,7.36
			c-0.58,0.45-1.73,1.36-2.3,1.82c0.23-1.84,0.49-3.67,0.78-5.49c0.23-1.46,0.47-2.91,0.51-4.38c0.009-9.19,0.149-18.38-0.101-27.57
			c-0.569,0.76-1.279,1.48-1.479,2.45c-1.92,7.74-2.781,15.7-4.521,23.48c-2.029,6.46-4.138,13.22-8.989,18.2
			c-1.41,1.34-3.05,2.42-4.75,3.36c0.21-1.19,0.431-2.36,0.62-3.55c1.18-12.7-0.131-25.49,0.3-38.23c-0.3,0.01-0.899,0.01-1.2,0.02
			c-1.34,2.67-2.289,5.53-2.99,8.44c-1.949,8.1-2.109,16.44-2.129,24.72c-1.24,8.09-5.64,15.7-12.82,19.89
			c-0.291,0.07-0.881,0.2-1.17,0.27c2.241-13.37,0.43-26.88,0.27-40.32c0.061-2.46,0.231-4.91,0.34-7.36
			c-2.24,2.17-3.93,4.8-5.16,7.66c-3.619,13.07,1.86,27.27-3.619,39.95c-2.471,5.45-7.181,9.49-12.42,12.18
			c0.879-2.55,1.869-5.13,1.959-7.86c0.48-25-1.25-49.97-0.93-74.97c0.361-4.95,2.24-9.63,4.301-14.09
			c6.609-13.66,17.26-24.71,26.909-36.22c4.96-5.5,11.33-11.16,19.22-10.92c7.33,0.56,13.37,5.17,19.59,8.62
			c5.761,3.54,11.96,6.36,18.511,8.09l0.79,0.2c9.179,2.22,27.948,3.859,37.272,4.333c4.03-0.272,7.774-0.733,9.278-1.472
			l0.28-0.005c6.71-1.43,12.29-5.61,17.59-9.74c4.08-3.43,7.93-7.33,10.28-12.18c0.96-2.09,1.82-4.23,2.47-6.43
			c1.03-5.34,1-10.93-0.23-16.23c-1.75-6.07-6.03-10.93-11.61-13.8c-1.186-0.422-2.374-0.893-3.569-1.352
			c-5.367-5.131-7.572-13.619-7.481-21.714c2.748-2.735,6.216-4.662,9.731-6.274c3.4-1.61,6.93-2.97,10.57-3.95
			c16.1-4.28,35.06,0.19,45.601,13.61c-5.4-2.49-11.24-4.1-17.181-4.46c0.931,0.26,1.87,0.51,2.81,0.74l-0.069,0.74
			c0.54,0.24,1.62,0.72,2.159,0.96c12.66,5.82,22.591,16.6,29.121,28.76c1.619,3.36,3.369,6.67,5.05,10
			c2.56,5.22,5.1,10.45,7.521,15.74c1.35,3.02,2.949,5.96,5.079,8.51c4.75,5.25,9.16,11.22,15.71,14.35
			c9.57,4.7,20.76,4.55,30.93,2.09l0.791-0.2c6.549-1.73,12.75-4.55,18.51-8.09c6.22-3.45,12.26-8.06,19.59-8.62
			c7.891-0.24,14.26,5.42,19.22,10.92c9.65,11.51,20.3,22.56,26.91,36.22c2.06,4.46,3.94,9.14,4.3,14.09
			c0.32,25-1.41,49.97-0.93,74.97c0.089,2.73,1.08,5.31,1.958,7.86C383.798,222.34,379.088,218.3,376.618,212.85z"/>
		<path d="M74.261,414.239c-1.258-1.569-1.514-3.241-1.342-4.964c-0.255,1.818-0.171,3.641,1.059,5.077
			c1.938,2.266,5.363,2.645,7.474,0.967C79.026,416.426,75.975,416.691,74.261,414.239z"/>
		<path d="M83.159,390.238c-0.275-0.05-0.421-0.275-0.44-0.502c-1.608-0.14-3.218-0.252-4.833-0.293
			c-0.062-0.085-0.143-0.156-0.254-0.178c-0.516-0.099-1.06-0.198-1.537-0.117c-0.193-0.23-0.623-0.309-0.861,0.014
			c-0.46,0.622-0.747,1.141-0.967,1.87c-0.033,0.107-0.02,0.215,0.021,0.311c-0.829,2.148,0.15,5.519,0.211,7.406
			c0.045,1.4,0.119,2.779-0.028,4.153c0.316-1.327,0.504-2.648,0.33-3.943c-0.45-3.26-0.58-6.55,0.4-9.729
			c4.2-0.29,6.59,3.31,8.51,6.439c0.4,0.479,1.2,1.449,1.6,1.93c0.48-1.199,0.96-2.391,1.43-3.58c-0.52-0.569-1.02-1.149-1.51-1.72
			c-0.367-0.479-0.717-0.98-1.071-1.48c-0.256-0.067-0.509-0.152-0.757-0.266C83.244,390.482,83.177,390.364,83.159,390.238z"/>
		<path d="M84.761,400.84c-0.9-0.66-1.81-1.301-2.73-1.931c0.977,5.3,1.773,10.871-0.186,16.053c0.372-0.376,0.695-0.82,0.935-1.354
			c1.906-4.24,0.268-9.282,0.073-13.688c3.133,0.672,2.466,4.405,2.166,6.74c-0.077,0.601-0.083,1.254-0.089,1.916
			C85.653,405.904,86.322,403.22,84.761,400.84z"/>
		<path d="M95.691,406.189c-1.37-1.29-2.54-2.761-3.57-4.32c0.07,5.101,0.24,10.32-1.38,15.24c-0.324,0.55-0.941,1.648-1.267,2.22
			c1.03,0.168,2.063,0.296,3.122,0.297c0.077-1.585,0.128-3.16,0.254-4.726c1.29-4.471,3.64-8.711,3.74-13.44
			c0.192-2.527,0.286-5.453,2.146-7.278c-0.603-0.691-1.447-1.223-2.616-1.532c-0.199-0.053-0.393-0.111-0.588-0.169
			c-0.464,0.208-0.932,0.404-1.412,0.569c0.057-0.319,0.124-0.636,0.185-0.954c-1.833-0.616-3.579-1.326-5.519-1.688
			c-0.102,0.176-0.292,0.306-0.544,0.261c-0.136-0.024-0.27-0.062-0.404-0.097c-0.028,0.224-0.176,0.437-0.463,0.458
			c-0.148,0.011-0.296,0.014-0.444,0.021c-0.027,0.007-0.056,0.005-0.083,0.011c1.628,0.699,3.265,1.397,4.763,2.367
			C95.401,396.529,96.211,401.559,95.691,406.189z"/>
		<path d="M84.931,418.569c-1.86-1.25-1.09-3.811-0.88-5.649c0.067-1.401,0.477-2.858,0.872-4.319
			c-0.195,0.016-0.375,0.121-0.406,0.35c-0.189,1.38-0.799,2.667-0.853,4.051c-0.369,1.546-0.617,3.098-0.126,4.406
			c0.19,0.507,0.616,0.818,1.13,1.039c0.729,1.307,1.583,1.494,2.807,0.979C86.527,419.451,85.613,419.352,84.931,418.569z"/>
		<path d="M284.01,446.93c-0.869-2.029-0.66-4.22-0.3-6.319c-2.13-1.03-4.29-1.99-6.54-2.69c2.73,10.68,5.88,21.26,8.609,31.95
			c1.66-0.311,3.41-0.51,4.841-1.51C287.84,461.42,286.38,454.02,284.01,446.93z"/>
		<path d="M272.279,459.12c3.33,1.87,3.201,5.99,4.261,9.21c-7.069,1.91-14.28,3.32-21.511,4.47c-1.049-0.63-2.109-1.26-3.159-1.87
			c2.22-3.979,4.649-8.26,3.399-13c-1.02,2.71-1.699,5.61-3.41,8c-1.92,2.45-4.81,3.87-7.67,4.91c3.461,2.11,6.66,5.38,10.781,5.95
			c9.039-1.29,17.939-3.56,26.84-5.64c-1.431-6.091-3.09-12.12-4.681-18.17C275.49,455.01,273.91,457.08,272.279,459.12z"/>
		<path d="M192.35,467.33c-0.03-0.61-0.1-1.82-0.14-2.43c-2.13,1.58-4.21,3.229-6.24,4.96c0.55,0.7,1.11,1.41,1.66,2.12
			c-0.09,1.869-0.17,3.75-0.24,5.63c-1.33-0.08-2.66-0.16-3.99-0.23c0.21-4.21,0.39-8.43,0.27-12.64
			c-2.05,1.57-4.13,3.109-6.27,4.56c0.7,0.83,1.39,1.65,2.08,2.49c-0.31,1.87-0.63,3.74-0.94,5.61c-2.08-0.341-4.15-0.67-6.22-0.99
			c0.65-9.83,2.12-19.62,2.25-29.48c-1.8,1.33-3.58,2.69-5.37,4.03c0.89,5.37,0.31,10.85-0.82,16.14
			c-3.29,1.391-7.69,2.19-8.94,6.07c-0.46,2.03-0.87,4.07-1.3,6.11c11.15,0.59,22.37,2.7,33.5,2
			C192.67,476.7,192.19,471.98,192.35,467.33z M167.47,475.93c-1.1-0.149-2.2-0.29-3.31-0.43c0.15-0.98,0.3-1.96,0.45-2.93
			c1.3-0.03,2.59-0.07,3.89-0.09C168.24,473.34,167.73,475.07,167.47,475.93z"/>
		<path d="M229.24,446.57c-1.61,1.77-3.24,3.529-4.881,5.27c0.801,1.3,2.061,2.5,1.99,4.15c0.45,6.83,1.25,13.63,1.561,20.47
			c-3.58,0.22-7.16,0.61-10.73,0.96c1.75-4.05,3.73-8,5.721-11.92c-2.99,0.17-5.66-0.9-8.061-2.59c-2.279-1.38-4.01,1.42-5.51,2.7
			c-1.43-0.011-2.85-0.011-4.26-0.011c0.81,4.521,4.31,7.811,6.14,11.9c-3.54,0.08-7.08,0.09-10.62,0.08
			c0.061-3.66,0.051-7.311-0.01-10.96c-1.35,1.13-2.68,2.28-4.04,3.41c-0.57,0.479-1.72,1.43-2.3,1.91
			c0.52,0.5,1.56,1.489,2.08,1.989c-0.13,3.63,0.44,7.42-0.81,10.91c-1.12,2.7-4.35,1.42-6.59,1.7l-0.59,0.43
			c3.8,2.59,9.16,2.561,12.18-1.2c0.051-1.369,0.1-2.739,0.16-4.1c9.051-0.12,18.09-0.37,27.09-1.26c1.65-0.09,3.311-0.14,4.971-0.2
			c-0.021-9.42-2.011-18.7-2.311-28.1C230.21,450.23,229.73,448.39,229.24,446.57z M214.8,472.82c-0.55-0.15-1.659-0.431-2.21-0.57
			c-0.25-1.84-0.38-3.73,1.21-4.99c0.44,0.391,1.32,1.19,1.761,1.59C215.49,470.2,215.18,471.51,214.8,472.82z"/>
		<path d="M239.77,450.82c-1.84-1.96-4.199-3.29-6.359-4.84c0.51,10.81,2.619,21.489,3.29,32.279c0.909,2.271,3.399,0.721,5.05,0.32
			c-1.15-8.82-2.779-17.66-3.2-26.521L239.77,450.82z"/>
		<path d="M327.939,441.61c-2.159-1.07-2.879-3.48-3.799-5.5c-1.711-4.15-3.711-8.181-5.19-12.42c-0.29-0.021-0.88-0.061-1.17-0.091
			c-0.99,2.48-2.05,4.931-3.25,7.32c1.229,0.58,2.899,0.79,3.44,2.26c1.75,3.63,3.06,7.46,4.939,11.04
			c1.35,0.42,2.699,0.851,4.061,1.29c-0.5,0.851-1.011,1.7-1.511,2.561c-0.03,0.859-0.101,2.569-0.13,3.43
			c0.949,1.34,1.76,2.78,2.59,4.21c4.1-1.79,8.2-3.58,12.189-5.6c-1.01-2.12-2.02-4.24-3.02-6.36c-1.279-0.2-2.56-0.39-3.83-0.58
			c0.26-1.51,0.74-2.979,1.391-4.37c-1.53-5.09-6.09-9.439-5.041-15.069c-2.709-0.83-5.43-1.631-8.159-2.37
			c2.69,5.18,4.979,10.55,7.53,15.79C329.78,438.57,330.061,441.21,327.939,441.61z M330.79,446.52
			c0.97,0.211,1.95,0.431,2.931,0.65c-0.07,0.53-0.211,1.59-0.281,2.12c-1.16,0.19-2.31,0.38-3.469,0.58
			C330.24,448.75,330.51,447.63,330.79,446.52z"/>
		<path d="M343.99,448.73c0.15-0.23,0.46-0.7,0.619-0.931c1.121-0.47,2.25-0.93,3.371-1.399c-3.28-7.7-7.53-14.971-11.211-22.49
			c-0.879-1.28-0.26-2.84-0.27-4.24c-2.5-0.29-4.9-1.08-7.18-2.11c0.199,3.221,2.439,5.71,3.64,8.591
			C336.46,433.76,340.58,441.08,343.99,448.73z"/>
		<path d="M312.721,448.21c-1.41,2.51-2.721,5.08-4.07,7.63c0.289,1.061,0.59,2.15,0.85,3.24c-1.279,0.17-2.561,0.35-3.83,0.55
			c-2.27-6.56-4.609-13.09-6.82-19.66c-0.629-1.399,0.08-2.819,0.41-4.18c-1.66-0.63-3.32-1.28-4.97-1.92
			c-0.71-0.28-1.42-0.54-2.13-0.79c1.199,5.03,3.26,9.81,4.619,14.8c2.051,5.68,3.761,11.47,5.921,17.11
			c3.86-1.24,7.69-2.57,11.53-3.87c3.209-1.23,6.379-2.55,9.539-3.9c-0.899-2.109-1.81-4.21-2.72-6.31
			C318.279,449.98,315.51,449.05,312.721,448.21z M313.189,456.76c0.561-1.2,1.141-2.39,1.73-3.569c0.58,0.17,1.75,0.529,2.33,0.699
			c0.141,0.42,0.42,1.271,0.561,1.69C316.311,456.1,314.77,456.52,313.189,456.76z"/>
		<path d="M290.02,458.65c2.78,2.43,3.311,6.22,4.32,9.569c0.65,1.851,0.45,4.13-1.39,5.24c-1.99,0.48-4.05,0.271-6.06,0.24
			c1.59,0.68,3.17,1.399,4.67,2.29c3.399-0.351,7.189-2.221,7.89-5.87c-0.979-6.32-3.81-12.16-5.36-18.34
			C292.7,454.05,291.23,456.27,290.02,458.65z"/>
		<path d="M64.11,423.2c0.43-1.19,0.27-2.34-0.47-3.44c2.2,0.28,2.78-1.25,3.03-2.96c-0.54-0.33-1.62-0.99-2.16-1.319
			c-0.52,0.029-1.54,0.079-2.06,0.109c0.04,1.25,0.09,2.5,0.15,3.75c-2.76-0.32-2.64,2.45-1.9,4.25
			C61.55,423.49,63.26,423.29,64.11,423.2z"/>
		<path d="M264.26,457.49c1.4-0.2,3.24,0.7,4.311-0.57c0.05-0.62,0.16-1.87,0.209-2.5c-0.729-0.08-2.18-0.24-2.899-0.32
			c-0.37,0.391-1.11,1.181-1.489,1.58c-2.361-0.819-5.681-0.729-4.98,2.73C261.109,458.7,262.91,458.77,264.26,457.49z"/>
		<path d="M182.06,485.9c0.54,0.979,0.86,2.18,1.85,2.85c1.14-0.28,2.27-0.62,3.38-1.02c-0.62-1.171-1.24-2.33-1.88-3.471
			C184.58,484.67,182.9,485.49,182.06,485.9z"/>
		<path d="M154.42,445.49c-0.42-0.061-1.25-0.17-1.67-0.23c-1.22,10.76-3.58,21.37-4.77,32.141c1.43,0.369,2.85,0.75,4.28,1.14
			c1-5.88,1.86-11.771,2.63-17.68c0.43-3.11,0.99-6.2,1.56-9.28c0.45-0.33,1.37-0.99,1.83-1.33
			C156.97,448.68,155.68,447.09,154.42,445.49z"/>
		<path d="M66.38,422.52c0.27,0.391,0.81,1.16,1.09,1.551c-2.14,4.52-3.94,9.25-6.9,13.319c-3.04-0.62-6.66-1.35-9.2,0.94
			c-1.75,1.91-2.7,4.55-5.08,5.86c4.6,2.17,9.02,4.739,13.8,6.52c4.3-10.32,9.87-20.09,14.05-30.47
			C71.49,420.77,68.89,421.51,66.38,422.52z M57.66,444.63c-1.06-0.02-2.1-0.14-3.14-0.37c0.04-1.16,0.09-2.319,0.14-3.46
			c1.65-0.01,3.29-0.03,4.94-0.069C58.49,441.77,58.43,443.37,57.66,444.63z"/>
		<path d="M143.19,447.66c0.7,2.53,0.53,5.149-0.06,7.689c-1.3,5.73-1.86,11.61-3.65,17.221c-1.03-0.4-2.05-0.801-3.07-1.19
			c0.45-3.91-2.89-6.47-4.79-9.45c-2.77,1.03-5.38,2.45-7.93,3.94c-0.12,0.67-0.37,2.01-0.5,2.68c-0.97-0.11-2.9-0.32-3.87-0.42
			c0.34-4.38,2.23-8.47,2.33-12.86c-2.11,1.08-4.22,2.181-6.32,3.301c0.54,2.739,0.15,5.5-0.91,8.06c-1.68-0.53-3.35-1.07-5.03-1.58
			c0.36-4,1.59-7.96,1.16-12.01c-0.21-3.021-2.16-5.48-3.58-8.021c-2.07,0.341-4.08,0.961-6.06,1.671c1.98,1.56,4.3,2.949,5.31,5.38
			c2.15,3.699,0.59,8.02,0.3,11.979c-1.65-0.47-3.31-0.939-4.95-1.43c0.37-2.771,0.12-5.61-1.68-7.87
			c-8.8-3.83-18.17-6.36-26.74-10.71c-0.15-2.38,1.74-3.83,3.52-5c-1.1-2.39-2.32-4.72-3.62-7.01c-1.79,4.76-4.41,9.17-5.96,14.02
			c8.17,3.38,16.31,6.851,24.68,9.73c1.9,0.779,4.1,1.22,5.57,2.75c0.05,2.359-1.39,4.52-2.08,6.75c-0.61,0.18-1.83,0.529-2.44,0.71
			c-1.64-1.9-0.84-4.21-0.09-6.3c-7.89-2.62-15.65-5.62-23.24-8.99c-1.57-0.69-3.23-1.15-4.89-1.53c-0.11,1.18-0.17,2.36-0.18,3.561
			c7.16,3.6,14.78,6.26,22.28,9.069c-0.01,0.521-0.04,1.54-0.06,2.061c1.52,2.42,2.96,4.899,4.35,7.399
			c3.21-0.99,6.53-1.95,9.15-4.17l0.67-0.46c3.28,0.771,6.48,1.89,9.46,3.46c5.73,0.32,11.09,2.57,16.7,3.57
			c5.7,1.05,11.33,2.57,17.12,3.07c1.23-11.091,3.99-21.95,5.43-33.021C147.33,444.89,145.22,446.21,143.19,447.66z M127.04,468.94
			c1.19-0.95,2.57-1.521,4.12-1.421c0.18,1.021,0.37,2.051,0.56,3.08C130.05,470.36,128.15,470.45,127.04,468.94z"/>
		<path fill="#29141C" d="M159.65,15.18c-2.34,0.34-3.55,2.28-3.58,4.53c2.03-0.93,4.22-1.38,6.46-1.3
			c-0.13,3.59,0.53,7.25,3.05,9.97c1,0.4,1.99,0.82,3.01,1.16c0.47-0.52,1.4-1.57,1.86-2.1c-1.3-0.18-2.59-0.39-3.88-0.6
			c3.51-0.02,7.55,0.27,9.71-3.1l0.05-1.23c-0.04-2,0.43-3.94,1.1-5.81c1.64-0.77,3.26-1.56,4.88-2.38
			C174.76,13.3,167.07,13.3,159.65,15.18z M171.399,18.98c-0.119,0.046-0.257,0.054-0.401-0.007
			c-1.343-0.568-2.654-0.871-3.852,0.172c-0.351,0.306-0.815,0.019-0.861-0.323c-0.127-0.138-0.172-0.337-0.029-0.543
			c0.463-0.669,1.233-0.905,2.067-0.931c0.008,0,0.013-0.004,0.021-0.004c0.178-0.002,0.354-0.007,0.53-0.01
			c0.035,0,0.064-0.013,0.103-0.003c0.003,0,0.007,0.001,0.01,0.002c0.426-0.005,0.848,0.008,1.271,0.123
			c0.054,0.014,0.093,0.041,0.134,0.067c0.421,0.082,0.831,0.225,1.235,0.514C172.011,18.312,171.847,19.005,171.399,18.98z"/>
		<path fill="#29141C" d="M147.7,26.21c-1.42,0.06-2.84,0.15-4.26,0.26c-0.04,1.11-0.07,2.22-0.09,3.34
			c1.5-0.34,2.86-1.05,4.25-1.68C147.62,27.65,147.68,26.69,147.7,26.21z"/>
		<path d="M173.09,485.71c-0.51-0.56-1.54-1.69-2.06-2.25c-0.68,0.32-2.06,0.97-2.74,1.29c0.07,0.9,0.15,1.8,0.24,2.71
			c1.76,0.05,3.53-0.21,5.29-0.02c1.16,0.56,2.81,1.51,3.81,0.119c1.42-0.93-0.05-2.489-0.45-3.54
			C175.69,484.26,174.32,484.84,173.09,485.71z"/>
		<ellipse cx="164.715" cy="452.667" rx="1.951" ry="1.938"/>
		<ellipse cx="164.094" cy="457.201" rx="1.951" ry="1.938"/>
		<ellipse cx="122.333" cy="452.333" rx="1.951" ry="1.938"/>
		<ellipse cx="117.384" cy="450.983" rx="1.951" ry="1.938"/>
		<path d="M159.967,263.302c-4.369-2.553-8.46-5.524-12.213-8.872c-2.223-0.071-4.446-0.146-6.671-0.228
			c5.348,5.416,11.462,10.067,18.168,13.788l0.021-0.004L159.967,263.302z"/>
		<path d="M225.024,268.623c-8.382,3.204-17.472,4.977-26.98,4.977c-10.345,0-20.202-2.083-29.181-5.844l-3.296,3.359l0.009,0.018
			C175.49,275.535,186.454,278,198,278c10.604,0,20.716-2.082,29.977-5.828l0.027-0.045L225.024,268.623z"/>
		<path d="M234.121,264.451l0.362,4.738c7.141-3.667,13.658-8.37,19.351-13.921c-2.165,0.007-4.331,0.015-6.494,0.022
			C243.281,258.786,238.861,261.872,234.121,264.451z"/>
		<path d="M143.031,146.174c12.931-13.721,30.923-22.617,51.003-23.667l1.445-4.443c-22.287,0.691-42.277,10.481-56.367,25.8
			l-0.056,0.576L143.031,146.174z"/>
		<path d="M125.085,217.815l-4.749-0.611c3.438,13.949,10.535,26.45,20.215,36.442c2.189,0.078,4.378,0.155,6.565,0.223
			C136.655,244.328,128.898,231.883,125.085,217.815z"/>
		<path d="M122.444,198c0-16.532,5.322-31.813,14.325-44.256l-2.375-4.042l-0.192,0.042C124.038,163.159,118,179.872,118,198
			c0,4.159,0.318,8.243,0.93,12.23l4.185-2.29C122.688,204.686,122.444,201.372,122.444,198z"/>
		<path d="M259.921,154.589c8.637,12.288,13.724,27.251,13.724,43.411c0,4.179-0.354,8.274-1.006,12.27l3.135,2.123l1.058-0.824
			C277.585,207.156,278,202.627,278,198c0-17.152-5.416-33.031-14.606-46.056l-1.441-0.404L259.921,154.589z"/>
		<path d="M270.594,219.253c-4.061,13.883-11.989,26.105-22.551,35.429c2.143-0.008,4.286-0.015,6.431-0.023
			c9.234-9.204,16.222-20.654,20.097-33.458l-0.744-2.056L270.594,219.253z"/>
		<path d="M254.127,147.309l3.465-1.283l-0.059-1.452c-13.682-15.235-33.121-25.186-54.898-26.431l1.471,4.52
			C223.906,124.236,241.562,133.417,254.127,147.309z"/>
		<polygon stroke="#000000" stroke-width="2" points="202.635,118.144 202.559,117.908 208.247,113.775 201.217,113.775 
			199.044,107.09 196.872,113.775 189.842,113.775 195.53,117.908 195.479,118.064 194.035,122.507 193.357,124.593 
			196.315,122.443 199.044,120.461 201.846,122.496 204.732,124.593 204.105,122.663 		"/>
		<polygon stroke="#000000" stroke-width="2" points="143.031,146.174 139.056,144.44 139.112,143.864 139.736,137.443 
			135.073,142.704 128.629,139.894 132.191,145.955 127.528,151.215 134.201,149.744 134.393,149.701 136.769,153.744 
			137.954,155.761 138.356,151.631 138.635,148.764 141.189,148.201 145.499,147.25 		"/>
		<polygon stroke="#000000" stroke-width="2" points="124.532,215.629 122.013,213.253 123.443,210.23 125.019,206.899 
			123.115,207.94 118.93,210.23 118.852,210.273 113.737,205.451 115.041,212.359 113.933,212.965 108.873,215.732 114.292,216.428 
			115.846,216.628 117.149,223.535 120.156,217.181 120.336,217.204 125.085,217.815 127.127,218.077 		"/>
		<polygon stroke="#000000" stroke-width="2" points="170.489,266.098 166.61,266.751 163.556,267.266 162.134,264.539 
			160.304,261.033 159.967,263.302 159.272,267.986 159.251,267.99 152.34,269.154 158.635,272.284 157.604,279.238 
			162.525,274.219 168.82,277.348 165.576,271.133 165.567,271.115 168.863,267.756 		"/>
		<polygon stroke="#000000" stroke-width="2" points="241.336,271.105 234.503,269.45 234.483,269.189 234.121,264.451 
			233.968,262.441 232.086,265.496 230.281,268.427 227.334,267.713 223.45,266.771 225.024,268.623 228.004,272.127 
			227.977,272.172 224.318,278.111 230.818,275.436 235.372,280.792 234.836,273.782 		"/>
		<path stroke="#000000" stroke-width="2" d="M279.372,214.827l1.948-6.755l-4.489,3.497l-1.058,0.824l-3.135-2.123l-2.686-1.818
			l1.99,5.5l0.402,1.111l-0.803,0.625l-4.743,3.693l3.794-0.126l3.232-0.107l0.744,2.056l1.648,4.554l1.949-6.755l5.698-0.189
			c0.031-0.293,0.061-0.587,0.091-0.881L279.372,214.827z"/>
		<polygon stroke="#000000" stroke-width="2" points="264.359,147.924 268.259,142.074 261.666,144.516 257.307,139.002 
			257.533,144.574 257.592,146.026 254.127,147.309 251,148.467 256.447,149.996 257.77,150.367 257.826,151.75 258.055,157.39 
			259.921,154.589 261.952,151.54 263.394,151.944 268.721,153.439 		"/>
	</g>
</g>
<path fill="none" stroke="#1F1A17" stroke-miterlimit="10" d="M177.331,255.104c-0.011-0.058-0.021-0.115-0.032-0.172
	c-0.026-0.134-0.047-0.268-0.072-0.401c-1.777-9.417-2.857-18.905-3.435-28.439c-0.029-0.481-0.042-0.964-0.068-1.445
	c-0.987-17.873-0.254-35.901,0.973-53.924c0.085-1.256,0.167-2.513,0.256-3.769c0.837-11.703,1.834-23.397,2.649-35.039
	c-28.216,8.718-48.718,35.007-48.718,66.086c0,23.146,11.383,43.617,28.845,56.165c0.196,0.141,0.392,0.279,0.589,0.418
	c0.073,0.051,0.146,0.104,0.219,0.155c6.278,4.376,13.308,7.748,20.868,9.859C178.627,261.441,177.939,258.276,177.331,255.104z"/>
<path fill="none" stroke="#1F1A17" stroke-miterlimit="10" d="M176.438,224.963l0.203,2.831c0.398,5.56,0.832,11.118,1.265,16.67
	c0.259,3.318,0.522,6.698,0.778,10.084c0.01,0.135,0.021,0.27,0.031,0.405c0.004,0.058,0.008,0.115,0.013,0.173
	c0.194,2.574,0.384,5.15,0.563,7.704l0.182,2.712l1.641,0.547c6.84,2.114,8.817,1.973,16.031,1.973
	c15.835,0,29.793-4.622,41.101-12.738c0.097-0.07,0.194-0.139,0.292-0.209c0.186-0.135,0.375-0.264,0.56-0.4
	c10.697-7.938,18.936-19.065,24.031-32.407C235.743,228.138,204.726,228.175,176.438,224.963z"/>
<path fill="none" stroke="#1F1A17" stroke-miterlimit="10" d="M176.438,171.762l0.203-2.831c0.398-5.56,0.832-11.118,1.265-16.67
	c0.259-3.318,0.522-6.698,0.778-10.084c0.01-0.135,0.021-0.27,0.031-0.405c0.004-0.058,0.008-0.115,0.013-0.173
	c0.194-2.574,0.384-5.15,0.563-7.704l0.182-2.712l1.641-0.547c6.84-2.114,8.817-1.973,16.031-1.973
	c15.835,0,29.793,4.622,41.101,12.738c0.097,0.07,0.194,0.139,0.292,0.209c0.186,0.135,0.375,0.264,0.56,0.4
	c10.697,7.938,18.936,19.065,24.031,32.407C235.743,168.587,204.726,168.55,176.438,171.762z"/>
</svg>
