<?xml version="1.0" encoding="utf-8"?>
<!-- Generator: Adobe Illustrator 16.0.0, SVG Export Plug-In . SVG Version: 6.00 Build 0)  -->
<!DOCTYPE svg PUBLIC "-//W3C//DTD SVG 1.1//EN" "http://www.w3.org/Graphics/SVG/1.1/DTD/svg11.dtd">
<svg version="1.1" id="Layer_2" xmlns="http://www.w3.org/2000/svg" xmlns:xlink="http://www.w3.org/1999/xlink" x="0px" y="0px"
	 width="6441.676px" height="1024px" viewBox="0 0 6441.676 1024" enable-background="new 0 0 6441.676 1024" xml:space="preserve">
<g>
	<path fill="#FFFFFF" d="M615.346,928.411C615.343,928.411,615.349,928.411,615.346,928.411c-36.965,0-71.718-14.396-97.855-40.534
		L239.467,609.855c-53.958-53.957-53.958-141.754,0-195.709L517.49,136.122c26.138-26.138,60.891-40.533,97.855-40.533
		c36.964,0,71.718,14.394,97.856,40.533l278.023,278.024c53.955,53.957,53.955,141.753,0,195.71L713.202,887.877
		C687.066,914.015,652.31,928.411,615.346,928.411z M615.346,127.237c-28.512,0-55.315,11.104-75.476,31.263L261.846,436.525
		c-41.617,41.616-41.617,109.333,0.001,150.952L539.87,865.5c20.16,20.159,46.965,31.262,75.476,31.262
		c28.512,0,55.317-11.103,75.476-31.262l278.025-278.023c41.617-41.618,41.617-109.334,0-150.953L690.823,158.501
		C670.663,138.341,643.858,127.237,615.346,127.237z"/>
	<g>
		<path fill="#FFFFFF" d="M506.461,362.612c32.085,0,56.546,13.472,73.378,40.412c16.828,26.943,25.246,63.237,25.246,108.885
			c0,45.77-8.418,82.126-25.246,109.068c-16.832,26.943-41.292,40.411-73.378,40.411c-31.968,0-56.396-13.47-73.286-40.411
			c-16.893-26.941-25.338-63.297-25.338-109.068c0-45.648,8.445-81.942,25.338-108.885
			C450.066,376.083,474.493,362.612,506.461,362.612z M451.411,572.16l97.36-152.721c-6.165-11.25-12.842-18.842-20.034-22.774
			c-7.191-3.933-14.654-5.9-22.39-5.9c-20.184,0-35.534,11.229-46.049,33.683c-10.518,22.457-15.773,50.936-15.773,85.433
			c0,7.869,0.241,16.343,0.724,25.421C445.732,544.381,447.786,556.666,451.411,572.16z M560.96,453.062l-96.666,153.656
			c5.2,8.84,11.183,15.469,17.953,19.887c6.771,4.422,14.328,6.629,22.672,6.629c22.97,0,39.295-12.863,48.966-38.594
			c9.67-25.729,14.51-54.276,14.51-85.638C568.397,489.632,565.915,470.983,560.96,453.062z"/>
		<path fill="#FFFFFF" d="M721.324,624.699V407.289c-10.171,8.078-20.044,14.944-29.604,20.608
			c-9.566,5.665-22.705,11.452-39.413,17.354v-30.513c26.518-11.261,49.522-25.851,69.018-43.772h33.784v253.731h67.744v28.154
			H652.308v-28.154h69.017V624.699z"/>
	</g>
</g>
<g>
	<path fill="#FFFFFF" d="M1498.133,329.875v246.921c0,39.696-12.132,70.048-36.399,91.062
		c-24.267,21.015-55.913,31.521-94.94,31.521c-38.527,0-69.715-10.545-93.564-31.646c-23.853-21.096-35.775-51.41-35.775-90.937
		V329.875h30.021v246.74c0,30.998,9.171,54.957,27.52,71.875c18.345,16.918,42.28,25.373,71.8,25.373
		c30.021,0,54.451-8.416,73.301-25.248c18.845-16.832,28.269-40.834,28.269-72v-246.74H1498.133z"/>
	<path fill="#FFFFFF" d="M1855.38,694.127h-29.771l-206.893-313.216l-1.502,0.25v312.966h-30.019V329.875h30.019l206.893,312.716
		l1.502-0.251V329.875h29.771V694.127z"/>
	<path fill="#FFFFFF" d="M2156.087,517.754h-175.371v150.855h200.889v25.518h-230.659V329.875h229.408v25.517h-199.638v136.845
		h175.371V517.754z"/>
	<path fill="#FFFFFF" d="M2497.073,580.299l0.501,1.499c-3.17,36.526-16.18,65.257-39.026,86.185
		c-22.854,20.933-53.456,31.396-91.812,31.396c-40.529,0-73.22-14.633-98.068-43.904c-24.854-29.271-37.276-67.172-37.276-113.704
		V482.48c0-46.364,12.422-84.265,37.276-113.703c24.849-29.434,57.539-44.156,98.068-44.156c38.689,0,69.378,10.257,92.062,30.771
		c22.68,20.514,35.606,49.37,38.776,86.56l-0.501,1.501h-28.02c-4.003-30.186-14.384-53.287-31.146-69.298
		c-16.762-16.012-40.49-24.017-71.173-24.017c-31.859,0-57.416,12.333-76.68,36.999c-19.263,24.666-28.895,56.246-28.895,94.741
		v59.745c0,39,9.632,70.791,28.895,95.369c19.264,24.58,44.82,36.871,76.68,36.871c30.683,0,54.449-7.818,71.298-23.455
		c16.844-15.635,27.184-39.002,31.021-70.109H2497.073z"/>
	<path fill="#FFFFFF" d="M2770.263,592.556h-166.865l-37.526,101.571h-31.022l138.346-364.252h28.271l137.344,364.252h-31.021
		L2770.263,592.556z M2613.404,565.787h147.102l-72.55-197.135h-1.501L2613.404,565.787z"/>
	<path fill="#FFFFFF" d="M3019.184,694.127V329.875h105.823c44.531,0,81.306,14.846,110.326,44.531
		c29.02,29.688,43.53,67.796,43.53,114.329v46.783c0,46.7-14.511,84.808-43.53,114.328c-29.021,29.52-65.795,44.281-110.326,44.281
		H3019.184z M3048.954,355.392v313.217h76.053c36.025,0,65.671-12.579,88.937-37.744c23.267-25.168,34.898-56.998,34.898-95.491
		v-47.496c0-37.995-11.676-69.571-35.024-94.737c-23.352-25.166-52.954-37.749-88.811-37.749H3048.954z"/>
	<path fill="#FFFFFF" d="M3545.798,592.556h-166.865l-37.526,101.571h-31.022l138.347-364.252h28.269l137.345,364.252h-31.02
		L3545.798,592.556z M3388.938,565.787h147.103l-72.551-197.135h-1.499L3388.938,565.787z"/>
	<path fill="#FFFFFF" d="M3882.031,355.392h-125.339v338.735h-30.02V355.392h-125.337v-25.517h280.695V355.392z"/>
	<path fill="#FFFFFF" d="M4117.19,592.556h-166.864l-37.525,101.571h-31.022l138.346-364.252h28.269l137.344,364.252h-31.02
		L4117.19,592.556z M3960.332,565.787h147.102l-72.551-197.135h-1.5L3960.332,565.787z"/>
	<path fill="#FFFFFF" d="M4395.883,542.772v151.354h-29.771V329.875h125.337c38.191,0,67.754,9.718,88.687,29.145
		c20.929,19.431,31.396,45.156,31.396,77.179c0,32.358-10.467,58.208-31.396,77.553c-20.933,19.35-50.495,29.021-88.687,29.021
		H4395.883z M4395.883,517.254h95.566c30.02,0,52.577-7.63,67.672-22.89c15.091-15.261,22.641-34.481,22.641-57.665
		c0-23.348-7.505-42.736-22.516-58.165c-15.01-15.425-37.61-23.142-67.797-23.142h-95.566V517.254z"/>
	<path fill="#FFFFFF" d="M4949.015,541.771c0,47.032-12.883,85.061-38.652,114.079c-25.766,29.021-60.333,43.529-103.695,43.529
		c-42.698,0-76.764-14.508-102.195-43.529c-25.435-29.019-38.151-67.047-38.151-114.079V482.48
		c0-46.864,12.674-84.891,38.026-114.079c25.348-29.185,59.373-43.78,102.07-43.78c43.361,0,77.969,14.596,103.821,43.78
		c25.85,29.188,38.776,67.214,38.776,114.079V541.771z M4919.244,482.183c0-39.417-9.967-71.155-29.896-95.21
		c-19.931-24.055-47.575-36.083-82.932-36.083c-34.692,0-61.71,12.028-81.056,36.083c-19.35,24.056-29.021,55.793-29.021,95.21
		v59.885c0,39.755,9.715,71.658,29.146,95.715c19.427,24.055,46.489,36.08,81.181,36.08c35.524,0,63.169-11.986,82.932-35.955
		c19.765-23.97,29.646-55.919,29.646-95.84V482.183z"/>
	<path fill="#FFFFFF" d="M5056.841,529.514v164.613h-29.772V330.125h123.336c39.027,0,68.962,8.549,89.812,25.643
		c20.846,17.098,31.272,42.072,31.272,74.927c0,19.35-5.592,36.65-16.763,51.912c-11.175,15.26-26.937,26.393-47.282,33.398
		c22.516,5.672,38.733,15.803,48.658,30.395c9.922,14.598,14.884,32.898,14.884,54.914v34.274c0,11.343,1.334,21.514,4.004,30.521
		c2.666,9.006,7.086,16.348,13.26,22.014v6.006h-30.521c-6.172-6.006-10.507-14.424-13.01-25.269
		c-2.5-10.839-3.751-22.097-3.751-33.772v-33.273c0-22.348-7.216-39.984-21.641-52.912c-14.429-12.923-34.566-19.387-60.416-19.387
		H5056.841z M5056.841,503.995h89.812c32.854,0,56.872-6.629,72.049-19.889c15.174-13.259,22.767-31.147,22.767-53.662
		c0-24.017-7.549-42.487-22.641-55.414c-15.098-12.923-37.902-19.389-68.423-19.389h-93.563V503.995z"/>
	<path fill="#FFFFFF" d="M5589.208,355.392h-125.337v338.735h-30.021V355.392h-125.337v-25.517h280.694V355.392z"/>
	<path fill="#FFFFFF" d="M5824.371,592.556h-166.865l-37.527,101.571h-31.021l138.345-364.252h28.27l137.344,364.252h-31.02
		L5824.371,592.556z M5667.511,565.787h147.103l-72.551-197.135h-1.5L5667.511,565.787z"/>
	<path fill="#FFFFFF" d="M5978.726,668.609h180.126v25.518h-210.146V329.875h30.021V668.609z"/>
</g>
</svg>
